<svg width="32" height="32" viewBox="0 0 32 32" fill="none" xmlns="http://www.w3.org/2000/svg">
<g clip-path="url(#clip0_59217_1097)">
<path d="M6.1031 27.2747C6.09291 27.2655 6.08235 27.2568 6.07146 27.2485C5.74523 26.9777 5.419 26.6874 5.11887 26.3873C5.02725 26.2966 4.90358 26.2458 4.7747 26.2458C4.64582 26.2458 4.52214 26.2966 4.43052 26.3873C4.33889 26.479 4.28741 26.6034 4.28741 26.7331C4.28741 26.8627 4.33889 26.9871 4.43052 27.0789C4.75675 27.4051 5.08298 27.7085 5.44836 28.0021C5.54492 28.0883 5.67168 28.1327 5.80091 28.1256C5.93013 28.1185 6.0513 28.0605 6.13788 27.9644C6.22446 27.8682 6.26941 27.7416 6.26289 27.6123C6.25637 27.4831 6.19892 27.3617 6.1031 27.2747ZM0.98179 12.767C0.911564 12.7425 0.836669 12.7343 0.7628 12.7431C0.68893 12.7518 0.61803 12.7773 0.555488 12.8176C0.492946 12.8578 0.44041 12.9119 0.401871 12.9755C0.363333 13.0391 0.339807 13.1107 0.333083 13.1848C0.235214 13.6317 0.160181 14.0852 0.104722 14.5386C0.0879401 14.6661 0.121994 14.795 0.199522 14.8976C0.27705 15.0001 0.391825 15.0681 0.519033 15.0867H0.581017C0.700682 15.0868 0.816229 15.043 0.905801 14.9636C0.995372 14.8843 1.05276 14.7749 1.0671 14.6561C1.1193 14.232 1.19107 13.8046 1.28241 13.3903C1.3036 13.3296 1.31263 13.2654 1.30899 13.2012C1.30535 13.1371 1.28911 13.0743 1.2612 13.0164C1.23328 12.9585 1.19424 12.9067 1.1463 12.8639C1.09836 12.8211 1.04246 12.7882 0.98179 12.767ZM3.67041 24.6811C3.41921 24.3353 3.18107 23.9764 2.96249 23.611C2.92964 23.5558 2.88624 23.5076 2.83475 23.4691C2.78327 23.4307 2.72471 23.4027 2.66243 23.3869C2.60015 23.3711 2.53536 23.3677 2.47176 23.3769C2.40816 23.3861 2.347 23.4077 2.29176 23.4406L2.29046 23.4414C2.23523 23.4743 2.187 23.5177 2.14854 23.5691C2.11009 23.6206 2.08214 23.6792 2.06632 23.7415C2.05049 23.8038 2.04708 23.8685 2.05629 23.9321C2.06551 23.9957 2.08715 24.0569 2.12 24.1121L2.12082 24.1134C2.3557 24.5049 2.61016 24.8899 2.88093 25.2585C2.95931 25.3583 3.07337 25.4237 3.19904 25.441C3.32472 25.4582 3.4522 25.426 3.5546 25.3511C3.65699 25.2763 3.7263 25.1645 3.74791 25.0395C3.76951 24.9145 3.74173 24.786 3.67041 24.6811ZM1.96423 21.595C1.80764 21.2002 1.6641 20.7924 1.54339 20.3814C1.52516 20.3185 1.4945 20.26 1.45322 20.2092C1.41195 20.1584 1.36091 20.1164 1.30312 20.0856C1.24532 20.0549 1.18195 20.0361 1.11676 20.0303C1.05156 20.0245 0.985865 20.0318 0.923558 20.0519C0.80017 20.0896 0.696667 20.1745 0.635571 20.2881C0.574475 20.4018 0.56073 20.535 0.597329 20.6587C0.72782 21.0958 0.877886 21.533 1.04753 21.9636C1.09641 22.0852 1.19158 22.1823 1.31211 22.2337C1.43263 22.2851 1.56863 22.2865 1.6902 22.2376C1.81176 22.1887 1.90892 22.0936 1.96031 21.973C2.01171 21.8525 2.01311 21.7165 1.96423 21.595ZM2.2562 9.41192C2.14026 9.35352 2.00588 9.34358 1.8826 9.38426C1.75933 9.42494 1.65726 9.51293 1.59885 9.62886C1.39333 10.0366 1.20412 10.4575 1.03774 10.8848C0.990613 11.0051 0.992976 11.1392 1.04431 11.2578C1.09565 11.3763 1.1918 11.4698 1.31177 11.5177C1.37152 11.5414 1.43534 11.5531 1.4996 11.5521C1.56385 11.5511 1.62728 11.5374 1.68626 11.5119C1.74524 11.4864 1.79862 11.4495 1.84335 11.4034C1.88808 11.3572 1.92328 11.3027 1.94694 11.243L1.94792 11.2404C2.10451 10.8424 2.27415 10.4477 2.47315 10.0693C2.53154 9.95333 2.54149 9.81894 2.50081 9.69567C2.46012 9.57239 2.37214 9.47033 2.2562 9.41192ZM1.08357 18.1905L1.08341 18.1892C1.03121 17.7651 0.995328 17.3345 0.979017 16.9104C0.976661 16.8461 0.96167 16.783 0.934902 16.7245C0.908133 16.666 0.87011 16.6134 0.823004 16.5696C0.775898 16.5258 0.720632 16.4918 0.66036 16.4694C0.600088 16.4469 0.535992 16.4366 0.47173 16.439C0.407469 16.4413 0.3443 16.4563 0.285832 16.4831C0.227364 16.5099 0.174741 16.5479 0.130967 16.595C0.0871934 16.6421 0.0531266 16.6974 0.0307116 16.7576C0.00829667 16.8179 -0.0020274 16.882 0.000328854 16.9463C0.000328854 17.403 0.0525255 17.863 0.111247 18.3164C0.127449 18.4312 0.183898 18.5366 0.270532 18.6137C0.357166 18.6907 0.468355 18.7345 0.584279 18.7373H0.659312C0.723071 18.7292 0.784622 18.7087 0.84045 18.6769C0.896277 18.645 0.945289 18.6025 0.984686 18.5518C1.02408 18.501 1.05309 18.4429 1.07006 18.381C1.08703 18.319 1.09162 18.2543 1.08357 18.1905ZM14.0657 1.86623C14.0532 1.73645 13.9896 1.61697 13.8889 1.53407C13.7883 1.45117 13.6588 1.41165 13.5291 1.42419C13.0756 1.46986 12.6189 1.53511 12.1687 1.62319C12.0389 1.63531 11.9192 1.69848 11.836 1.79881C11.7528 1.89915 11.7129 2.02843 11.725 2.15821C11.7371 2.28799 11.8003 2.40765 11.9006 2.49085C12.001 2.57405 12.1302 2.61399 12.26 2.60188L12.2568 2.58883H12.3514C12.7722 2.50727 13.1996 2.44529 13.6237 2.40288C13.7534 2.39033 13.8729 2.32675 13.9558 2.22611C14.0387 2.12547 14.0783 1.99602 14.0657 1.86623ZM4.38159 6.45139C4.28382 6.36487 4.15568 6.32073 4.02537 6.32869C3.89506 6.33664 3.77324 6.39603 3.68672 6.4938C3.38659 6.83634 3.09951 7.19845 2.832 7.57035C2.77917 7.64328 2.74748 7.72938 2.74044 7.81916C2.73339 7.90894 2.75126 7.99893 2.79208 8.07921C2.83289 8.15948 2.89507 8.22694 2.97176 8.27415C3.04845 8.32136 3.13668 8.34649 3.22674 8.34678V8.3533C3.30437 8.35358 3.38095 8.33538 3.45015 8.30021C3.51936 8.26505 3.5792 8.21391 3.62474 8.15104C3.87593 7.80524 4.14344 7.46596 4.424 7.14626C4.51052 7.04848 4.55465 6.92035 4.5467 6.79004C4.53874 6.65973 4.47935 6.53791 4.38159 6.45139ZM17.2905 1.50575C16.8403 1.43724 16.3803 1.38831 15.9236 1.36221C15.7938 1.35442 15.6662 1.39851 15.569 1.48477C15.4717 1.57104 15.4127 1.69241 15.4049 1.82219C15.3971 1.95197 15.4412 2.07953 15.5274 2.17681C15.6137 2.27409 15.7351 2.33311 15.8649 2.3409C16.2955 2.37352 16.7228 2.41919 17.1437 2.48444H17.2187C17.3485 2.49396 17.4767 2.45153 17.5752 2.36649C17.6737 2.28145 17.7344 2.16076 17.7439 2.03098C17.7535 1.9012 17.711 1.77295 17.626 1.67445C17.541 1.57595 17.4203 1.51527 17.2905 1.50575ZM7.16066 4.11974C7.0869 4.01956 6.97776 3.95122 6.85543 3.92864C6.73309 3.90605 6.60675 3.9309 6.50208 3.99814C6.12692 4.25586 5.75828 4.53642 5.40595 4.82676C5.35646 4.86789 5.31556 4.91836 5.28558 4.97529C5.2556 5.03222 5.23713 5.0945 5.23123 5.15858C5.22532 5.22265 5.23209 5.28725 5.25116 5.34871C5.27022 5.41016 5.3012 5.46726 5.34233 5.51674C5.38346 5.56623 5.43393 5.60713 5.49086 5.6371C5.54779 5.66708 5.61007 5.68555 5.67415 5.69146C5.73822 5.69737 5.80282 5.6906 5.86428 5.67153C5.92573 5.65247 5.98283 5.62149 6.03231 5.58035C6.35854 5.30632 6.70434 5.04534 7.05667 4.80393C7.10842 4.76583 7.15216 4.71792 7.1854 4.66291C7.21863 4.60791 7.24071 4.54691 7.25036 4.48337C7.26002 4.41984 7.25707 4.35503 7.24167 4.29264C7.22628 4.23024 7.19875 4.1715 7.16066 4.11974ZM8.802 3.72411C8.80037 3.72411 8.79882 3.72378 8.79718 3.72378C8.79547 3.72378 8.79384 3.72411 8.79221 3.72411H8.802Z" fill="#5BB8AE"/>
<path d="M10.5274 2.57657C10.5088 2.50881 10.4759 2.44585 10.4307 2.39197C10.3856 2.3381 10.3294 2.29457 10.266 2.26436C10.2026 2.23414 10.1334 2.21794 10.0631 2.21685C9.99284 2.21577 9.92318 2.22983 9.85884 2.25808C9.43148 2.41467 9.00412 2.58431 8.59307 2.78984C8.49235 2.8368 8.41062 2.91664 8.36132 3.01624C8.31202 3.11583 8.2981 3.22924 8.32184 3.3378C8.34559 3.44636 8.40558 3.54361 8.49195 3.61353C8.57832 3.68346 8.68592 3.7219 8.79704 3.72253C8.86769 3.72124 8.93722 3.70465 9.00085 3.67392C9.3858 3.49123 9.7838 3.32485 10.1851 3.17805C10.247 3.16104 10.3051 3.13199 10.3558 3.09256C10.4066 3.05313 10.449 3.00408 10.4808 2.94823C10.5126 2.89237 10.5331 2.8308 10.5411 2.76703C10.5491 2.70326 10.5445 2.63854 10.5274 2.57657ZM16.4439 30.883C16.4398 30.8187 16.4231 30.7559 16.3947 30.6981C16.3664 30.6403 16.3269 30.5886 16.2786 30.5461C16.2303 30.5035 16.1741 30.4709 16.1131 30.45C16.0522 30.4292 15.9878 30.4206 15.9235 30.4247C15.4962 30.4573 15.0655 30.4671 14.6382 30.454C14.5739 30.4523 14.5099 30.4633 14.4499 30.4863C14.3899 30.5093 14.335 30.5439 14.2883 30.5881C14.2417 30.6323 14.2042 30.6853 14.178 30.744C14.1519 30.8027 14.1375 30.866 14.1358 30.9303C14.1341 30.9946 14.145 31.0585 14.168 31.1186C14.191 31.1786 14.2257 31.2335 14.2699 31.2801C14.3141 31.3268 14.3671 31.3643 14.4258 31.3905C14.4845 31.4166 14.5478 31.431 14.6121 31.4327H15.0264C15.3526 31.4327 15.6788 31.4327 15.9855 31.4033C16.0498 31.3993 16.1126 31.3826 16.1704 31.3543C16.2282 31.3259 16.2799 31.2864 16.3225 31.2381C16.365 31.1898 16.3977 31.1336 16.4185 31.0726C16.4393 31.0117 16.4479 30.9473 16.4439 30.883ZM29.2516 19.5465C29.1257 19.5145 28.9923 19.5338 28.8806 19.6002C28.769 19.6666 28.6883 19.7746 28.6563 19.9005C28.551 20.3152 28.4258 20.7245 28.2811 21.1271C28.2402 21.2483 28.2483 21.3807 28.3038 21.4959C28.3593 21.6112 28.4577 21.7001 28.578 21.7437C28.6384 21.7654 28.7026 21.775 28.7668 21.7719C28.831 21.7688 28.894 21.753 28.9521 21.7256C29.0102 21.6982 29.0623 21.6596 29.1055 21.612C29.1487 21.5644 29.1821 21.5088 29.2038 21.4483L29.2043 21.4468C29.3576 21.0162 29.4914 20.5758 29.6056 20.1419C29.6214 20.0796 29.6249 20.0147 29.6156 19.9511C29.6064 19.8874 29.5848 19.8262 29.5519 19.7709C29.519 19.7156 29.4756 19.6673 29.4241 19.6289C29.3726 19.5904 29.314 19.5624 29.2516 19.5465ZM29.8764 13.9435C29.8013 13.4933 29.7067 13.0399 29.5925 12.5995C29.5559 12.4783 29.4737 12.3759 29.3632 12.3141C29.2527 12.2522 29.1226 12.2355 29.0001 12.2677C28.8776 12.2998 28.7723 12.3781 28.7063 12.4862C28.6404 12.5943 28.6189 12.7238 28.6465 12.8474C28.7541 13.2585 28.8422 13.6826 28.914 14.1034C28.9344 14.2152 28.9931 14.3164 29.08 14.3896C29.167 14.4628 29.2766 14.5035 29.3903 14.5047H29.4718C29.5999 14.4839 29.7144 14.4131 29.7903 14.3078C29.8661 14.2026 29.8971 14.0716 29.8764 13.9435Z" fill="#5BB8AE"/>
<path d="M31.9554 8.32744C31.9324 8.27748 31.9009 8.23189 31.8623 8.19271L30.9978 7.29232C30.9371 7.23164 30.8609 7.18865 30.7776 7.16796C30.6943 7.14727 30.6069 7.14966 30.5248 7.17487L28.9654 7.64791L27.1385 5.71011L31.2392 3.4265C31.3087 3.39455 31.3694 3.34635 31.4162 3.28599C31.4631 3.22562 31.4948 3.15485 31.5085 3.07967C31.5223 3.00449 31.5178 2.9271 31.4953 2.85404C31.4728 2.78099 31.4331 2.71441 31.3795 2.65994L30.2279 1.50835C30.1663 1.44911 30.0898 1.40756 30.0066 1.38804C29.9234 1.36853 29.8364 1.37177 29.7549 1.39743L24.558 2.96986L22.8095 1.11361C22.5921 0.862358 22.3013 0.685869 21.9781 0.609164C21.6549 0.53246 21.3157 0.559431 21.0087 0.686254H20.9793C20.7443 0.783011 20.5307 0.925366 20.351 1.1051C20.1712 1.28484 20.0289 1.4984 19.9321 1.73345C19.8829 1.85741 19.8478 1.98655 19.8277 2.1184L19.6287 2.04989C19.5054 2.01168 19.372 2.02364 19.2575 2.08318C19.143 2.14273 19.0566 2.24505 19.0171 2.36792C18.9775 2.4908 18.9881 2.6243 19.0464 2.73945C19.1047 2.85459 19.2061 2.94208 19.3286 2.98291C19.5798 3.06447 19.831 3.15581 20.0822 3.25042C20.1578 3.36869 20.2464 3.47812 20.3464 3.57665L22.1896 5.32524L21.6611 7.07056C16.4922 3.38344 9.31293 4.5847 5.62581 9.75364C1.93868 14.9226 3.13994 22.1017 8.30888 25.7889C13.4778 29.476 20.6571 28.2747 24.3442 23.1058C27.2845 18.9838 27.1819 13.4235 24.0915 9.41281L24.9267 7.90563L26.8645 9.73251L26.398 11.2756C26.3704 11.3587 26.3665 11.4479 26.3867 11.5332C26.4068 11.6184 26.4503 11.6964 26.5122 11.7584C26.5122 11.7584 27.468 12.7045 27.4908 12.7371C27.5455 12.7687 27.6059 12.7891 27.6685 12.7971C27.7312 12.805 27.7948 12.8003 27.8556 12.7833C27.9164 12.7663 27.9732 12.7373 28.0226 12.6979C28.072 12.6586 28.113 12.6098 28.1433 12.5544L29.4189 10.2153L31.722 8.95935C31.7789 8.93318 31.83 8.89608 31.8724 8.85016C31.9149 8.80424 31.9479 8.7504 31.9696 8.69172C31.9913 8.63305 32.0012 8.57067 31.9987 8.50817C31.9963 8.44567 31.9815 8.38426 31.9554 8.32744ZM7.59738 8.97232C8.57119 7.99894 9.72735 7.22708 10.9997 6.70089C12.2721 6.17471 13.6357 5.90451 15.0126 5.90576C15.2301 5.90576 15.4475 5.91229 15.665 5.92533C17.5147 7.63151 16.9699 9.18763 15.7303 10.5904C14.9987 11.3663 14.2139 12.0901 13.3814 12.7566C12.1776 13.7809 11.0554 14.7368 10.6313 15.6926C10.1289 16.8279 10.4976 17.8555 12.5267 18.7527C13.5413 19.2029 14.0926 19.5519 14.3079 19.8162C14.3111 19.82 14.3142 19.8227 14.3174 19.8251C14.3098 19.8274 14.3023 19.8299 14.2949 19.8325C13.8036 20.0196 13.2806 20.1093 12.7551 20.0967C10.2953 20.2011 8.54344 18.6287 7.18306 17.4119C6.20438 16.5408 5.39207 15.8166 4.54713 15.8101C4.68681 13.2329 5.77299 10.798 7.59738 8.97232ZM25.5367 16.4038H25.54C25.5385 20.9506 22.6156 24.9817 18.2944 26.3962C18.1731 25.6316 18.3145 24.8484 18.6957 24.1746C19.2126 23.3445 19.8758 22.615 20.6531 22.0215C23.6642 19.5095 23.8338 18.1067 23.9643 17.0269C24.0459 16.3451 24.1078 15.8362 25.4552 15.0956C25.5092 15.5296 25.5365 15.9665 25.5367 16.4038ZM24.9299 12.874C25.0757 13.2848 25.1956 13.7042 25.2888 14.13C23.2368 15.1739 23.1455 15.9177 23.0215 16.9323C22.9106 17.8458 22.767 19.0398 20.0463 21.3103C19.1749 21.977 18.4339 22.7987 17.8606 23.7342C17.3607 24.6178 17.1875 25.649 17.3712 26.6474C11.712 27.9411 6.07568 24.4022 4.78202 18.7431C4.63407 18.0958 4.54778 17.436 4.5243 16.7725C5.043 16.7725 5.71503 17.389 6.54039 18.1231C8.03452 19.4573 9.94623 21.1602 12.7942 21.0591C13.4653 21.0707 14.1315 20.9441 14.7516 20.6872C14.8808 20.6301 14.996 20.5457 15.0895 20.4399C15.183 20.334 15.2525 20.2092 15.2931 20.0739C15.3274 19.9236 15.3238 19.7672 15.2828 19.6186C15.2418 19.47 15.1647 19.3339 15.0582 19.2224C14.7516 18.8473 14.0796 18.4036 12.9247 17.8882C11.5448 17.2781 11.2446 16.6844 11.5154 16.0776C11.8416 15.3142 12.8921 14.4464 14.0078 13.4678C14.8772 12.7652 15.6959 12.0021 16.4578 11.1842C17.8214 9.6313 18.5228 7.93817 17.1363 6.08519C18.6772 6.40019 20.1269 7.05927 21.3773 8.0132L20.627 10.4893C20.5998 10.5725 20.5961 10.6616 20.6162 10.7467C20.6364 10.8319 20.6796 10.9099 20.7412 10.9721C20.7412 10.9721 21.958 12.1792 21.9971 12.202C22.0518 12.2336 22.1122 12.254 22.1748 12.262C22.2375 12.2699 22.3011 12.2652 22.3619 12.2482C22.4227 12.2312 22.4795 12.2022 22.5289 12.1628C22.5783 12.1235 22.6193 12.0747 22.6496 12.0193L23.5989 10.3033C24.1593 11.0946 24.6072 11.9597 24.9299 12.874ZM29.3047 9.23004L28.8838 9.43883C28.7896 9.48553 28.7138 9.5625 28.6685 9.6574L28.4597 10.0815L27.6474 11.5495L27.4093 11.2885L27.8823 9.72591C27.9093 9.63639 27.9091 9.54089 27.8818 9.45147C27.8545 9.36206 27.8013 9.28273 27.729 9.22351L25.155 6.79963C25.1096 6.75499 25.0556 6.71999 24.9963 6.69672C24.937 6.67345 24.8736 6.6624 24.81 6.66423C24.7463 6.66606 24.6836 6.68073 24.6258 6.70736C24.5679 6.73399 24.516 6.77203 24.4732 6.8192C24.4406 6.85509 22.1244 11.0276 22.1244 11.0276L21.6187 10.5219L23.1977 5.31855C23.2253 5.22858 23.2255 5.13239 23.1982 5.04231C23.1709 4.95223 23.1173 4.87235 23.0443 4.81289L20.9956 2.88488C20.8851 2.79128 20.8075 2.66481 20.7741 2.52394C20.7406 2.38307 20.7531 2.2352 20.8097 2.10193C20.9138 1.86491 21.1038 1.67609 21.3414 1.57343H21.3577C21.4895 1.52255 21.6339 1.51406 21.7707 1.54914C21.9076 1.58423 22.0301 1.66115 22.1211 1.76917L24.0785 3.83747C24.1387 3.90216 24.2159 3.94868 24.3012 3.97174C24.3866 3.99481 24.4767 3.9935 24.5613 3.96796L29.781 2.39227L30.2866 2.89793L26.1435 5.17501C26.0881 5.20525 26.0392 5.24628 25.9999 5.29569C25.9606 5.3451 25.9316 5.40189 25.9145 5.4627C25.8975 5.52351 25.8928 5.58712 25.9008 5.64977C25.9087 5.71241 25.9291 5.77284 25.9608 5.82747C25.9804 5.86335 28.4761 8.51886 28.4761 8.51886C28.5367 8.58298 28.614 8.62888 28.6993 8.65137C28.7846 8.67385 28.8745 8.67202 28.9589 8.64609L30.528 8.17306L30.7727 8.41773L29.3047 9.23004ZM28.0443 22.9862C27.9883 22.9532 27.9263 22.9317 27.862 22.9229C27.7976 22.9142 27.7321 22.9183 27.6694 22.9351C27.6066 22.9519 27.5479 22.981 27.4965 23.0208C27.4451 23.0605 27.4022 23.1101 27.3701 23.1666C27.1646 23.5418 26.9395 23.9104 26.6981 24.2628C26.6245 24.3692 26.5959 24.5005 26.6186 24.6279C26.6413 24.7553 26.7135 24.8686 26.8194 24.9431C26.9253 25.0175 27.0563 25.0471 27.1839 25.0254C27.3115 25.0037 27.4253 24.9324 27.5006 24.8271C27.7551 24.4487 27.9965 24.054 28.2183 23.656C28.2509 23.6006 28.2722 23.5393 28.2811 23.4756C28.29 23.412 28.2862 23.3472 28.2701 23.285C28.2539 23.2228 28.2256 23.1644 28.1869 23.1131C28.1482 23.0619 28.0997 23.0187 28.0443 22.9862ZM29.5918 15.8427C29.5258 15.8418 29.4604 15.8543 29.3994 15.8793C29.3384 15.9043 29.2831 15.9414 29.2368 15.9883C29.1905 16.0352 29.1542 16.091 29.1299 16.1523C29.1057 16.2136 29.0941 16.2792 29.0959 16.3451V16.4006C29.0959 16.8279 29.0763 17.2585 29.0372 17.6859C29.0254 17.8151 29.0655 17.9438 29.1485 18.0435C29.2316 18.1432 29.3509 18.2058 29.4801 18.2176L29.4808 18.2177H29.5265C29.6509 18.2188 29.771 18.1726 29.8625 18.0884C29.954 18.0041 30.01 17.8882 30.0191 17.7642C30.0615 17.3107 30.0811 16.8508 30.0811 16.394V16.3288C30.0802 16.1996 30.0283 16.0759 29.9366 15.9849C29.845 15.8938 29.721 15.8427 29.5918 15.8427ZM12.4093 30.2098C11.9852 30.1381 11.5643 30.0467 11.1565 29.9228C11.0935 29.9005 11.0266 29.8914 10.9599 29.896C10.8933 29.9006 10.8282 29.9188 10.7689 29.9494C10.7095 29.9801 10.657 30.0226 10.6147 30.0744C10.5724 30.1261 10.5411 30.186 10.5228 30.2502C10.5045 30.3145 10.4996 30.3819 10.5083 30.4481C10.517 30.5144 10.5392 30.5782 10.5735 30.6355C10.6078 30.6929 10.6535 30.7426 10.7078 30.7816C10.7621 30.8206 10.8237 30.8481 10.889 30.8624C11.3262 30.9864 11.7764 31.094 12.2266 31.1886H12.3179C12.4468 31.1991 12.5747 31.1584 12.6738 31.0752C12.7729 30.992 12.8352 30.8732 12.8472 30.7444C12.8592 30.6156 12.82 30.4872 12.738 30.3872C12.656 30.2871 12.5379 30.2234 12.4093 30.2098ZM19.9808 30.0612C19.9381 29.9453 19.8533 29.8499 19.7432 29.794C19.6331 29.7381 19.506 29.7259 19.3873 29.7597V29.7728C18.9828 29.9065 18.5652 30.0207 18.1509 30.099C18.025 30.1284 17.9158 30.2063 17.8471 30.3159C17.7784 30.4254 17.7558 30.5577 17.7842 30.6838C17.8126 30.8099 17.8897 30.9197 17.9988 30.9892C18.1078 31.0587 18.2399 31.0823 18.3662 31.0549C18.8099 30.9537 19.2568 30.8298 19.6907 30.6895C19.751 30.6673 19.8063 30.6334 19.8536 30.5898C19.9008 30.5462 19.9389 30.4938 19.9659 30.4354C19.9928 30.3771 20.008 30.314 20.0106 30.2498C20.0131 30.1856 20.003 30.1215 19.9808 30.0612ZM9.05236 29.1431C8.66415 28.9506 8.28246 28.7418 7.91382 28.533C7.85834 28.5005 7.79699 28.4792 7.73327 28.4703C7.66956 28.4615 7.60472 28.4652 7.54247 28.4815C7.48022 28.4977 7.42177 28.526 7.37046 28.5648C7.31914 28.6036 7.27598 28.6521 7.24342 28.7076C7.21086 28.763 7.18955 28.8244 7.1807 28.8881C7.17185 28.9518 7.17563 29.0167 7.19184 29.0789C7.20805 29.1412 7.23636 29.1996 7.27515 29.2509C7.31395 29.3022 7.36247 29.3454 7.41795 29.378C7.81269 29.6096 8.22047 29.8249 8.63479 30.0304C8.75211 30.0834 8.88555 30.0881 9.00632 30.0436C9.12709 29.999 9.2255 29.9087 9.28031 29.7923C9.33512 29.6758 9.34194 29.5424 9.29929 29.421C9.25665 29.2995 9.16795 29.1997 9.05236 29.1431ZM25.9653 25.9953C25.871 25.9092 25.7468 25.8634 25.6192 25.8676C25.4916 25.8718 25.3707 25.9258 25.2823 26.0179H25.2855C24.9919 26.3441 24.682 26.6312 24.3656 26.915C24.2697 27.0018 24.212 27.123 24.2051 27.2522C24.1982 27.3813 24.2427 27.508 24.3289 27.6044C24.415 27.7009 24.5358 27.7594 24.6649 27.7671C24.794 27.7749 24.921 27.7313 25.018 27.6458C25.3443 27.3424 25.6901 27.0194 25.9967 26.6867C26.0401 26.6392 26.0736 26.5837 26.0955 26.5232C26.1174 26.4628 26.1271 26.3987 26.1242 26.3345C26.1213 26.2703 26.1058 26.2073 26.0785 26.1491C26.0512 26.0909 26.0128 26.0386 25.9653 25.9953ZM23.2654 28.4361C23.2313 28.379 23.1858 28.3295 23.1319 28.2905C23.0779 28.2515 23.0166 28.224 22.9516 28.2096C22.8866 28.1951 22.8194 28.1941 22.754 28.2065C22.6886 28.219 22.6264 28.2446 22.5713 28.2819V28.2689C22.2125 28.4972 21.8373 28.7125 21.4589 28.9213C21.344 28.981 21.2574 29.0836 21.2181 29.2069C21.1787 29.3302 21.1898 29.4641 21.2489 29.5793C21.308 29.6944 21.4102 29.7815 21.5333 29.8214C21.6565 29.8613 21.7904 29.8509 21.9058 29.7924C22.3103 29.5836 22.7116 29.3519 23.0965 29.1073C23.1517 29.0743 23.1998 29.0308 23.2382 28.9792C23.2765 28.9276 23.3043 28.869 23.32 28.8067C23.3357 28.7444 23.3389 28.6796 23.3296 28.616C23.3202 28.5524 23.2984 28.4913 23.2654 28.4361Z" fill="#595959"/>
</g>
<defs>
<clipPath id="clip0_59217_1097">
<rect width="32" height="32" fill="white"/>
</clipPath>
</defs>
</svg>
