<svg width="20" height="20" viewBox="0 0 20 20" fill="none" xmlns="http://www.w3.org/2000/svg">
<path d="M3.33325 6.66602H16.6666M3.33325 6.66602V13.9995C3.33325 14.9329 3.33325 15.3994 3.51491 15.7559C3.6747 16.0695 3.92948 16.3247 4.24308 16.4845C4.59925 16.666 5.06575 16.666 5.99734 16.666H14.0025C14.9341 16.666 15.3999 16.666 15.7561 16.4845C16.0697 16.3247 16.3253 16.0695 16.4851 15.7559C16.6666 15.3997 16.6666 14.9339 16.6666 14.0023V6.66602M3.33325 6.66602V5.99951C3.33325 5.06609 3.33325 4.59903 3.51491 4.24251C3.6747 3.92891 3.92948 3.67413 4.24308 3.51434C4.5996 3.33268 5.06666 3.33268 6.00008 3.33268H6.66659M16.6666 6.66602V5.99677C16.6666 5.06518 16.6666 4.59868 16.4851 4.24251C16.3253 3.92891 16.0697 3.67413 15.7561 3.51434C15.3996 3.33268 14.9335 3.33268 14.0001 3.33268H13.3333M13.3333 1.66602V3.33268M13.3333 3.33268H6.66659M6.66659 1.66602V3.33268" stroke="#424242" stroke-width="1.66667" stroke-linecap="round" stroke-linejoin="round"/>
</svg>
