<svg width="32" height="32" viewBox="0 0 32 32" fill="none" xmlns="http://www.w3.org/2000/svg">
<path d="M9.83416 8.51419H10.7723V9.45231H9.83416V8.51419ZM11.7105 8.51419H12.6486V9.45231H11.7105V8.51419ZM26.4192 7.66869L27.3239 7.4205C27.2368 7.10305 27.1341 6.79008 27.0161 6.48275L26.1403 6.81919C26.2472 7.0976 26.3403 7.38111 26.4192 7.66869ZM15.4005 1.95312H16.3386V2.89125H15.4005V1.95312ZM14.346 17.0299L13.473 16.6866C12.8821 18.2373 10.6427 18.2674 10.0015 16.7411L9.13972 17.1119C10.102 19.4018 13.4605 19.3547 14.346 17.0299ZM20.1178 17.8766C19.7508 17.8768 19.3918 17.7693 19.0853 17.5675C18.7788 17.3656 18.5382 17.0783 18.3933 16.7411L17.5315 17.1119C18.4769 19.365 21.7591 19.3643 22.704 17.1121L21.8423 16.7412C21.6975 17.0784 21.4569 17.3657 21.1504 17.5675C20.8438 17.7693 20.4848 17.8768 20.1178 17.8766ZM23.13 15.0063L23.7728 14.3231C23.0012 13.5969 21.9925 13.197 20.9329 13.197H17.3889V14.1351H20.9329C21.7527 14.1351 22.533 14.4445 23.13 15.0063ZM14.5465 14.1351V13.197H10.961C9.90141 13.197 8.89284 13.5969 8.12109 14.3231L8.76397 15.0063C9.36103 14.4445 10.1413 14.1351 10.961 14.1351H14.5465ZM13.4027 23.1092L12.864 23.8773C14.5397 25.2411 17.3559 25.2411 19.0316 23.8773L18.4929 23.1092C17.1653 24.1427 14.6306 24.1463 13.4027 23.1092Z" fill="#5BB8AE"/>
<path d="M24.6788 23.4433C25.141 22.3327 25.4544 21.1419 25.6281 19.8075C26.8964 19.0197 27.6774 17.6143 27.6774 16.1178V10.1234C27.6602 9.412 27.6217 8.78581 27.5421 8.40581L26.6169 8.56125C26.822 9.44362 26.7141 13.1149 26.7394 14.1438H25.7616C25.7477 7.78362 21.5561 3.29269 14.9477 3.86375C13.8228 3.2315 13.811 1.62906 14.9304 0.988813H17.6533C21.1091 0.988813 24.2221 2.90775 25.7773 5.99681L26.6153 5.57494C24.9679 2.23687 21.3843 0.0163125 17.6532 0.0508125C14.012 -0.0025 10.822 -0.172062 7.85437 2.351L6.56855 0L5.1173 2.6535L2.46387 4.10475L5.20955 5.66213C4.58055 6.71288 4.30755 8.28862 4.21687 9.96387V16.1179C4.21693 17.6144 5.00155 19.0198 6.26999 19.8076C6.59762 23.1644 8.50343 26.6495 11.2496 28.7306V32H12.1877V29.3963C13.3498 30.1464 14.6093 30.686 15.9437 31.0076C17.2716 30.6879 18.5457 30.1361 19.7128 29.3834V32H20.6509V28.717C21.2279 28.2672 21.7661 27.7697 22.2596 27.2296L23.4536 29.4126L24.9048 26.7591L27.5582 25.3078L24.9048 23.8566L24.6788 23.4433ZM26.7429 15.082C26.7811 16.4279 26.7902 17.5051 25.7881 18.5193V15.082H26.7429ZM4.41893 4.10469L5.80855 3.34469L6.56855 1.95506L7.32856 3.34469L8.71818 4.10469L7.32856 4.86469L6.56855 6.25431L5.80855 4.86469L4.41893 4.10469ZM5.15505 10.0786C5.15505 8.92625 5.36493 7.81538 5.77824 6.76438L6.56862 8.2095L8.01987 5.556L10.6733 4.10475L8.58774 2.96412C10.0155 1.82714 11.7531 1.14747 13.5734 1.014C12.9529 1.89919 13.0219 3.2105 13.735 4.02313C8.73399 4.84831 6.11774 9.28919 6.08774 14.1439H5.15505V10.0786ZM5.15505 16.1178V15.082H6.08424V18.5226C5.45655 17.8914 5.15505 17.026 5.15505 16.1178ZM15.9437 30.0399C8.29005 27.9675 6.58662 21.2233 7.02362 14.3146L8.35218 12.9861C10.4859 10.8847 12.2539 12.6283 14.6644 10.5015L14.0464 9.79562C11.5421 11.8809 10.1416 9.56262 7.10268 12.9087C7.32518 10.9342 7.98474 9.16369 8.99424 7.8305C12.0071 3.53225 20.7673 3.79325 23.3223 8.45756C23.8922 9.37862 24.2506 10.3333 24.4762 11.3171C22.5946 8.69781 19.6753 6.95975 16.4128 6.59263V5.66925H15.4747C15.5148 6.96556 15.4614 8.09919 14.6316 9.16694L15.38 9.73263C15.8766 9.07563 16.2003 8.32544 16.3375 7.52806C20.0563 7.95556 23.2889 10.3304 24.8047 13.7723C24.7792 16.3904 25.0356 19.9123 24.0864 22.3601L23.4536 21.2031L22.0023 23.8566L19.3489 25.3078L21.6131 26.5462C20.0734 28.2504 18.0829 29.4801 15.9437 30.0399ZM24.2136 26.0679L23.4536 27.4575L22.6936 26.0679L21.3039 25.3079L22.6936 24.5479L23.4536 23.1583L24.2136 24.5479L25.6032 25.3079L24.2136 26.0679Z" fill="#595959"/>
<path d="M29.0826 20.6802H28.1445V21.6183H27.2063V22.5565H28.1445V23.4947H29.0826V22.5565H30.0208V21.6183H29.0826V20.6802ZM1.87625 6.65234H0.938125V7.59047H0V8.52866H0.938125V9.46678H1.87625V8.52866H2.81444V7.59047H1.87625V6.65234ZM31.0049 18.8039H31.943V19.742H31.0049V18.8039ZM31.0049 24.4308H31.943V25.3689H31.0049V24.4308Z" fill="#5BB8AE"/>
</svg>
