<svg width="24" height="28" viewBox="0 0 24 28" fill="none" xmlns="http://www.w3.org/2000/svg">
<mask id="path-1-outside-1_58903_5865" maskUnits="userSpaceOnUse" x="-0.899902" y="-0.900391" width="25" height="29" fill="black">
<rect fill="white" x="-0.899902" y="-0.900391" width="25" height="29"/>
<path fill-rule="evenodd" clip-rule="evenodd" d="M2.80505 16.3542C2.96927 16.5094 2.97689 16.7679 2.82214 16.9335L2.45426 17.3231C2.37382 17.4094 2.2654 17.4508 2.15673 17.4508C2.05625 17.4508 1.95564 17.4163 1.87673 17.3404C1.71238 17.1852 1.70489 16.9267 1.85951 16.7646L2.22751 16.3715C2.38226 16.2094 2.64089 16.199 2.80505 16.3542ZM1.01305 19.0196C0.806265 18.9299 0.711993 18.6886 0.802361 18.4817L0.992824 18.0472C1.08319 17.8403 1.32415 17.7472 1.53081 17.8369C1.73759 17.9265 1.83186 18.1679 1.74143 18.3748L1.55097 18.8092C1.48383 18.9644 1.33382 19.054 1.1765 19.054C1.12018 19.0544 1.06443 19.0427 1.01305 19.0196ZM0.907448 20.761C0.68172 20.761 0.498808 20.5782 0.498808 20.3507V19.899C0.498808 19.6748 0.68172 19.492 0.907448 19.492C1.13305 19.492 1.31596 19.6748 1.31596 19.899V20.3507C1.31602 20.5782 1.13311 20.761 0.907448 20.761ZM1.53087 22.4126C1.47769 22.4367 1.42207 22.4471 1.36748 22.4471C1.21004 22.4471 1.05996 22.3575 0.992888 22.2023L0.802425 21.7678C0.712057 21.5609 0.806329 21.3196 1.01311 21.2299C1.21977 21.1402 1.46073 21.2334 1.5511 21.4403L1.74156 21.8747C1.83186 22.0816 1.73759 22.323 1.53087 22.4126ZM2.82214 23.3195C2.97689 23.4815 2.96921 23.7402 2.80505 23.8954C2.72614 23.9712 2.6254 24.0057 2.52492 24.0057C2.41638 24.0057 2.3079 23.9643 2.22751 23.8782L1.85951 23.4885C1.70489 23.323 1.71244 23.0644 1.87673 22.9093C2.04095 22.7575 2.29958 22.7644 2.45433 22.9265L2.82214 23.3195ZM4.64972 25.1333C4.61355 25.1934 4.56241 25.2431 4.50129 25.2775C4.44016 25.312 4.37115 25.33 4.30098 25.3298C4.2256 25.3294 4.15182 25.3079 4.08806 25.2677L3.56761 24.9505C3.37529 24.8332 3.31481 24.5815 3.43263 24.3884C3.55065 24.1953 3.80223 24.1367 3.99462 24.254L4.51494 24.5712C4.70726 24.6885 4.76774 24.9402 4.64972 25.1333ZM6.96089 26.0505C6.90169 26.2195 6.74406 26.3229 6.5758 26.3229C6.52927 26.3233 6.48306 26.3151 6.43948 26.2988L5.80223 26.0746C5.75165 26.0569 5.70507 26.0293 5.66516 25.9935C5.62526 25.9577 5.59281 25.9143 5.56969 25.8659C5.54657 25.8176 5.53322 25.7651 5.53042 25.7116C5.52761 25.658 5.5354 25.6045 5.55334 25.5539C5.57111 25.5033 5.59873 25.4566 5.63461 25.4167C5.67048 25.3768 5.7139 25.3444 5.76237 25.3213C5.81083 25.2982 5.86339 25.2849 5.917 25.2823C5.97061 25.2796 6.02422 25.2875 6.07474 25.3057L6.71199 25.5298C6.92486 25.6056 7.03622 25.8401 6.96089 26.0505ZM9.59622 26.5815C9.56338 26.7815 9.39014 26.9229 9.19359 26.9229C9.17151 26.9229 9.14924 26.9229 9.1269 26.9194L8.41599 26.8022C8.19334 26.7642 8.04249 26.5539 8.07897 26.3333C8.11564 26.1091 8.32575 25.9608 8.54841 25.9953L9.25919 26.1126C9.48191 26.1505 9.63276 26.3608 9.59622 26.5815ZM12.3834 26.6712C12.388 26.8988 12.2088 27.0849 11.9834 27.0884C11.855 27.0919 11.7309 27.0918 11.607 27.0918C11.483 27.0918 11.3589 27.0919 11.2306 27.0884C11.005 27.0849 10.8258 26.8988 10.8305 26.6712C10.8353 26.447 11.0222 26.2677 11.2474 26.2712C11.4927 26.2781 11.7213 26.2781 11.9665 26.2712C12.1921 26.2677 12.3787 26.447 12.3834 26.6712ZM15.1346 26.3333C15.1713 26.5539 15.0205 26.7643 14.7978 26.8022L14.087 26.9194C14.0645 26.9229 14.0423 26.9229 14.0203 26.9229C13.8237 26.9229 13.6505 26.7815 13.6176 26.5815C13.581 26.3608 13.7318 26.1505 13.9546 26.1125L14.6654 25.9953C14.8881 25.9608 15.0982 26.1091 15.1346 26.3333ZM17.6604 25.5539C17.6783 25.6045 17.6861 25.658 17.6833 25.7116C17.6805 25.7651 17.6672 25.8176 17.644 25.8659C17.6209 25.9143 17.5885 25.9576 17.5486 25.9935C17.5087 26.0293 17.4621 26.0569 17.4115 26.0746L16.7743 26.2988C16.7307 26.3151 16.6845 26.3233 16.6379 26.3229C16.4697 26.3229 16.3121 26.2195 16.2529 26.0505C16.1775 25.8401 16.289 25.6057 16.5018 25.5298L17.1391 25.3057C17.1896 25.2875 17.2432 25.2796 17.2968 25.2822C17.3504 25.2849 17.403 25.2982 17.4514 25.3213C17.4999 25.3443 17.5433 25.3768 17.5792 25.4167C17.615 25.4566 17.6426 25.5033 17.6604 25.5539ZM19.7812 24.3884C19.899 24.5815 19.8386 24.8332 19.6462 24.9505L19.1259 25.2677C19.0621 25.3079 18.9882 25.3294 18.9128 25.3298C18.8427 25.33 18.7736 25.312 18.7125 25.2775C18.6514 25.2431 18.6003 25.1934 18.5641 25.1333C18.4462 24.9402 18.5066 24.6885 18.6989 24.5712L19.2194 24.254C19.4117 24.1367 19.6632 24.1953 19.7812 24.3884ZM21.3371 22.9092C21.5012 23.0644 21.509 23.323 21.3543 23.4885L20.9863 23.8781C20.9058 23.9643 20.7975 24.0056 20.6889 24.0056C20.5884 24.0056 20.4877 23.9711 20.4087 23.8953C20.2445 23.7402 20.2369 23.4815 20.3916 23.3194L20.7596 22.9263C20.9144 22.7644 21.1729 22.7574 21.3371 22.9092ZM22.4114 21.7678L22.2209 22.2023C22.1537 22.3575 22.0038 22.4471 21.8463 22.4471C21.79 22.4474 21.7342 22.4357 21.6828 22.4126C21.4762 22.323 21.3819 22.0816 21.4722 21.8747L21.6627 21.4403C21.7531 21.2334 21.994 21.1402 22.2007 21.2299C22.4075 21.3196 22.5018 21.5609 22.4114 21.7678ZM22.715 19.8989V20.3506C22.715 20.5782 22.5321 20.7609 22.3065 20.7609C22.0808 20.7609 21.8978 20.5782 21.8978 20.3506V19.8989C21.8978 19.6748 22.0807 19.492 22.3065 19.492C22.5321 19.492 22.715 19.6748 22.715 19.8989ZM21.4723 18.3748C21.3819 18.1679 21.4762 17.9265 21.6829 17.8369C21.8896 17.7472 22.1306 17.8403 22.221 18.0472L22.4114 18.4817C22.5018 18.6886 22.4075 18.9299 22.2008 19.0196C22.1476 19.0437 22.092 19.0541 22.0372 19.0541C21.8798 19.0541 21.7298 18.9644 21.6628 18.8093L21.4723 18.3748ZM21.3543 16.7645C21.5089 16.9265 21.5012 17.1852 21.3371 17.3404C21.2583 17.4162 21.1575 17.4507 21.0571 17.4507C20.9484 17.4507 20.8399 17.4093 20.7597 17.3231L20.3917 16.9335C20.2369 16.7679 20.2446 16.5093 20.4088 16.3541C20.573 16.199 20.8316 16.2093 20.9864 16.3713L21.3543 16.7645ZM22.2689 8.61985C22.2973 8.56997 22.3056 8.51112 22.292 8.45535C22.2784 8.39959 22.244 8.35112 22.1959 8.31988L22.1481 8.28884C22.0449 8.21991 21.9037 8.24743 21.8333 8.34746C21.3259 9.08416 20.7651 9.78258 20.1553 10.4371C19.5571 11.0784 18.8433 11.8439 17.8947 12.2266C17.7027 12.3256 17.4943 12.3887 17.2797 12.4129C17.2169 12.4267 17.1535 12.437 17.0885 12.4439C16.8814 12.475 16.6909 12.4887 16.515 12.4887C15.3946 12.4887 14.8506 11.9404 14.1346 11.2232L12.439 9.52673C12.418 9.50498 12.3929 9.48766 12.3651 9.47582C12.3374 9.46398 12.3075 9.45785 12.2773 9.4578H12.2765C12.2159 9.4578 12.1584 9.48193 12.1146 9.52673L12.0831 9.56122C12.0061 9.63706 11.9937 9.7474 12.0518 9.84052C12.1963 10.075 12.3382 10.2957 12.4753 10.5094C13.4079 11.9612 14.1446 13.1094 14.1348 15.2128C14.1274 16.8404 13.5942 19.0541 13.1237 21.0092C13.017 21.4506 12.9163 21.8713 12.826 22.2644C12.8123 22.323 12.8497 22.3851 12.9092 22.3989L12.994 22.423C13.0478 22.4368 13.0961 22.4161 13.1233 22.3678L15.513 18.0886C15.587 17.9576 15.7251 17.8817 15.8697 17.8817C15.9138 17.8817 15.9585 17.8886 16.0021 17.9023C16.1889 17.9679 16.3033 18.1541 16.2737 18.3506L15.6426 22.5091C15.6387 22.5322 15.6398 22.5558 15.6458 22.5784C15.6518 22.601 15.6626 22.6221 15.6775 22.6401C15.6949 22.6643 15.7339 22.6988 15.8004 22.7057L15.8969 22.7126C15.9754 22.716 16.0379 22.6781 16.0678 22.6057C17.097 20.0851 17.9734 17.461 18.7471 14.5783C18.8586 14.1646 19.0173 13.8197 19.2616 13.468C20.318 11.937 21.3298 10.3061 22.2689 8.61985ZM11.162 9.84052C11.2201 9.7474 11.2077 9.63706 11.1307 9.56122L11.0993 9.52673C11.0783 9.50495 11.0532 9.48762 11.0253 9.47577C10.9975 9.46393 10.9675 9.45782 10.9373 9.4578H10.9364C10.8761 9.4578 10.8187 9.48193 10.7748 9.52673L9.07916 11.2232C8.25081 12.0543 7.65235 12.6542 6.12518 12.4439C6.06095 12.4371 5.99715 12.4267 5.93407 12.4129C5.71506 12.3887 5.5079 12.3232 5.31916 12.2266C4.37062 11.8439 3.65676 11.0784 3.05862 10.4371C2.44882 9.78258 1.88795 9.08417 1.38054 8.34746C1.35897 8.31751 1.33058 8.29313 1.29771 8.27633C1.26485 8.25954 1.22845 8.25082 1.19154 8.25089C1.14802 8.25089 1.10425 8.26126 1.06559 8.28884L1.01804 8.31988C0.969868 8.3511 0.935456 8.39956 0.921855 8.45533C0.908255 8.5111 0.916495 8.56996 0.944888 8.61985C1.88383 10.306 2.89567 11.937 3.95238 13.468C4.19673 13.8197 4.35538 14.1645 4.46694 14.5783C5.2405 17.461 6.11679 20.0851 7.14617 22.6057C7.17593 22.6781 7.23833 22.716 7.31724 22.7126L7.41343 22.7057C7.48012 22.6988 7.51916 22.6643 7.53644 22.6401C7.55136 22.6221 7.56221 22.6011 7.56825 22.5785C7.57429 22.5558 7.57538 22.5322 7.57145 22.5091L6.94041 18.3506C6.91078 18.1541 7.02502 17.9679 7.21183 17.9023C7.39878 17.8403 7.6046 17.9162 7.70105 18.0885L10.0908 22.3678C10.118 22.416 10.1663 22.4367 10.22 22.4229L10.3048 22.3988C10.3643 22.385 10.4017 22.323 10.3878 22.2643C10.2978 21.8712 10.1969 21.4506 10.0902 21.0092C9.61977 19.054 9.08652 16.8403 9.0791 15.2127C9.06943 13.1094 9.80607 11.9611 10.7387 10.5094C10.8757 10.2957 11.0175 10.075 11.162 9.84052ZM1.70028 7.43022C2.43775 7.49921 3.06444 7.46817 3.61644 7.34401C5.18527 6.98542 5.55564 6.13025 6.0245 5.0475C6.09714 4.88199 6.17228 4.70612 6.25593 4.52679L7.24582 2.38202C7.3512 2.59057 7.45529 2.79977 7.55807 3.00961C6.99142 5.15438 6.60364 6.91988 6.45561 8.7819C6.35468 8.76122 6.25113 8.75431 6.1454 8.75431C5.14489 8.75431 4.32946 9.55777 4.31046 10.5542C4.08095 10.3336 3.86438 10.1025 3.65625 9.87841C3.0757 9.25428 2.53638 8.58535 2.05324 7.88532C1.9302 7.70573 1.75278 7.57037 1.54706 7.49914C1.55126 7.49107 1.55718 7.48401 1.56441 7.47847C1.582 7.46077 1.60334 7.44725 1.62686 7.4389C1.65037 7.43054 1.67547 7.42758 1.70028 7.43022ZM3.77958 4.30273C3.21791 4.30273 2.76089 4.76135 2.76089 5.3234C2.76089 5.88199 3.21791 6.34062 3.77958 6.34062C3.99026 6.34062 4.1861 6.27508 4.34854 6.1682C4.34879 6.16474 4.34905 6.16474 4.3493 6.16474C4.35538 6.16129 4.36102 6.15783 4.36722 6.15438C4.39807 6.13025 4.4277 6.10612 4.45638 6.08193C4.66566 5.89575 4.79839 5.6233 4.79839 5.32334C4.79839 4.76135 4.34137 4.30273 3.77958 4.30273ZM7.24998 9.12334C7.35705 7.49236 7.65798 5.94753 8.10841 4.14759C8.63724 5.2786 9.10188 6.41652 9.29331 7.39924C9.41868 8.04058 9.50393 8.76129 9.55449 9.59233L8.50035 10.6474C8.25644 10.8922 8.05382 11.0922 7.85638 11.2543C7.9389 11.0422 7.98124 10.8165 7.98124 10.5889C7.98124 9.99226 7.69369 9.4578 7.24998 9.12334ZM5.65753 11.4819C5.34137 11.3094 5.12652 10.975 5.12652 10.5888C5.12652 10.0268 5.58367 9.57159 6.14534 9.57159C6.707 9.57159 7.16402 10.0268 7.16402 10.5888C7.16402 11.1509 6.707 11.6095 6.14534 11.6095C6.11474 11.6095 6.08473 11.606 6.05484 11.6026C5.91896 11.5747 5.78595 11.5343 5.65753 11.4819ZM7.55519 1.03386C7.56458 1.01085 7.579 0.990238 7.5974 0.973527C7.61579 0.956815 7.63769 0.944433 7.6615 0.937288L7.6965 0.92692C7.7767 0.899336 7.85817 0.930376 7.89907 1.00622C8.52191 2.1234 9.2455 3.02343 10.0493 3.67514C10.9663 4.42337 12.2474 4.42337 13.1644 3.67514C13.9684 3.02343 14.6918 2.12346 15.3147 1.00622C15.3486 0.944136 15.4033 0.916552 15.4777 0.920008C15.5398 0.923464 15.6242 0.954504 15.6576 1.0338C15.6794 1.08551 15.6783 1.12692 15.6538 1.17518C15.5214 1.44756 15.3819 1.72686 15.2387 2.01306C14.3921 3.70958 13.4327 5.63022 13.1183 7.24398C13.0226 7.73364 12.9491 8.26119 12.8957 8.84737C12.7176 8.71277 12.5004 8.6401 12.2772 8.64046H12.2738C12.03 8.64326 11.7946 8.72967 11.6068 8.88525C11.419 8.72968 11.1836 8.64327 10.9397 8.64046C10.7154 8.63987 10.4971 8.71252 10.3178 8.84737C10.2644 8.26119 10.1909 7.73358 10.0953 7.24398C9.78092 5.63022 8.82143 3.70958 7.9749 2.01306C7.83492 1.73456 7.69653 1.45526 7.55974 1.17518C7.52921 1.11316 7.5438 1.05799 7.55519 1.03386ZM11.607 1.38209C11.0452 1.38209 10.5882 1.83726 10.5882 2.3993C10.5882 2.92686 10.9893 3.36135 11.5018 3.41306C11.5718 3.41652 11.642 3.41652 11.7121 3.41306C12.2246 3.36135 12.6257 2.92686 12.6257 2.3993C12.6257 1.83726 12.1687 1.38209 11.607 1.38209ZM15.1053 4.14759C15.5558 5.94753 15.8568 7.4923 15.964 9.12334C15.52 9.4578 15.2326 9.99226 15.2326 10.5888C15.2326 10.8233 15.2772 11.0474 15.3573 11.2543C15.16 11.0922 14.9574 10.8922 14.7135 10.6474L13.6593 9.59226C13.7099 8.76122 13.7952 8.04058 13.9204 7.39918C14.1119 6.41646 14.5766 5.27854 15.1053 4.14759ZM17.159 11.6026C17.129 11.6066 17.0987 11.6089 17.0685 11.6095C16.5068 11.6095 16.0498 11.1509 16.0498 10.5888C16.0498 10.0268 16.5068 9.57159 17.0685 9.57159C17.6303 9.57159 18.0872 10.0268 18.0872 10.5888C18.0872 10.975 17.8724 11.3094 17.5565 11.4819C17.428 11.5343 17.2949 11.5747 17.159 11.6026ZM17.1898 5.05102C17.4566 5.66823 17.7021 6.23374 18.1891 6.66823C18.26 6.73377 18.3359 6.79585 18.4165 6.84756C18.717 7.05793 19.097 7.22689 19.5974 7.34407C20.1494 7.46823 20.7761 7.49927 21.5135 7.43028C21.5383 7.42767 21.5634 7.43066 21.5869 7.43901C21.6104 7.44736 21.6318 7.46086 21.6494 7.47854C21.6566 7.48409 21.6625 7.49114 21.6667 7.49921C21.461 7.57044 21.2836 7.7058 21.1606 7.88538C20.6774 8.58535 20.1381 9.25434 19.5576 9.87847C19.3493 10.1026 19.1329 10.3336 18.9034 10.5543C18.8843 9.55777 18.0688 8.75438 17.0684 8.75438C16.9627 8.75438 16.8591 8.76129 16.7582 8.78196C16.6102 6.91994 16.2224 5.1579 15.6557 3.00967C15.7585 2.79985 15.8626 2.59065 15.9679 2.38209L16.9578 4.52686C17.0418 4.70618 17.1171 4.88206 17.1898 5.05102ZM19.4342 4.30273C18.8724 4.30273 18.4154 4.76135 18.4154 5.3234C18.4154 5.63374 18.557 5.91303 18.7788 6.09927C18.7824 6.10473 18.7871 6.10943 18.7926 6.1131C18.9679 6.25447 19.1912 6.34068 19.4343 6.34068C19.996 6.34068 20.453 5.88206 20.453 5.32346C20.4529 4.76135 19.9959 4.30273 19.4342 4.30273ZM22.6483 7.64058L22.6006 7.60609C22.5736 7.58851 22.5457 7.5724 22.517 7.55783C22.5066 7.306 22.3999 7.06777 22.2189 6.89236C22.117 6.79215 21.9944 6.71551 21.8597 6.66785C21.7249 6.62019 21.5814 6.60267 21.4392 6.61652C21.1764 6.64065 20.9319 6.65102 20.7021 6.64756C21.0516 6.3131 21.2699 5.84417 21.2699 5.32346C21.2699 4.3097 20.4464 3.48558 19.4342 3.48558C18.7376 3.48558 18.1304 3.87521 17.8194 4.44762C17.7814 4.36142 17.7419 4.27521 17.6998 4.18215L16.4308 1.43393C16.5159 1.19943 16.5092 0.94772 16.4097 0.713288C16.2609 0.365 15.9121 0.123656 15.5209 0.102984C15.1381 0.0823116 14.7855 0.2754 14.6008 0.609864C14.2447 1.24775 13.8557 1.80641 13.4384 2.27879C13.3761 1.32366 12.5787 0.565064 11.607 0.565064C10.635 0.565064 9.83762 1.32366 9.77535 2.27879C9.35807 1.80641 8.96908 1.24775 8.61298 0.609864C8.38073 0.192648 7.90137 0.00295161 7.44716 0.147784L7.41215 0.158152C7.13753 0.247816 6.9157 0.447816 6.80319 0.713288C6.70596 0.942398 6.6988 1.19977 6.78316 1.43393L5.51404 4.18215C5.47193 4.27527 5.43244 4.36148 5.3943 4.44762C5.08326 3.87521 4.47622 3.48558 3.77958 3.48558C2.76735 3.48558 1.9438 4.3097 1.9438 5.32346C1.9438 5.84417 2.16217 6.3131 2.51167 6.64756C2.28185 6.65102 2.03737 6.64065 1.77458 6.61652C1.63234 6.60265 1.48879 6.62017 1.35406 6.66783C1.21932 6.71549 1.09669 6.79214 0.994808 6.89236C0.813844 7.06779 0.707151 7.30601 0.69676 7.55783C0.667986 7.5724 0.64002 7.58851 0.612985 7.60609L0.565432 7.64058C0.113912 7.94055 -0.0329036 8.54401 0.231096 9.01985C1.18271 10.7267 2.20838 12.3784 3.27974 13.9301C3.47116 14.2094 3.5902 14.4645 3.67769 14.7921C4.46028 17.7059 5.34732 20.361 6.3895 22.916C6.46393 23.0975 6.59065 23.2528 6.75354 23.3621C6.91644 23.4714 7.10815 23.5297 7.30431 23.5298C7.32748 23.5298 7.3509 23.5298 7.37439 23.5263L7.47058 23.5194C7.60683 23.5106 7.73975 23.4736 7.86091 23.4107C7.98208 23.3477 8.08883 23.2603 8.17439 23.1539C8.25931 23.0466 8.3213 22.9229 8.35651 22.7907C8.39173 22.6584 8.39943 22.5203 8.37913 22.385L8.0862 20.454L9.3774 22.7642C9.58751 23.1401 10.0086 23.3228 10.4253 23.2125L10.5101 23.1918C10.7454 23.1317 10.9477 22.9818 11.0738 22.7742C11.1998 22.5666 11.2395 22.318 11.1843 22.0815C11.0931 21.6815 10.9919 21.2608 10.8846 20.816C10.4245 18.9057 9.9031 16.7402 9.89606 15.2093C9.88761 13.3473 10.5329 12.3404 11.4264 10.9508C11.4856 10.8577 11.546 10.7646 11.607 10.668C11.6679 10.7646 11.7282 10.8577 11.7876 10.9508C12.6808 12.3404 13.3264 13.3473 13.3178 15.2093C13.3106 16.7403 12.7894 18.9057 12.3292 20.816C12.222 21.2608 12.1207 21.6815 12.0295 22.0815C11.9744 22.3179 12.0141 22.5666 12.1401 22.7741C12.2661 22.9817 12.4684 23.1316 12.7036 23.1918L12.7885 23.2125C13.2054 23.3228 13.6264 23.14 13.8364 22.7642L15.1276 20.454L14.8347 22.385C14.8144 22.5203 14.8221 22.6584 14.8573 22.7907C14.8925 22.9229 14.9545 23.0466 15.0394 23.1539C15.125 23.2603 15.2317 23.3477 15.3528 23.4106C15.4739 23.4735 15.6068 23.5106 15.743 23.5194L15.8395 23.5263C15.863 23.5298 15.8863 23.5298 15.9095 23.5298C16.1056 23.5297 16.2973 23.4713 16.4602 23.3621C16.6231 23.2528 16.7498 23.0975 16.8242 22.916C17.8664 20.361 18.7535 17.7058 19.536 14.7921C19.6234 14.4646 19.7425 14.2094 19.9339 13.9301C21.0051 12.3784 22.0308 10.7267 22.9826 9.01985C23.2466 8.54401 23.0998 7.94055 22.6483 7.64058Z"/>
</mask>
<path fill-rule="evenodd" clip-rule="evenodd" d="M2.80505 16.3542C2.96927 16.5094 2.97689 16.7679 2.82214 16.9335L2.45426 17.3231C2.37382 17.4094 2.2654 17.4508 2.15673 17.4508C2.05625 17.4508 1.95564 17.4163 1.87673 17.3404C1.71238 17.1852 1.70489 16.9267 1.85951 16.7646L2.22751 16.3715C2.38226 16.2094 2.64089 16.199 2.80505 16.3542ZM1.01305 19.0196C0.806265 18.9299 0.711993 18.6886 0.802361 18.4817L0.992824 18.0472C1.08319 17.8403 1.32415 17.7472 1.53081 17.8369C1.73759 17.9265 1.83186 18.1679 1.74143 18.3748L1.55097 18.8092C1.48383 18.9644 1.33382 19.054 1.1765 19.054C1.12018 19.0544 1.06443 19.0427 1.01305 19.0196ZM0.907448 20.761C0.68172 20.761 0.498808 20.5782 0.498808 20.3507V19.899C0.498808 19.6748 0.68172 19.492 0.907448 19.492C1.13305 19.492 1.31596 19.6748 1.31596 19.899V20.3507C1.31602 20.5782 1.13311 20.761 0.907448 20.761ZM1.53087 22.4126C1.47769 22.4367 1.42207 22.4471 1.36748 22.4471C1.21004 22.4471 1.05996 22.3575 0.992888 22.2023L0.802425 21.7678C0.712057 21.5609 0.806329 21.3196 1.01311 21.2299C1.21977 21.1402 1.46073 21.2334 1.5511 21.4403L1.74156 21.8747C1.83186 22.0816 1.73759 22.323 1.53087 22.4126ZM2.82214 23.3195C2.97689 23.4815 2.96921 23.7402 2.80505 23.8954C2.72614 23.9712 2.6254 24.0057 2.52492 24.0057C2.41638 24.0057 2.3079 23.9643 2.22751 23.8782L1.85951 23.4885C1.70489 23.323 1.71244 23.0644 1.87673 22.9093C2.04095 22.7575 2.29958 22.7644 2.45433 22.9265L2.82214 23.3195ZM4.64972 25.1333C4.61355 25.1934 4.56241 25.2431 4.50129 25.2775C4.44016 25.312 4.37115 25.33 4.30098 25.3298C4.2256 25.3294 4.15182 25.3079 4.08806 25.2677L3.56761 24.9505C3.37529 24.8332 3.31481 24.5815 3.43263 24.3884C3.55065 24.1953 3.80223 24.1367 3.99462 24.254L4.51494 24.5712C4.70726 24.6885 4.76774 24.9402 4.64972 25.1333ZM6.96089 26.0505C6.90169 26.2195 6.74406 26.3229 6.5758 26.3229C6.52927 26.3233 6.48306 26.3151 6.43948 26.2988L5.80223 26.0746C5.75165 26.0569 5.70507 26.0293 5.66516 25.9935C5.62526 25.9577 5.59281 25.9143 5.56969 25.8659C5.54657 25.8176 5.53322 25.7651 5.53042 25.7116C5.52761 25.658 5.5354 25.6045 5.55334 25.5539C5.57111 25.5033 5.59873 25.4566 5.63461 25.4167C5.67048 25.3768 5.7139 25.3444 5.76237 25.3213C5.81083 25.2982 5.86339 25.2849 5.917 25.2823C5.97061 25.2796 6.02422 25.2875 6.07474 25.3057L6.71199 25.5298C6.92486 25.6056 7.03622 25.8401 6.96089 26.0505ZM9.59622 26.5815C9.56338 26.7815 9.39014 26.9229 9.19359 26.9229C9.17151 26.9229 9.14924 26.9229 9.1269 26.9194L8.41599 26.8022C8.19334 26.7642 8.04249 26.5539 8.07897 26.3333C8.11564 26.1091 8.32575 25.9608 8.54841 25.9953L9.25919 26.1126C9.48191 26.1505 9.63276 26.3608 9.59622 26.5815ZM12.3834 26.6712C12.388 26.8988 12.2088 27.0849 11.9834 27.0884C11.855 27.0919 11.7309 27.0918 11.607 27.0918C11.483 27.0918 11.3589 27.0919 11.2306 27.0884C11.005 27.0849 10.8258 26.8988 10.8305 26.6712C10.8353 26.447 11.0222 26.2677 11.2474 26.2712C11.4927 26.2781 11.7213 26.2781 11.9665 26.2712C12.1921 26.2677 12.3787 26.447 12.3834 26.6712ZM15.1346 26.3333C15.1713 26.5539 15.0205 26.7643 14.7978 26.8022L14.087 26.9194C14.0645 26.9229 14.0423 26.9229 14.0203 26.9229C13.8237 26.9229 13.6505 26.7815 13.6176 26.5815C13.581 26.3608 13.7318 26.1505 13.9546 26.1125L14.6654 25.9953C14.8881 25.9608 15.0982 26.1091 15.1346 26.3333ZM17.6604 25.5539C17.6783 25.6045 17.6861 25.658 17.6833 25.7116C17.6805 25.7651 17.6672 25.8176 17.644 25.8659C17.6209 25.9143 17.5885 25.9576 17.5486 25.9935C17.5087 26.0293 17.4621 26.0569 17.4115 26.0746L16.7743 26.2988C16.7307 26.3151 16.6845 26.3233 16.6379 26.3229C16.4697 26.3229 16.3121 26.2195 16.2529 26.0505C16.1775 25.8401 16.289 25.6057 16.5018 25.5298L17.1391 25.3057C17.1896 25.2875 17.2432 25.2796 17.2968 25.2822C17.3504 25.2849 17.403 25.2982 17.4514 25.3213C17.4999 25.3443 17.5433 25.3768 17.5792 25.4167C17.615 25.4566 17.6426 25.5033 17.6604 25.5539ZM19.7812 24.3884C19.899 24.5815 19.8386 24.8332 19.6462 24.9505L19.1259 25.2677C19.0621 25.3079 18.9882 25.3294 18.9128 25.3298C18.8427 25.33 18.7736 25.312 18.7125 25.2775C18.6514 25.2431 18.6003 25.1934 18.5641 25.1333C18.4462 24.9402 18.5066 24.6885 18.6989 24.5712L19.2194 24.254C19.4117 24.1367 19.6632 24.1953 19.7812 24.3884ZM21.3371 22.9092C21.5012 23.0644 21.509 23.323 21.3543 23.4885L20.9863 23.8781C20.9058 23.9643 20.7975 24.0056 20.6889 24.0056C20.5884 24.0056 20.4877 23.9711 20.4087 23.8953C20.2445 23.7402 20.2369 23.4815 20.3916 23.3194L20.7596 22.9263C20.9144 22.7644 21.1729 22.7574 21.3371 22.9092ZM22.4114 21.7678L22.2209 22.2023C22.1537 22.3575 22.0038 22.4471 21.8463 22.4471C21.79 22.4474 21.7342 22.4357 21.6828 22.4126C21.4762 22.323 21.3819 22.0816 21.4722 21.8747L21.6627 21.4403C21.7531 21.2334 21.994 21.1402 22.2007 21.2299C22.4075 21.3196 22.5018 21.5609 22.4114 21.7678ZM22.715 19.8989V20.3506C22.715 20.5782 22.5321 20.7609 22.3065 20.7609C22.0808 20.7609 21.8978 20.5782 21.8978 20.3506V19.8989C21.8978 19.6748 22.0807 19.492 22.3065 19.492C22.5321 19.492 22.715 19.6748 22.715 19.8989ZM21.4723 18.3748C21.3819 18.1679 21.4762 17.9265 21.6829 17.8369C21.8896 17.7472 22.1306 17.8403 22.221 18.0472L22.4114 18.4817C22.5018 18.6886 22.4075 18.9299 22.2008 19.0196C22.1476 19.0437 22.092 19.0541 22.0372 19.0541C21.8798 19.0541 21.7298 18.9644 21.6628 18.8093L21.4723 18.3748ZM21.3543 16.7645C21.5089 16.9265 21.5012 17.1852 21.3371 17.3404C21.2583 17.4162 21.1575 17.4507 21.0571 17.4507C20.9484 17.4507 20.8399 17.4093 20.7597 17.3231L20.3917 16.9335C20.2369 16.7679 20.2446 16.5093 20.4088 16.3541C20.573 16.199 20.8316 16.2093 20.9864 16.3713L21.3543 16.7645ZM22.2689 8.61985C22.2973 8.56997 22.3056 8.51112 22.292 8.45535C22.2784 8.39959 22.244 8.35112 22.1959 8.31988L22.1481 8.28884C22.0449 8.21991 21.9037 8.24743 21.8333 8.34746C21.3259 9.08416 20.7651 9.78258 20.1553 10.4371C19.5571 11.0784 18.8433 11.8439 17.8947 12.2266C17.7027 12.3256 17.4943 12.3887 17.2797 12.4129C17.2169 12.4267 17.1535 12.437 17.0885 12.4439C16.8814 12.475 16.6909 12.4887 16.515 12.4887C15.3946 12.4887 14.8506 11.9404 14.1346 11.2232L12.439 9.52673C12.418 9.50498 12.3929 9.48766 12.3651 9.47582C12.3374 9.46398 12.3075 9.45785 12.2773 9.4578H12.2765C12.2159 9.4578 12.1584 9.48193 12.1146 9.52673L12.0831 9.56122C12.0061 9.63706 11.9937 9.7474 12.0518 9.84052C12.1963 10.075 12.3382 10.2957 12.4753 10.5094C13.4079 11.9612 14.1446 13.1094 14.1348 15.2128C14.1274 16.8404 13.5942 19.0541 13.1237 21.0092C13.017 21.4506 12.9163 21.8713 12.826 22.2644C12.8123 22.323 12.8497 22.3851 12.9092 22.3989L12.994 22.423C13.0478 22.4368 13.0961 22.4161 13.1233 22.3678L15.513 18.0886C15.587 17.9576 15.7251 17.8817 15.8697 17.8817C15.9138 17.8817 15.9585 17.8886 16.0021 17.9023C16.1889 17.9679 16.3033 18.1541 16.2737 18.3506L15.6426 22.5091C15.6387 22.5322 15.6398 22.5558 15.6458 22.5784C15.6518 22.601 15.6626 22.6221 15.6775 22.6401C15.6949 22.6643 15.7339 22.6988 15.8004 22.7057L15.8969 22.7126C15.9754 22.716 16.0379 22.6781 16.0678 22.6057C17.097 20.0851 17.9734 17.461 18.7471 14.5783C18.8586 14.1646 19.0173 13.8197 19.2616 13.468C20.318 11.937 21.3298 10.3061 22.2689 8.61985ZM11.162 9.84052C11.2201 9.7474 11.2077 9.63706 11.1307 9.56122L11.0993 9.52673C11.0783 9.50495 11.0532 9.48762 11.0253 9.47577C10.9975 9.46393 10.9675 9.45782 10.9373 9.4578H10.9364C10.8761 9.4578 10.8187 9.48193 10.7748 9.52673L9.07916 11.2232C8.25081 12.0543 7.65235 12.6542 6.12518 12.4439C6.06095 12.4371 5.99715 12.4267 5.93407 12.4129C5.71506 12.3887 5.5079 12.3232 5.31916 12.2266C4.37062 11.8439 3.65676 11.0784 3.05862 10.4371C2.44882 9.78258 1.88795 9.08417 1.38054 8.34746C1.35897 8.31751 1.33058 8.29313 1.29771 8.27633C1.26485 8.25954 1.22845 8.25082 1.19154 8.25089C1.14802 8.25089 1.10425 8.26126 1.06559 8.28884L1.01804 8.31988C0.969868 8.3511 0.935456 8.39956 0.921855 8.45533C0.908255 8.5111 0.916495 8.56996 0.944888 8.61985C1.88383 10.306 2.89567 11.937 3.95238 13.468C4.19673 13.8197 4.35538 14.1645 4.46694 14.5783C5.2405 17.461 6.11679 20.0851 7.14617 22.6057C7.17593 22.6781 7.23833 22.716 7.31724 22.7126L7.41343 22.7057C7.48012 22.6988 7.51916 22.6643 7.53644 22.6401C7.55136 22.6221 7.56221 22.6011 7.56825 22.5785C7.57429 22.5558 7.57538 22.5322 7.57145 22.5091L6.94041 18.3506C6.91078 18.1541 7.02502 17.9679 7.21183 17.9023C7.39878 17.8403 7.6046 17.9162 7.70105 18.0885L10.0908 22.3678C10.118 22.416 10.1663 22.4367 10.22 22.4229L10.3048 22.3988C10.3643 22.385 10.4017 22.323 10.3878 22.2643C10.2978 21.8712 10.1969 21.4506 10.0902 21.0092C9.61977 19.054 9.08652 16.8403 9.0791 15.2127C9.06943 13.1094 9.80607 11.9611 10.7387 10.5094C10.8757 10.2957 11.0175 10.075 11.162 9.84052ZM1.70028 7.43022C2.43775 7.49921 3.06444 7.46817 3.61644 7.34401C5.18527 6.98542 5.55564 6.13025 6.0245 5.0475C6.09714 4.88199 6.17228 4.70612 6.25593 4.52679L7.24582 2.38202C7.3512 2.59057 7.45529 2.79977 7.55807 3.00961C6.99142 5.15438 6.60364 6.91988 6.45561 8.7819C6.35468 8.76122 6.25113 8.75431 6.1454 8.75431C5.14489 8.75431 4.32946 9.55777 4.31046 10.5542C4.08095 10.3336 3.86438 10.1025 3.65625 9.87841C3.0757 9.25428 2.53638 8.58535 2.05324 7.88532C1.9302 7.70573 1.75278 7.57037 1.54706 7.49914C1.55126 7.49107 1.55718 7.48401 1.56441 7.47847C1.582 7.46077 1.60334 7.44725 1.62686 7.4389C1.65037 7.43054 1.67547 7.42758 1.70028 7.43022ZM3.77958 4.30273C3.21791 4.30273 2.76089 4.76135 2.76089 5.3234C2.76089 5.88199 3.21791 6.34062 3.77958 6.34062C3.99026 6.34062 4.1861 6.27508 4.34854 6.1682C4.34879 6.16474 4.34905 6.16474 4.3493 6.16474C4.35538 6.16129 4.36102 6.15783 4.36722 6.15438C4.39807 6.13025 4.4277 6.10612 4.45638 6.08193C4.66566 5.89575 4.79839 5.6233 4.79839 5.32334C4.79839 4.76135 4.34137 4.30273 3.77958 4.30273ZM7.24998 9.12334C7.35705 7.49236 7.65798 5.94753 8.10841 4.14759C8.63724 5.2786 9.10188 6.41652 9.29331 7.39924C9.41868 8.04058 9.50393 8.76129 9.55449 9.59233L8.50035 10.6474C8.25644 10.8922 8.05382 11.0922 7.85638 11.2543C7.9389 11.0422 7.98124 10.8165 7.98124 10.5889C7.98124 9.99226 7.69369 9.4578 7.24998 9.12334ZM5.65753 11.4819C5.34137 11.3094 5.12652 10.975 5.12652 10.5888C5.12652 10.0268 5.58367 9.57159 6.14534 9.57159C6.707 9.57159 7.16402 10.0268 7.16402 10.5888C7.16402 11.1509 6.707 11.6095 6.14534 11.6095C6.11474 11.6095 6.08473 11.606 6.05484 11.6026C5.91896 11.5747 5.78595 11.5343 5.65753 11.4819ZM7.55519 1.03386C7.56458 1.01085 7.579 0.990238 7.5974 0.973527C7.61579 0.956815 7.63769 0.944433 7.6615 0.937288L7.6965 0.92692C7.7767 0.899336 7.85817 0.930376 7.89907 1.00622C8.52191 2.1234 9.2455 3.02343 10.0493 3.67514C10.9663 4.42337 12.2474 4.42337 13.1644 3.67514C13.9684 3.02343 14.6918 2.12346 15.3147 1.00622C15.3486 0.944136 15.4033 0.916552 15.4777 0.920008C15.5398 0.923464 15.6242 0.954504 15.6576 1.0338C15.6794 1.08551 15.6783 1.12692 15.6538 1.17518C15.5214 1.44756 15.3819 1.72686 15.2387 2.01306C14.3921 3.70958 13.4327 5.63022 13.1183 7.24398C13.0226 7.73364 12.9491 8.26119 12.8957 8.84737C12.7176 8.71277 12.5004 8.6401 12.2772 8.64046H12.2738C12.03 8.64326 11.7946 8.72967 11.6068 8.88525C11.419 8.72968 11.1836 8.64327 10.9397 8.64046C10.7154 8.63987 10.4971 8.71252 10.3178 8.84737C10.2644 8.26119 10.1909 7.73358 10.0953 7.24398C9.78092 5.63022 8.82143 3.70958 7.9749 2.01306C7.83492 1.73456 7.69653 1.45526 7.55974 1.17518C7.52921 1.11316 7.5438 1.05799 7.55519 1.03386ZM11.607 1.38209C11.0452 1.38209 10.5882 1.83726 10.5882 2.3993C10.5882 2.92686 10.9893 3.36135 11.5018 3.41306C11.5718 3.41652 11.642 3.41652 11.7121 3.41306C12.2246 3.36135 12.6257 2.92686 12.6257 2.3993C12.6257 1.83726 12.1687 1.38209 11.607 1.38209ZM15.1053 4.14759C15.5558 5.94753 15.8568 7.4923 15.964 9.12334C15.52 9.4578 15.2326 9.99226 15.2326 10.5888C15.2326 10.8233 15.2772 11.0474 15.3573 11.2543C15.16 11.0922 14.9574 10.8922 14.7135 10.6474L13.6593 9.59226C13.7099 8.76122 13.7952 8.04058 13.9204 7.39918C14.1119 6.41646 14.5766 5.27854 15.1053 4.14759ZM17.159 11.6026C17.129 11.6066 17.0987 11.6089 17.0685 11.6095C16.5068 11.6095 16.0498 11.1509 16.0498 10.5888C16.0498 10.0268 16.5068 9.57159 17.0685 9.57159C17.6303 9.57159 18.0872 10.0268 18.0872 10.5888C18.0872 10.975 17.8724 11.3094 17.5565 11.4819C17.428 11.5343 17.2949 11.5747 17.159 11.6026ZM17.1898 5.05102C17.4566 5.66823 17.7021 6.23374 18.1891 6.66823C18.26 6.73377 18.3359 6.79585 18.4165 6.84756C18.717 7.05793 19.097 7.22689 19.5974 7.34407C20.1494 7.46823 20.7761 7.49927 21.5135 7.43028C21.5383 7.42767 21.5634 7.43066 21.5869 7.43901C21.6104 7.44736 21.6318 7.46086 21.6494 7.47854C21.6566 7.48409 21.6625 7.49114 21.6667 7.49921C21.461 7.57044 21.2836 7.7058 21.1606 7.88538C20.6774 8.58535 20.1381 9.25434 19.5576 9.87847C19.3493 10.1026 19.1329 10.3336 18.9034 10.5543C18.8843 9.55777 18.0688 8.75438 17.0684 8.75438C16.9627 8.75438 16.8591 8.76129 16.7582 8.78196C16.6102 6.91994 16.2224 5.1579 15.6557 3.00967C15.7585 2.79985 15.8626 2.59065 15.9679 2.38209L16.9578 4.52686C17.0418 4.70618 17.1171 4.88206 17.1898 5.05102ZM19.4342 4.30273C18.8724 4.30273 18.4154 4.76135 18.4154 5.3234C18.4154 5.63374 18.557 5.91303 18.7788 6.09927C18.7824 6.10473 18.7871 6.10943 18.7926 6.1131C18.9679 6.25447 19.1912 6.34068 19.4343 6.34068C19.996 6.34068 20.453 5.88206 20.453 5.32346C20.4529 4.76135 19.9959 4.30273 19.4342 4.30273ZM22.6483 7.64058L22.6006 7.60609C22.5736 7.58851 22.5457 7.5724 22.517 7.55783C22.5066 7.306 22.3999 7.06777 22.2189 6.89236C22.117 6.79215 21.9944 6.71551 21.8597 6.66785C21.7249 6.62019 21.5814 6.60267 21.4392 6.61652C21.1764 6.64065 20.9319 6.65102 20.7021 6.64756C21.0516 6.3131 21.2699 5.84417 21.2699 5.32346C21.2699 4.3097 20.4464 3.48558 19.4342 3.48558C18.7376 3.48558 18.1304 3.87521 17.8194 4.44762C17.7814 4.36142 17.7419 4.27521 17.6998 4.18215L16.4308 1.43393C16.5159 1.19943 16.5092 0.94772 16.4097 0.713288C16.2609 0.365 15.9121 0.123656 15.5209 0.102984C15.1381 0.0823116 14.7855 0.2754 14.6008 0.609864C14.2447 1.24775 13.8557 1.80641 13.4384 2.27879C13.3761 1.32366 12.5787 0.565064 11.607 0.565064C10.635 0.565064 9.83762 1.32366 9.77535 2.27879C9.35807 1.80641 8.96908 1.24775 8.61298 0.609864C8.38073 0.192648 7.90137 0.00295161 7.44716 0.147784L7.41215 0.158152C7.13753 0.247816 6.9157 0.447816 6.80319 0.713288C6.70596 0.942398 6.6988 1.19977 6.78316 1.43393L5.51404 4.18215C5.47193 4.27527 5.43244 4.36148 5.3943 4.44762C5.08326 3.87521 4.47622 3.48558 3.77958 3.48558C2.76735 3.48558 1.9438 4.3097 1.9438 5.32346C1.9438 5.84417 2.16217 6.3131 2.51167 6.64756C2.28185 6.65102 2.03737 6.64065 1.77458 6.61652C1.63234 6.60265 1.48879 6.62017 1.35406 6.66783C1.21932 6.71549 1.09669 6.79214 0.994808 6.89236C0.813844 7.06779 0.707151 7.30601 0.69676 7.55783C0.667986 7.5724 0.64002 7.58851 0.612985 7.60609L0.565432 7.64058C0.113912 7.94055 -0.0329036 8.54401 0.231096 9.01985C1.18271 10.7267 2.20838 12.3784 3.27974 13.9301C3.47116 14.2094 3.5902 14.4645 3.67769 14.7921C4.46028 17.7059 5.34732 20.361 6.3895 22.916C6.46393 23.0975 6.59065 23.2528 6.75354 23.3621C6.91644 23.4714 7.10815 23.5297 7.30431 23.5298C7.32748 23.5298 7.3509 23.5298 7.37439 23.5263L7.47058 23.5194C7.60683 23.5106 7.73975 23.4736 7.86091 23.4107C7.98208 23.3477 8.08883 23.2603 8.17439 23.1539C8.25931 23.0466 8.3213 22.9229 8.35651 22.7907C8.39173 22.6584 8.39943 22.5203 8.37913 22.385L8.0862 20.454L9.3774 22.7642C9.58751 23.1401 10.0086 23.3228 10.4253 23.2125L10.5101 23.1918C10.7454 23.1317 10.9477 22.9818 11.0738 22.7742C11.1998 22.5666 11.2395 22.318 11.1843 22.0815C11.0931 21.6815 10.9919 21.2608 10.8846 20.816C10.4245 18.9057 9.9031 16.7402 9.89606 15.2093C9.88761 13.3473 10.5329 12.3404 11.4264 10.9508C11.4856 10.8577 11.546 10.7646 11.607 10.668C11.6679 10.7646 11.7282 10.8577 11.7876 10.9508C12.6808 12.3404 13.3264 13.3473 13.3178 15.2093C13.3106 16.7403 12.7894 18.9057 12.3292 20.816C12.222 21.2608 12.1207 21.6815 12.0295 22.0815C11.9744 22.3179 12.0141 22.5666 12.1401 22.7741C12.2661 22.9817 12.4684 23.1316 12.7036 23.1918L12.7885 23.2125C13.2054 23.3228 13.6264 23.14 13.8364 22.7642L15.1276 20.454L14.8347 22.385C14.8144 22.5203 14.8221 22.6584 14.8573 22.7907C14.8925 22.9229 14.9545 23.0466 15.0394 23.1539C15.125 23.2603 15.2317 23.3477 15.3528 23.4106C15.4739 23.4735 15.6068 23.5106 15.743 23.5194L15.8395 23.5263C15.863 23.5298 15.8863 23.5298 15.9095 23.5298C16.1056 23.5297 16.2973 23.4713 16.4602 23.3621C16.6231 23.2528 16.7498 23.0975 16.8242 22.916C17.8664 20.361 18.7535 17.7058 19.536 14.7921C19.6234 14.4646 19.7425 14.2094 19.9339 13.9301C21.0051 12.3784 22.0308 10.7267 22.9826 9.01985C23.2466 8.54401 23.0998 7.94055 22.6483 7.64058Z" fill="#595959"/>
<path fill-rule="evenodd" clip-rule="evenodd" d="M2.80505 16.3542C2.96927 16.5094 2.97689 16.7679 2.82214 16.9335L2.45426 17.3231C2.37382 17.4094 2.2654 17.4508 2.15673 17.4508C2.05625 17.4508 1.95564 17.4163 1.87673 17.3404C1.71238 17.1852 1.70489 16.9267 1.85951 16.7646L2.22751 16.3715C2.38226 16.2094 2.64089 16.199 2.80505 16.3542ZM1.01305 19.0196C0.806265 18.9299 0.711993 18.6886 0.802361 18.4817L0.992824 18.0472C1.08319 17.8403 1.32415 17.7472 1.53081 17.8369C1.73759 17.9265 1.83186 18.1679 1.74143 18.3748L1.55097 18.8092C1.48383 18.9644 1.33382 19.054 1.1765 19.054C1.12018 19.0544 1.06443 19.0427 1.01305 19.0196ZM0.907448 20.761C0.68172 20.761 0.498808 20.5782 0.498808 20.3507V19.899C0.498808 19.6748 0.68172 19.492 0.907448 19.492C1.13305 19.492 1.31596 19.6748 1.31596 19.899V20.3507C1.31602 20.5782 1.13311 20.761 0.907448 20.761ZM1.53087 22.4126C1.47769 22.4367 1.42207 22.4471 1.36748 22.4471C1.21004 22.4471 1.05996 22.3575 0.992888 22.2023L0.802425 21.7678C0.712057 21.5609 0.806329 21.3196 1.01311 21.2299C1.21977 21.1402 1.46073 21.2334 1.5511 21.4403L1.74156 21.8747C1.83186 22.0816 1.73759 22.323 1.53087 22.4126ZM2.82214 23.3195C2.97689 23.4815 2.96921 23.7402 2.80505 23.8954C2.72614 23.9712 2.6254 24.0057 2.52492 24.0057C2.41638 24.0057 2.3079 23.9643 2.22751 23.8782L1.85951 23.4885C1.70489 23.323 1.71244 23.0644 1.87673 22.9093C2.04095 22.7575 2.29958 22.7644 2.45433 22.9265L2.82214 23.3195ZM4.64972 25.1333C4.61355 25.1934 4.56241 25.2431 4.50129 25.2775C4.44016 25.312 4.37115 25.33 4.30098 25.3298C4.2256 25.3294 4.15182 25.3079 4.08806 25.2677L3.56761 24.9505C3.37529 24.8332 3.31481 24.5815 3.43263 24.3884C3.55065 24.1953 3.80223 24.1367 3.99462 24.254L4.51494 24.5712C4.70726 24.6885 4.76774 24.9402 4.64972 25.1333ZM6.96089 26.0505C6.90169 26.2195 6.74406 26.3229 6.5758 26.3229C6.52927 26.3233 6.48306 26.3151 6.43948 26.2988L5.80223 26.0746C5.75165 26.0569 5.70507 26.0293 5.66516 25.9935C5.62526 25.9577 5.59281 25.9143 5.56969 25.8659C5.54657 25.8176 5.53322 25.7651 5.53042 25.7116C5.52761 25.658 5.5354 25.6045 5.55334 25.5539C5.57111 25.5033 5.59873 25.4566 5.63461 25.4167C5.67048 25.3768 5.7139 25.3444 5.76237 25.3213C5.81083 25.2982 5.86339 25.2849 5.917 25.2823C5.97061 25.2796 6.02422 25.2875 6.07474 25.3057L6.71199 25.5298C6.92486 25.6056 7.03622 25.8401 6.96089 26.0505ZM9.59622 26.5815C9.56338 26.7815 9.39014 26.9229 9.19359 26.9229C9.17151 26.9229 9.14924 26.9229 9.1269 26.9194L8.41599 26.8022C8.19334 26.7642 8.04249 26.5539 8.07897 26.3333C8.11564 26.1091 8.32575 25.9608 8.54841 25.9953L9.25919 26.1126C9.48191 26.1505 9.63276 26.3608 9.59622 26.5815ZM12.3834 26.6712C12.388 26.8988 12.2088 27.0849 11.9834 27.0884C11.855 27.0919 11.7309 27.0918 11.607 27.0918C11.483 27.0918 11.3589 27.0919 11.2306 27.0884C11.005 27.0849 10.8258 26.8988 10.8305 26.6712C10.8353 26.447 11.0222 26.2677 11.2474 26.2712C11.4927 26.2781 11.7213 26.2781 11.9665 26.2712C12.1921 26.2677 12.3787 26.447 12.3834 26.6712ZM15.1346 26.3333C15.1713 26.5539 15.0205 26.7643 14.7978 26.8022L14.087 26.9194C14.0645 26.9229 14.0423 26.9229 14.0203 26.9229C13.8237 26.9229 13.6505 26.7815 13.6176 26.5815C13.581 26.3608 13.7318 26.1505 13.9546 26.1125L14.6654 25.9953C14.8881 25.9608 15.0982 26.1091 15.1346 26.3333ZM17.6604 25.5539C17.6783 25.6045 17.6861 25.658 17.6833 25.7116C17.6805 25.7651 17.6672 25.8176 17.644 25.8659C17.6209 25.9143 17.5885 25.9576 17.5486 25.9935C17.5087 26.0293 17.4621 26.0569 17.4115 26.0746L16.7743 26.2988C16.7307 26.3151 16.6845 26.3233 16.6379 26.3229C16.4697 26.3229 16.3121 26.2195 16.2529 26.0505C16.1775 25.8401 16.289 25.6057 16.5018 25.5298L17.1391 25.3057C17.1896 25.2875 17.2432 25.2796 17.2968 25.2822C17.3504 25.2849 17.403 25.2982 17.4514 25.3213C17.4999 25.3443 17.5433 25.3768 17.5792 25.4167C17.615 25.4566 17.6426 25.5033 17.6604 25.5539ZM19.7812 24.3884C19.899 24.5815 19.8386 24.8332 19.6462 24.9505L19.1259 25.2677C19.0621 25.3079 18.9882 25.3294 18.9128 25.3298C18.8427 25.33 18.7736 25.312 18.7125 25.2775C18.6514 25.2431 18.6003 25.1934 18.5641 25.1333C18.4462 24.9402 18.5066 24.6885 18.6989 24.5712L19.2194 24.254C19.4117 24.1367 19.6632 24.1953 19.7812 24.3884ZM21.3371 22.9092C21.5012 23.0644 21.509 23.323 21.3543 23.4885L20.9863 23.8781C20.9058 23.9643 20.7975 24.0056 20.6889 24.0056C20.5884 24.0056 20.4877 23.9711 20.4087 23.8953C20.2445 23.7402 20.2369 23.4815 20.3916 23.3194L20.7596 22.9263C20.9144 22.7644 21.1729 22.7574 21.3371 22.9092ZM22.4114 21.7678L22.2209 22.2023C22.1537 22.3575 22.0038 22.4471 21.8463 22.4471C21.79 22.4474 21.7342 22.4357 21.6828 22.4126C21.4762 22.323 21.3819 22.0816 21.4722 21.8747L21.6627 21.4403C21.7531 21.2334 21.994 21.1402 22.2007 21.2299C22.4075 21.3196 22.5018 21.5609 22.4114 21.7678ZM22.715 19.8989V20.3506C22.715 20.5782 22.5321 20.7609 22.3065 20.7609C22.0808 20.7609 21.8978 20.5782 21.8978 20.3506V19.8989C21.8978 19.6748 22.0807 19.492 22.3065 19.492C22.5321 19.492 22.715 19.6748 22.715 19.8989ZM21.4723 18.3748C21.3819 18.1679 21.4762 17.9265 21.6829 17.8369C21.8896 17.7472 22.1306 17.8403 22.221 18.0472L22.4114 18.4817C22.5018 18.6886 22.4075 18.9299 22.2008 19.0196C22.1476 19.0437 22.092 19.0541 22.0372 19.0541C21.8798 19.0541 21.7298 18.9644 21.6628 18.8093L21.4723 18.3748ZM21.3543 16.7645C21.5089 16.9265 21.5012 17.1852 21.3371 17.3404C21.2583 17.4162 21.1575 17.4507 21.0571 17.4507C20.9484 17.4507 20.8399 17.4093 20.7597 17.3231L20.3917 16.9335C20.2369 16.7679 20.2446 16.5093 20.4088 16.3541C20.573 16.199 20.8316 16.2093 20.9864 16.3713L21.3543 16.7645ZM22.2689 8.61985C22.2973 8.56997 22.3056 8.51112 22.292 8.45535C22.2784 8.39959 22.244 8.35112 22.1959 8.31988L22.1481 8.28884C22.0449 8.21991 21.9037 8.24743 21.8333 8.34746C21.3259 9.08416 20.7651 9.78258 20.1553 10.4371C19.5571 11.0784 18.8433 11.8439 17.8947 12.2266C17.7027 12.3256 17.4943 12.3887 17.2797 12.4129C17.2169 12.4267 17.1535 12.437 17.0885 12.4439C16.8814 12.475 16.6909 12.4887 16.515 12.4887C15.3946 12.4887 14.8506 11.9404 14.1346 11.2232L12.439 9.52673C12.418 9.50498 12.3929 9.48766 12.3651 9.47582C12.3374 9.46398 12.3075 9.45785 12.2773 9.4578H12.2765C12.2159 9.4578 12.1584 9.48193 12.1146 9.52673L12.0831 9.56122C12.0061 9.63706 11.9937 9.7474 12.0518 9.84052C12.1963 10.075 12.3382 10.2957 12.4753 10.5094C13.4079 11.9612 14.1446 13.1094 14.1348 15.2128C14.1274 16.8404 13.5942 19.0541 13.1237 21.0092C13.017 21.4506 12.9163 21.8713 12.826 22.2644C12.8123 22.323 12.8497 22.3851 12.9092 22.3989L12.994 22.423C13.0478 22.4368 13.0961 22.4161 13.1233 22.3678L15.513 18.0886C15.587 17.9576 15.7251 17.8817 15.8697 17.8817C15.9138 17.8817 15.9585 17.8886 16.0021 17.9023C16.1889 17.9679 16.3033 18.1541 16.2737 18.3506L15.6426 22.5091C15.6387 22.5322 15.6398 22.5558 15.6458 22.5784C15.6518 22.601 15.6626 22.6221 15.6775 22.6401C15.6949 22.6643 15.7339 22.6988 15.8004 22.7057L15.8969 22.7126C15.9754 22.716 16.0379 22.6781 16.0678 22.6057C17.097 20.0851 17.9734 17.461 18.7471 14.5783C18.8586 14.1646 19.0173 13.8197 19.2616 13.468C20.318 11.937 21.3298 10.3061 22.2689 8.61985ZM11.162 9.84052C11.2201 9.7474 11.2077 9.63706 11.1307 9.56122L11.0993 9.52673C11.0783 9.50495 11.0532 9.48762 11.0253 9.47577C10.9975 9.46393 10.9675 9.45782 10.9373 9.4578H10.9364C10.8761 9.4578 10.8187 9.48193 10.7748 9.52673L9.07916 11.2232C8.25081 12.0543 7.65235 12.6542 6.12518 12.4439C6.06095 12.4371 5.99715 12.4267 5.93407 12.4129C5.71506 12.3887 5.5079 12.3232 5.31916 12.2266C4.37062 11.8439 3.65676 11.0784 3.05862 10.4371C2.44882 9.78258 1.88795 9.08417 1.38054 8.34746C1.35897 8.31751 1.33058 8.29313 1.29771 8.27633C1.26485 8.25954 1.22845 8.25082 1.19154 8.25089C1.14802 8.25089 1.10425 8.26126 1.06559 8.28884L1.01804 8.31988C0.969868 8.3511 0.935456 8.39956 0.921855 8.45533C0.908255 8.5111 0.916495 8.56996 0.944888 8.61985C1.88383 10.306 2.89567 11.937 3.95238 13.468C4.19673 13.8197 4.35538 14.1645 4.46694 14.5783C5.2405 17.461 6.11679 20.0851 7.14617 22.6057C7.17593 22.6781 7.23833 22.716 7.31724 22.7126L7.41343 22.7057C7.48012 22.6988 7.51916 22.6643 7.53644 22.6401C7.55136 22.6221 7.56221 22.6011 7.56825 22.5785C7.57429 22.5558 7.57538 22.5322 7.57145 22.5091L6.94041 18.3506C6.91078 18.1541 7.02502 17.9679 7.21183 17.9023C7.39878 17.8403 7.6046 17.9162 7.70105 18.0885L10.0908 22.3678C10.118 22.416 10.1663 22.4367 10.22 22.4229L10.3048 22.3988C10.3643 22.385 10.4017 22.323 10.3878 22.2643C10.2978 21.8712 10.1969 21.4506 10.0902 21.0092C9.61977 19.054 9.08652 16.8403 9.0791 15.2127C9.06943 13.1094 9.80607 11.9611 10.7387 10.5094C10.8757 10.2957 11.0175 10.075 11.162 9.84052ZM1.70028 7.43022C2.43775 7.49921 3.06444 7.46817 3.61644 7.34401C5.18527 6.98542 5.55564 6.13025 6.0245 5.0475C6.09714 4.88199 6.17228 4.70612 6.25593 4.52679L7.24582 2.38202C7.3512 2.59057 7.45529 2.79977 7.55807 3.00961C6.99142 5.15438 6.60364 6.91988 6.45561 8.7819C6.35468 8.76122 6.25113 8.75431 6.1454 8.75431C5.14489 8.75431 4.32946 9.55777 4.31046 10.5542C4.08095 10.3336 3.86438 10.1025 3.65625 9.87841C3.0757 9.25428 2.53638 8.58535 2.05324 7.88532C1.9302 7.70573 1.75278 7.57037 1.54706 7.49914C1.55126 7.49107 1.55718 7.48401 1.56441 7.47847C1.582 7.46077 1.60334 7.44725 1.62686 7.4389C1.65037 7.43054 1.67547 7.42758 1.70028 7.43022ZM3.77958 4.30273C3.21791 4.30273 2.76089 4.76135 2.76089 5.3234C2.76089 5.88199 3.21791 6.34062 3.77958 6.34062C3.99026 6.34062 4.1861 6.27508 4.34854 6.1682C4.34879 6.16474 4.34905 6.16474 4.3493 6.16474C4.35538 6.16129 4.36102 6.15783 4.36722 6.15438C4.39807 6.13025 4.4277 6.10612 4.45638 6.08193C4.66566 5.89575 4.79839 5.6233 4.79839 5.32334C4.79839 4.76135 4.34137 4.30273 3.77958 4.30273ZM7.24998 9.12334C7.35705 7.49236 7.65798 5.94753 8.10841 4.14759C8.63724 5.2786 9.10188 6.41652 9.29331 7.39924C9.41868 8.04058 9.50393 8.76129 9.55449 9.59233L8.50035 10.6474C8.25644 10.8922 8.05382 11.0922 7.85638 11.2543C7.9389 11.0422 7.98124 10.8165 7.98124 10.5889C7.98124 9.99226 7.69369 9.4578 7.24998 9.12334ZM5.65753 11.4819C5.34137 11.3094 5.12652 10.975 5.12652 10.5888C5.12652 10.0268 5.58367 9.57159 6.14534 9.57159C6.707 9.57159 7.16402 10.0268 7.16402 10.5888C7.16402 11.1509 6.707 11.6095 6.14534 11.6095C6.11474 11.6095 6.08473 11.606 6.05484 11.6026C5.91896 11.5747 5.78595 11.5343 5.65753 11.4819ZM7.55519 1.03386C7.56458 1.01085 7.579 0.990238 7.5974 0.973527C7.61579 0.956815 7.63769 0.944433 7.6615 0.937288L7.6965 0.92692C7.7767 0.899336 7.85817 0.930376 7.89907 1.00622C8.52191 2.1234 9.2455 3.02343 10.0493 3.67514C10.9663 4.42337 12.2474 4.42337 13.1644 3.67514C13.9684 3.02343 14.6918 2.12346 15.3147 1.00622C15.3486 0.944136 15.4033 0.916552 15.4777 0.920008C15.5398 0.923464 15.6242 0.954504 15.6576 1.0338C15.6794 1.08551 15.6783 1.12692 15.6538 1.17518C15.5214 1.44756 15.3819 1.72686 15.2387 2.01306C14.3921 3.70958 13.4327 5.63022 13.1183 7.24398C13.0226 7.73364 12.9491 8.26119 12.8957 8.84737C12.7176 8.71277 12.5004 8.6401 12.2772 8.64046H12.2738C12.03 8.64326 11.7946 8.72967 11.6068 8.88525C11.419 8.72968 11.1836 8.64327 10.9397 8.64046C10.7154 8.63987 10.4971 8.71252 10.3178 8.84737C10.2644 8.26119 10.1909 7.73358 10.0953 7.24398C9.78092 5.63022 8.82143 3.70958 7.9749 2.01306C7.83492 1.73456 7.69653 1.45526 7.55974 1.17518C7.52921 1.11316 7.5438 1.05799 7.55519 1.03386ZM11.607 1.38209C11.0452 1.38209 10.5882 1.83726 10.5882 2.3993C10.5882 2.92686 10.9893 3.36135 11.5018 3.41306C11.5718 3.41652 11.642 3.41652 11.7121 3.41306C12.2246 3.36135 12.6257 2.92686 12.6257 2.3993C12.6257 1.83726 12.1687 1.38209 11.607 1.38209ZM15.1053 4.14759C15.5558 5.94753 15.8568 7.4923 15.964 9.12334C15.52 9.4578 15.2326 9.99226 15.2326 10.5888C15.2326 10.8233 15.2772 11.0474 15.3573 11.2543C15.16 11.0922 14.9574 10.8922 14.7135 10.6474L13.6593 9.59226C13.7099 8.76122 13.7952 8.04058 13.9204 7.39918C14.1119 6.41646 14.5766 5.27854 15.1053 4.14759ZM17.159 11.6026C17.129 11.6066 17.0987 11.6089 17.0685 11.6095C16.5068 11.6095 16.0498 11.1509 16.0498 10.5888C16.0498 10.0268 16.5068 9.57159 17.0685 9.57159C17.6303 9.57159 18.0872 10.0268 18.0872 10.5888C18.0872 10.975 17.8724 11.3094 17.5565 11.4819C17.428 11.5343 17.2949 11.5747 17.159 11.6026ZM17.1898 5.05102C17.4566 5.66823 17.7021 6.23374 18.1891 6.66823C18.26 6.73377 18.3359 6.79585 18.4165 6.84756C18.717 7.05793 19.097 7.22689 19.5974 7.34407C20.1494 7.46823 20.7761 7.49927 21.5135 7.43028C21.5383 7.42767 21.5634 7.43066 21.5869 7.43901C21.6104 7.44736 21.6318 7.46086 21.6494 7.47854C21.6566 7.48409 21.6625 7.49114 21.6667 7.49921C21.461 7.57044 21.2836 7.7058 21.1606 7.88538C20.6774 8.58535 20.1381 9.25434 19.5576 9.87847C19.3493 10.1026 19.1329 10.3336 18.9034 10.5543C18.8843 9.55777 18.0688 8.75438 17.0684 8.75438C16.9627 8.75438 16.8591 8.76129 16.7582 8.78196C16.6102 6.91994 16.2224 5.1579 15.6557 3.00967C15.7585 2.79985 15.8626 2.59065 15.9679 2.38209L16.9578 4.52686C17.0418 4.70618 17.1171 4.88206 17.1898 5.05102ZM19.4342 4.30273C18.8724 4.30273 18.4154 4.76135 18.4154 5.3234C18.4154 5.63374 18.557 5.91303 18.7788 6.09927C18.7824 6.10473 18.7871 6.10943 18.7926 6.1131C18.9679 6.25447 19.1912 6.34068 19.4343 6.34068C19.996 6.34068 20.453 5.88206 20.453 5.32346C20.4529 4.76135 19.9959 4.30273 19.4342 4.30273ZM22.6483 7.64058L22.6006 7.60609C22.5736 7.58851 22.5457 7.5724 22.517 7.55783C22.5066 7.306 22.3999 7.06777 22.2189 6.89236C22.117 6.79215 21.9944 6.71551 21.8597 6.66785C21.7249 6.62019 21.5814 6.60267 21.4392 6.61652C21.1764 6.64065 20.9319 6.65102 20.7021 6.64756C21.0516 6.3131 21.2699 5.84417 21.2699 5.32346C21.2699 4.3097 20.4464 3.48558 19.4342 3.48558C18.7376 3.48558 18.1304 3.87521 17.8194 4.44762C17.7814 4.36142 17.7419 4.27521 17.6998 4.18215L16.4308 1.43393C16.5159 1.19943 16.5092 0.94772 16.4097 0.713288C16.2609 0.365 15.9121 0.123656 15.5209 0.102984C15.1381 0.0823116 14.7855 0.2754 14.6008 0.609864C14.2447 1.24775 13.8557 1.80641 13.4384 2.27879C13.3761 1.32366 12.5787 0.565064 11.607 0.565064C10.635 0.565064 9.83762 1.32366 9.77535 2.27879C9.35807 1.80641 8.96908 1.24775 8.61298 0.609864C8.38073 0.192648 7.90137 0.00295161 7.44716 0.147784L7.41215 0.158152C7.13753 0.247816 6.9157 0.447816 6.80319 0.713288C6.70596 0.942398 6.6988 1.19977 6.78316 1.43393L5.51404 4.18215C5.47193 4.27527 5.43244 4.36148 5.3943 4.44762C5.08326 3.87521 4.47622 3.48558 3.77958 3.48558C2.76735 3.48558 1.9438 4.3097 1.9438 5.32346C1.9438 5.84417 2.16217 6.3131 2.51167 6.64756C2.28185 6.65102 2.03737 6.64065 1.77458 6.61652C1.63234 6.60265 1.48879 6.62017 1.35406 6.66783C1.21932 6.71549 1.09669 6.79214 0.994808 6.89236C0.813844 7.06779 0.707151 7.30601 0.69676 7.55783C0.667986 7.5724 0.64002 7.58851 0.612985 7.60609L0.565432 7.64058C0.113912 7.94055 -0.0329036 8.54401 0.231096 9.01985C1.18271 10.7267 2.20838 12.3784 3.27974 13.9301C3.47116 14.2094 3.5902 14.4645 3.67769 14.7921C4.46028 17.7059 5.34732 20.361 6.3895 22.916C6.46393 23.0975 6.59065 23.2528 6.75354 23.3621C6.91644 23.4714 7.10815 23.5297 7.30431 23.5298C7.32748 23.5298 7.3509 23.5298 7.37439 23.5263L7.47058 23.5194C7.60683 23.5106 7.73975 23.4736 7.86091 23.4107C7.98208 23.3477 8.08883 23.2603 8.17439 23.1539C8.25931 23.0466 8.3213 22.9229 8.35651 22.7907C8.39173 22.6584 8.39943 22.5203 8.37913 22.385L8.0862 20.454L9.3774 22.7642C9.58751 23.1401 10.0086 23.3228 10.4253 23.2125L10.5101 23.1918C10.7454 23.1317 10.9477 22.9818 11.0738 22.7742C11.1998 22.5666 11.2395 22.318 11.1843 22.0815C11.0931 21.6815 10.9919 21.2608 10.8846 20.816C10.4245 18.9057 9.9031 16.7402 9.89606 15.2093C9.88761 13.3473 10.5329 12.3404 11.4264 10.9508C11.4856 10.8577 11.546 10.7646 11.607 10.668C11.6679 10.7646 11.7282 10.8577 11.7876 10.9508C12.6808 12.3404 13.3264 13.3473 13.3178 15.2093C13.3106 16.7403 12.7894 18.9057 12.3292 20.816C12.222 21.2608 12.1207 21.6815 12.0295 22.0815C11.9744 22.3179 12.0141 22.5666 12.1401 22.7741C12.2661 22.9817 12.4684 23.1316 12.7036 23.1918L12.7885 23.2125C13.2054 23.3228 13.6264 23.14 13.8364 22.7642L15.1276 20.454L14.8347 22.385C14.8144 22.5203 14.8221 22.6584 14.8573 22.7907C14.8925 22.9229 14.9545 23.0466 15.0394 23.1539C15.125 23.2603 15.2317 23.3477 15.3528 23.4106C15.4739 23.4735 15.6068 23.5106 15.743 23.5194L15.8395 23.5263C15.863 23.5298 15.8863 23.5298 15.9095 23.5298C16.1056 23.5297 16.2973 23.4713 16.4602 23.3621C16.6231 23.2528 16.7498 23.0975 16.8242 22.916C17.8664 20.361 18.7535 17.7058 19.536 14.7921C19.6234 14.4646 19.7425 14.2094 19.9339 13.9301C21.0051 12.3784 22.0308 10.7267 22.9826 9.01985C23.2466 8.54401 23.0998 7.94055 22.6483 7.64058Z" stroke="#595959" stroke-width="0.2" mask="url(#path-1-outside-1_58903_5865)"/>
</svg>
