<svg width="32" height="32" viewBox="0 0 32 32" fill="none" xmlns="http://www.w3.org/2000/svg">
<g clip-path="url(#clip0_58903_5868)">
<path d="M12.381 1.94559C12.494 1.94559 12.6045 1.91208 12.6985 1.84929C12.7925 1.7865 12.8657 1.69725 12.909 1.59284C12.9522 1.48842 12.9635 1.37353 12.9415 1.26268C12.9194 1.15184 12.865 1.05002 12.7851 0.970102C12.7052 0.890186 12.6033 0.835763 12.4925 0.813714C12.3817 0.791666 12.2668 0.802982 12.1623 0.846232C12.0579 0.889482 11.9687 0.962723 11.9059 1.05669C11.8431 1.15067 11.8096 1.26115 11.8096 1.37416C11.8097 1.52567 11.87 1.67093 11.9771 1.77806C12.0843 1.88519 12.2295 1.94544 12.381 1.94559ZM12.381 1.08845C12.4375 1.08845 12.4928 1.10521 12.5398 1.1366C12.5867 1.168 12.6234 1.21262 12.645 1.26483C12.6666 1.31703 12.6723 1.37448 12.6612 1.4299C12.6502 1.48533 12.623 1.53624 12.5831 1.57619C12.5431 1.61615 12.4922 1.64336 12.4368 1.65439C12.3813 1.66541 12.3239 1.65975 12.2717 1.63813C12.2195 1.6165 12.1749 1.57988 12.1435 1.5329C12.1121 1.48591 12.0953 1.43067 12.0953 1.37416C12.0954 1.2984 12.1255 1.22576 12.179 1.17219C12.2326 1.11862 12.3053 1.0885 12.381 1.08845ZM30.8572 4.44216C30.7819 4.44216 30.7082 4.46451 30.6456 4.50636C30.5829 4.54822 30.5341 4.60772 30.5053 4.67733C30.4764 4.74694 30.4689 4.82354 30.4836 4.89744C30.4983 4.97133 30.5346 5.03921 30.5878 5.09249C30.6411 5.14577 30.709 5.18205 30.7829 5.19675C30.8568 5.21145 30.9334 5.2039 31.003 5.17507C31.0726 5.14624 31.1321 5.09741 31.174 5.03476C31.2158 4.97211 31.2382 4.89846 31.2382 4.82312C31.2381 4.72211 31.1979 4.62527 31.1265 4.55385C31.0551 4.48243 30.9582 4.44226 30.8572 4.44216ZM30.8572 5.01359C30.8195 5.01359 30.7827 5.00242 30.7514 4.98149C30.7201 4.96056 30.6957 4.93081 30.6812 4.89601C30.6668 4.8612 30.663 4.8229 30.6704 4.78596C30.6777 4.74901 30.6959 4.71507 30.7225 4.68843C30.7492 4.66179 30.7831 4.64365 30.8201 4.6363C30.857 4.62895 30.8953 4.63272 30.9301 4.64714C30.9649 4.66155 30.9947 4.68597 31.0156 4.71729C31.0365 4.74862 31.0477 4.78544 31.0477 4.82312C31.0476 4.87362 31.0276 4.92204 30.9918 4.95775C30.9561 4.99346 30.9077 5.01354 30.8572 5.01359ZM16.762 4.9574C16.6866 4.9574 16.613 4.97974 16.5503 5.0216C16.4877 5.06346 16.4389 5.12296 16.41 5.19257C16.3812 5.26218 16.3736 5.33878 16.3883 5.41267C16.403 5.48657 16.4393 5.55445 16.4926 5.60773C16.5459 5.661 16.6138 5.69729 16.6877 5.71199C16.7616 5.72669 16.8381 5.71914 16.9078 5.69031C16.9774 5.66147 17.0369 5.61265 17.0787 5.55C17.1206 5.48735 17.1429 5.4137 17.1429 5.33835C17.1428 5.23735 17.1027 5.14051 17.0312 5.06909C16.9598 4.99767 16.863 4.9575 16.762 4.9574ZM16.762 5.52883C16.7243 5.52883 16.6875 5.51766 16.6562 5.49673C16.6248 5.4758 16.6004 5.44605 16.586 5.41125C16.5716 5.37644 16.5678 5.33814 16.5752 5.30119C16.5825 5.26424 16.6006 5.23031 16.6273 5.20367C16.6539 5.17703 16.6879 5.15889 16.7248 5.15154C16.7618 5.14419 16.8001 5.14796 16.8349 5.16238C16.8697 5.17679 16.8994 5.20121 16.9203 5.23253C16.9413 5.26385 16.9525 5.30068 16.9525 5.33835C16.9524 5.38885 16.9323 5.43727 16.8966 5.47298C16.8609 5.5087 16.8125 5.52878 16.762 5.52883ZM20.9525 1.87569C20.8771 1.87569 20.8035 1.89803 20.7408 1.93989C20.6782 1.98175 20.6293 2.04125 20.6005 2.11085C20.5717 2.18046 20.5641 2.25706 20.5788 2.33096C20.5935 2.40486 20.6298 2.47274 20.6831 2.52601C20.7364 2.57929 20.8042 2.61557 20.8781 2.63027C20.952 2.64497 21.0286 2.63743 21.0982 2.60859C21.1678 2.57976 21.2273 2.53093 21.2692 2.46829C21.3111 2.40564 21.3334 2.33198 21.3334 2.25664C21.3333 2.15564 21.2931 2.0588 21.2217 1.98738C21.1503 1.91596 21.0535 1.87579 20.9525 1.87569ZM20.9525 2.44712C20.9148 2.44712 20.878 2.43594 20.8466 2.41501C20.8153 2.39408 20.7909 2.36434 20.7765 2.32953C20.7621 2.29473 20.7583 2.25643 20.7656 2.21948C20.773 2.18253 20.7911 2.14859 20.8178 2.12195C20.8444 2.09531 20.8783 2.07717 20.9153 2.06982C20.9522 2.06247 20.9905 2.06625 21.0253 2.08066C21.0601 2.09508 21.0899 2.11949 21.1108 2.15082C21.1318 2.18214 21.1429 2.21897 21.1429 2.25664C21.1429 2.30714 21.1228 2.35556 21.0871 2.39127C21.0514 2.42698 21.003 2.44707 20.9525 2.44712ZM2.47626 9.38673C2.47626 9.31139 2.45392 9.23774 2.41206 9.17509C2.3702 9.11244 2.3107 9.06361 2.24109 9.03478C2.17148 9.00595 2.09489 8.9984 2.02099 9.0131C1.94709 9.0278 1.87921 9.06408 1.82593 9.11736C1.77266 9.17064 1.73637 9.23852 1.72168 9.31241C1.70698 9.38631 1.71452 9.46291 1.74335 9.53252C1.77219 9.60213 1.82102 9.66162 1.88366 9.70348C1.94631 9.74534 2.01996 9.76769 2.09531 9.76769C2.19631 9.76759 2.29315 9.72742 2.36457 9.656C2.43599 9.58458 2.47616 9.48774 2.47626 9.38673ZM1.90483 9.38673C1.90483 9.34906 1.916 9.31223 1.93693 9.28091C1.95786 9.24959 1.98761 9.22517 2.02242 9.21076C2.05722 9.19634 2.09552 9.19257 2.13247 9.19992C2.16942 9.20727 2.20336 9.22541 2.23 9.25205C2.25663 9.27869 2.27477 9.31262 2.28212 9.34957C2.28947 9.38652 2.2857 9.42482 2.27129 9.45963C2.25687 9.49443 2.23245 9.52418 2.20113 9.54511C2.16981 9.56604 2.13298 9.57721 2.09531 9.57721C2.04481 9.57716 1.99639 9.55708 1.96068 9.52137C1.92497 9.48565 1.90488 9.43724 1.90483 9.38673Z" fill="#2D4356"/>
<path d="M0.84091 3.48444L1.12415 3.11187L0.945291 3.01054L0.763577 3.42768H0.757482L0.57291 3.0134L0.390815 3.11778L0.671196 3.4814V3.48749L0.23291 3.43073V3.6334L0.674053 3.57683V3.58273L0.390815 3.94635L0.56072 4.05359L0.754624 3.6334H0.760339L0.939196 4.05054L1.12701 3.9433L0.84091 3.58559V3.57968L1.29081 3.6334V3.43073L0.84091 3.49035V3.48444ZM7.18739 3.37778L7.02434 3.58711L7.12224 3.64883L7.23386 3.40692H7.23729L7.34015 3.64711L7.44834 3.5854L7.28358 3.37949V3.37606L7.54262 3.40692V3.29016L7.28358 3.32444V3.32102L7.44662 3.10654L7.34377 3.04825L7.23901 3.28844H7.23558L7.12929 3.04997L7.02434 3.10997L7.18586 3.3193V3.32273L6.93348 3.29016V3.40692L7.18739 3.37435V3.37778ZM29.5819 8.54673V8.34787L29.1405 8.40635V8.40044L29.4182 8.03511L29.2428 7.93587L29.0645 8.34502H29.0586L28.8775 7.93873L28.699 8.04102L28.9739 8.39759V8.40349L28.544 8.34787V8.54673L28.9767 8.4913V8.49702L28.699 8.85359L28.8657 8.95892L29.0558 8.54673H29.0615L29.2369 8.95587L29.4211 8.85073L29.1405 8.49987V8.49416L29.5819 8.54673ZM27.4954 0.941778L27.735 0.62673L27.5838 0.541016L27.4301 0.893968H27.4249L27.2685 0.543492L27.1146 0.631682L27.3518 0.939301V0.944444L26.9809 0.896444V1.06787L27.3542 1.02006V1.02502L27.1146 1.33263L27.2582 1.42349L27.4224 1.06787H27.4274L27.5786 1.42102L27.7375 1.33016L27.4954 1.02749V1.02254L27.8761 1.06787V0.896444L27.4954 0.94692V0.941778Z" fill="#0BCEB2"/>
<path d="M0.380952 28.7912C0.591347 28.7912 0.761905 28.6206 0.761905 28.4102C0.761905 28.1999 0.591347 28.0293 0.380952 28.0293C0.170558 28.0293 0 28.1999 0 28.4102C0 28.6206 0.170558 28.7912 0.380952 28.7912Z" fill="#2D4356"/>
<path d="M2.0952 28.0293H1.52377C1.42274 28.0293 1.32584 28.0694 1.2544 28.1409C1.18296 28.2123 1.14282 28.3092 1.14282 28.4102C1.14282 28.5113 1.18296 28.6082 1.2544 28.6796C1.32584 28.7511 1.42274 28.7912 1.52377 28.7912H2.0952C2.19624 28.7912 2.29313 28.7511 2.36458 28.6796C2.43602 28.6082 2.47616 28.5113 2.47616 28.4102C2.47616 28.3092 2.43602 28.2123 2.36458 28.1409C2.29313 28.0694 2.19624 28.0293 2.0952 28.0293Z" fill="#2D4356"/>
<path d="M22.5055 29.5527H20.923C20.827 29.5602 20.7374 29.6035 20.6721 29.6742C20.6067 29.7448 20.5704 29.8375 20.5704 29.9337C20.5704 30.0299 20.6067 30.1226 20.6721 30.1932C20.7374 30.2638 20.827 30.3072 20.923 30.3146H22.5055C22.6014 30.3072 22.691 30.2638 22.7564 30.1932C22.8217 30.1226 22.858 30.0299 22.858 29.9337C22.858 29.8375 22.8217 29.7448 22.7564 29.6742C22.691 29.6035 22.6014 29.5602 22.5055 29.5527ZM11.0769 29.5527H9.49441C9.39847 29.5602 9.30887 29.6035 9.24351 29.6742C9.17815 29.7448 9.14185 29.8375 9.14185 29.9337C9.14185 30.0299 9.17815 30.1226 9.24351 30.1932C9.30887 30.2638 9.39847 30.3072 9.49441 30.3146H11.0769C11.1728 30.3072 11.2624 30.2638 11.3278 30.1932C11.3931 30.1226 11.4295 30.0299 11.4295 29.9337C11.4295 29.8375 11.3931 29.7448 11.3278 29.6742C11.2624 29.6035 11.1728 29.5602 11.0769 29.5527ZM19.8095 29.5527H12.1904C12.0894 29.5527 11.9925 29.5929 11.921 29.6643C11.8496 29.7358 11.8095 29.8327 11.8095 29.9337C11.8095 30.0347 11.8496 30.1316 11.921 30.2031C11.9925 30.2745 12.0894 30.3146 12.1904 30.3146H15.2266V30.6956H13.7142C13.6132 30.6956 13.5163 30.7357 13.4448 30.8072C13.3734 30.8786 13.3333 30.9755 13.3333 31.0765C13.3333 31.1776 13.3734 31.2745 13.4448 31.3459C13.5163 31.4174 13.6132 31.4575 13.7142 31.4575H18.4761C18.5772 31.4575 18.6741 31.4174 18.7455 31.3459C18.8169 31.2745 18.8571 31.1776 18.8571 31.0765C18.8571 30.9755 18.8169 30.8786 18.7455 30.8072C18.6741 30.7357 18.5772 30.6956 18.4761 30.6956H16.7733V30.3146H19.8095C19.9105 30.3146 20.0074 30.2745 20.0788 30.2031C20.1503 30.1316 20.1904 30.0347 20.1904 29.9337C20.1904 29.8327 20.1503 29.7358 20.0788 29.6643C20.0074 29.5929 19.9105 29.5527 19.8095 29.5527Z" fill="#0BCEB2"/>
<path d="M26.6667 10.8876V7.83994C26.6667 7.7389 26.6266 7.642 26.5551 7.57056C26.4837 7.49912 26.3868 7.45898 26.2857 7.45898H23.2381C23.1371 7.45898 23.0402 7.49912 22.9688 7.57056C22.8973 7.642 22.8572 7.7389 22.8572 7.83994V10.8876C22.8572 10.9886 22.8973 11.0855 22.9688 11.1569C23.0402 11.2284 23.1371 11.2685 23.2381 11.2685H26.2857C26.3868 11.2685 26.4837 11.2284 26.5551 11.1569C26.6266 11.0855 26.6667 10.9886 26.6667 10.8876ZM25.9048 10.5066H23.6191V8.22089H25.9048V10.5066Z" fill="#2D4356"/>
<path d="M22.4762 15.8389V12.0294C22.4762 11.9284 22.4361 11.8315 22.3646 11.76C22.2932 11.6886 22.1963 11.6484 22.0953 11.6484H18.2857C18.1847 11.6484 18.0878 11.6886 18.0164 11.76C17.9449 11.8315 17.9048 11.9284 17.9048 12.0294V15.8389C17.9048 15.9399 17.9449 16.0368 18.0164 16.1083C18.0878 16.1797 18.1847 16.2199 18.2857 16.2199H22.0953C22.1963 16.2199 22.2932 16.1797 22.3646 16.1083C22.4361 16.0368 22.4762 15.9399 22.4762 15.8389ZM21.7143 15.458H18.6667V12.4103H21.7143V15.458Z" fill="#0BCEB2"/>
<path d="M22.4762 19.0373C22.6866 19.0373 22.8571 18.8667 22.8571 18.6563C22.8571 18.4459 22.6866 18.2754 22.4762 18.2754C22.2658 18.2754 22.0952 18.4459 22.0952 18.6563C22.0952 18.8667 22.2658 19.0373 22.4762 19.0373Z" fill="#0BCEB2"/>
<path d="M3.97967 20.7272C4.03191 20.762 4.09194 20.7833 4.15441 20.7893C4.21688 20.7952 4.27987 20.7857 4.33776 20.7615C5.16344 20.4164 6.00409 20.1083 6.85719 19.838V20.791H7.61909V18.8422C7.6156 18.1512 7.88637 17.4869 8.37201 16.9952C8.85766 16.5036 9.51851 16.2246 10.2096 16.2196H10.437C10.133 16.0254 9.8595 15.7871 9.62557 15.5125C8.84725 15.6554 8.14378 16.067 7.63786 16.6755C7.13193 17.284 6.85565 18.0507 6.85719 18.842V19.0411C6.08503 19.2782 5.32254 19.5457 4.57148 19.843V5.35843C11.9059 8.30374 20.0942 8.30374 27.4286 5.35843V19.8432C26.277 19.3851 25.0989 18.9964 23.9008 18.679C23.8031 18.6531 23.6991 18.6671 23.6118 18.7179C23.5244 18.7687 23.4608 18.8522 23.4349 18.9499C23.409 19.0476 23.423 19.1515 23.4738 19.2389C23.5246 19.3263 23.6081 19.3899 23.7058 19.4158C25.054 19.7728 26.376 20.2224 27.6623 20.7615C27.7202 20.7857 27.7833 20.7953 27.8458 20.7894C27.9083 20.7834 27.9683 20.7621 28.0206 20.7273C28.0729 20.6925 28.1157 20.6453 28.1454 20.59C28.175 20.5347 28.1905 20.4728 28.1905 20.41V4.791C28.1905 4.72823 28.175 4.66643 28.1453 4.61111C28.1157 4.55579 28.0728 4.50865 28.0205 4.47389C27.9682 4.43913 27.9082 4.41783 27.8457 4.41187C27.7832 4.40592 27.7202 4.4155 27.6623 4.43976C23.9723 6.00062 20.0066 6.80488 16 6.80488C11.9935 6.80488 8.02775 6.00062 4.33776 4.43976C4.27987 4.4155 4.21687 4.40592 4.15439 4.41187C4.0919 4.41783 4.03185 4.43913 3.97958 4.47389C3.92731 4.50865 3.88444 4.55579 3.85478 4.61111C3.82512 4.66643 3.80959 4.72823 3.80957 4.791V20.41C3.80956 20.4728 3.82508 20.5347 3.85476 20.59C3.88444 20.6453 3.92735 20.6925 3.97967 20.7272Z" fill="#2D4356"/>
<path d="M11.4803 16.6747L11.0523 19.3936C11.043 19.4527 11.0477 19.5131 11.0662 19.57C11.0846 19.627 11.1162 19.6787 11.1584 19.7212L12.1108 20.68C12.1813 20.7511 12.277 20.7916 12.3771 20.7926C12.4773 20.7937 12.5738 20.7553 12.6458 20.6857L13.5982 19.7654C13.6418 19.7233 13.6747 19.6714 13.6942 19.614C13.7138 19.5566 13.7193 19.4954 13.7104 19.4355L13.3009 16.6697C13.0546 16.7344 12.8021 16.7727 12.5477 16.784L12.9279 19.3535L12.3864 19.8766L11.8352 19.3214L12.2342 16.7852C11.9797 16.7751 11.727 16.7381 11.4803 16.6747ZM15.2382 13.1735C15.2382 12.6085 15.0706 12.0561 14.7567 11.5862C14.4428 11.1164 13.9966 10.7502 13.4745 10.5339C12.9524 10.3177 12.378 10.2611 11.8237 10.3713C11.2695 10.4815 10.7604 10.7536 10.3608 11.1532C9.96125 11.5527 9.68911 12.0618 9.57885 12.616C9.46858 13.1703 9.52514 13.7447 9.74136 14.2668C9.95758 14.7889 10.3238 15.2351 10.7936 15.5491C11.2634 15.8631 11.8158 16.0307 12.3809 16.0307C12.7561 16.0308 13.1277 15.9569 13.4744 15.8134C13.8211 15.6698 14.1361 15.4594 14.4014 15.194C14.6668 14.9287 14.8772 14.6137 15.0208 14.267C15.1644 13.9204 15.2383 13.5488 15.2382 13.1735ZM12.3809 15.2688C11.9665 15.2688 11.5614 15.1458 11.2169 14.9156C10.8723 14.6853 10.6038 14.3581 10.4453 13.9752C10.2867 13.5924 10.2452 13.1711 10.3261 12.7647C10.407 12.3582 10.6065 11.9849 10.8996 11.6919C11.1926 11.3989 11.5659 11.1994 11.9724 11.1186C12.3788 11.0377 12.8001 11.0792 13.1829 11.2378C13.5658 11.3964 13.893 11.665 14.1232 12.0095C14.3534 12.3541 14.4763 12.7592 14.4763 13.1735C14.4757 13.7291 14.2547 14.2617 13.8619 14.6545C13.469 15.0473 12.9364 15.2682 12.3809 15.2688ZM21.3976 18.5126C21.4059 18.4632 21.4043 18.4128 21.393 18.364C21.3818 18.3153 21.361 18.2692 21.3319 18.2285C21.3028 18.1878 21.266 18.1532 21.2236 18.1267C21.1811 18.1002 21.1339 18.0823 21.0845 18.0741C19.9667 17.8895 18.8395 17.767 17.7081 17.7071C17.5104 17.1476 17.1685 16.6501 16.7169 16.2651C16.2654 15.88 15.7202 15.621 15.1365 15.5141C14.9025 15.7887 14.6291 16.027 14.3251 16.2212H14.5525C15.2436 16.2262 15.9044 16.5052 16.3901 16.9968C16.8757 17.4885 17.1465 18.1528 17.143 18.8438V20.7926H17.9049V18.8438C17.9043 18.7221 17.8972 18.6006 17.8835 18.4796C18.914 18.5418 19.9406 18.6572 20.9592 18.8256C21.0588 18.8422 21.161 18.8186 21.2432 18.7599C21.3254 18.7012 21.381 18.6122 21.3976 18.5126Z" fill="#2D4356"/>
<path d="M7.99992 8.0293H5.7142C5.61317 8.0293 5.51627 8.06943 5.44483 8.14087C5.37339 8.21232 5.33325 8.30921 5.33325 8.41025C5.33325 8.51128 5.37339 8.60818 5.44483 8.67962C5.51627 8.75107 5.61317 8.7912 5.7142 8.7912H7.99992C8.10095 8.7912 8.19785 8.75107 8.26929 8.67962C8.34074 8.60818 8.38087 8.51128 8.38087 8.41025C8.38087 8.30921 8.34074 8.21232 8.26929 8.14087C8.19785 8.06943 8.10095 8.0293 7.99992 8.0293ZM7.99992 9.55311H5.7142C5.61317 9.55311 5.51627 9.59324 5.44483 9.66468C5.37339 9.73613 5.33325 9.83302 5.33325 9.93406C5.33325 10.0351 5.37339 10.132 5.44483 10.2034C5.51627 10.2749 5.61317 10.315 5.7142 10.315H7.99992C8.10095 10.315 8.19785 10.2749 8.26929 10.2034C8.34074 10.132 8.38087 10.0351 8.38087 9.93406C8.38087 9.83302 8.34074 9.73613 8.26929 9.66468C8.19785 9.59324 8.10095 9.55311 7.99992 9.55311Z" fill="#0BCEB2"/>
<path d="M9.14292 26.6961C9.24395 26.6961 9.34085 26.6559 9.41229 26.5845C9.48373 26.513 9.52387 26.4161 9.52387 26.3151V24.0294C9.52387 23.9284 9.48373 23.8315 9.41229 23.76C9.34085 23.6886 9.24395 23.6484 9.14292 23.6484C9.04188 23.6484 8.94498 23.6886 8.87354 23.76C8.8021 23.8315 8.76196 23.9284 8.76196 24.0294V26.3151C8.76196 26.4161 8.8021 26.513 8.87354 26.5845C8.94498 26.6559 9.04188 26.6961 9.14292 26.6961ZM10.6667 26.6961C10.7678 26.6961 10.8647 26.6559 10.9361 26.5845C11.0075 26.513 11.0477 26.4161 11.0477 26.3151V24.0294C11.0477 23.9284 11.0075 23.8315 10.9361 23.76C10.8647 23.6886 10.7678 23.6484 10.6667 23.6484C10.5657 23.6484 10.4688 23.6886 10.3974 23.76C10.3259 23.8315 10.2858 23.9284 10.2858 24.0294V26.3151C10.2858 26.4161 10.3259 26.513 10.3974 26.5845C10.4688 26.6559 10.5657 26.6961 10.6667 26.6961ZM12.1905 26.6961C12.2916 26.6961 12.3885 26.6559 12.4599 26.5845C12.5314 26.513 12.5715 26.4161 12.5715 26.3151V24.0294C12.5715 23.9284 12.5314 23.8315 12.4599 23.76C12.3885 23.6886 12.2916 23.6484 12.1905 23.6484C12.0895 23.6484 11.9926 23.6886 11.9212 23.76C11.8497 23.8315 11.8096 23.9284 11.8096 24.0294V26.3151C11.8096 26.4161 11.8497 26.513 11.9212 26.5845C11.9926 26.6559 12.0895 26.6961 12.1905 26.6961Z" fill="#2D4356"/>
<path d="M13.7142 26.6961C13.8152 26.6961 13.9121 26.6559 13.9836 26.5845C14.055 26.513 14.0952 26.4161 14.0952 26.3151V24.0294C14.0952 23.9284 14.055 23.8315 13.9836 23.76C13.9121 23.6886 13.8152 23.6484 13.7142 23.6484C13.6132 23.6484 13.5163 23.6886 13.4448 23.76C13.3734 23.8315 13.3333 23.9284 13.3333 24.0294V26.3151C13.3333 26.4161 13.3734 26.513 13.4448 26.5845C13.5163 26.6559 13.6132 26.6961 13.7142 26.6961ZM15.238 26.6961C15.339 26.6961 15.4359 26.6559 15.5074 26.5845C15.5788 26.513 15.619 26.4161 15.619 26.3151V24.0294C15.619 23.9284 15.5788 23.8315 15.5074 23.76C15.4359 23.6886 15.339 23.6484 15.238 23.6484C15.137 23.6484 15.0401 23.6886 14.9686 23.76C14.8972 23.8315 14.8571 23.9284 14.8571 24.0294V26.3151C14.8571 26.4161 14.8972 26.513 14.9686 26.5845C15.0401 26.6559 15.137 26.6961 15.238 26.6961ZM16.7618 26.6961C16.8629 26.6961 16.9598 26.6559 17.0312 26.5845C17.1026 26.513 17.1428 26.4161 17.1428 26.3151V24.0294C17.1428 23.9284 17.1026 23.8315 17.0312 23.76C16.9598 23.6886 16.8629 23.6484 16.7618 23.6484C16.6608 23.6484 16.5639 23.6886 16.4924 23.76C16.421 23.8315 16.3809 23.9284 16.3809 24.0294V26.3151C16.3809 26.4161 16.421 26.513 16.4924 26.5845C16.5639 26.6559 16.6608 26.6961 16.7618 26.6961ZM18.2856 26.6961C18.3867 26.6961 18.4836 26.6559 18.555 26.5845C18.6264 26.513 18.6666 26.4161 18.6666 26.3151V24.0294C18.6666 23.9284 18.6264 23.8315 18.555 23.76C18.4836 23.6886 18.3867 23.6484 18.2856 23.6484C18.1846 23.6484 18.0877 23.6886 18.0163 23.76C17.9448 23.8315 17.9047 23.9284 17.9047 24.0294V26.3151C17.9047 26.4161 17.9448 26.513 18.0163 26.5845C18.0877 26.6559 18.1846 26.6961 18.2856 26.6961Z" fill="#0BCEB2"/>
<path d="M19.8094 26.6961C19.9105 26.6961 20.0074 26.6559 20.0788 26.5845C20.1502 26.513 20.1904 26.4161 20.1904 26.3151V24.0294C20.1904 23.9284 20.1502 23.8315 20.0788 23.76C20.0074 23.6886 19.9105 23.6484 19.8094 23.6484C19.7084 23.6484 19.6115 23.6886 19.54 23.76C19.4686 23.8315 19.4285 23.9284 19.4285 24.0294V26.3151C19.4285 26.4161 19.4686 26.513 19.54 26.5845C19.6115 26.6559 19.7084 26.6961 19.8094 26.6961ZM21.3332 26.6961C21.4343 26.6961 21.5312 26.6559 21.6026 26.5845C21.674 26.513 21.7142 26.4161 21.7142 26.3151V24.0294C21.7142 23.9284 21.674 23.8315 21.6026 23.76C21.5312 23.6886 21.4343 23.6484 21.3332 23.6484C21.2322 23.6484 21.1353 23.6886 21.0639 23.76C20.9924 23.8315 20.9523 23.9284 20.9523 24.0294V26.3151C20.9523 26.4161 20.9924 26.513 21.0639 26.5845C21.1353 26.6559 21.2322 26.6961 21.3332 26.6961ZM22.857 26.6961C22.9581 26.6961 23.055 26.6559 23.1264 26.5845C23.1979 26.513 23.238 26.4161 23.238 26.3151V24.0294C23.238 23.9284 23.1979 23.8315 23.1264 23.76C23.055 23.6886 22.9581 23.6484 22.857 23.6484C22.756 23.6484 22.6591 23.6886 22.5877 23.76C22.5162 23.8315 22.4761 23.9284 22.4761 24.0294V26.3151C22.4761 26.4161 22.5162 26.513 22.5877 26.5845C22.6591 26.6559 22.756 26.6961 22.857 26.6961Z" fill="#2D4356"/>
<path d="M7.61899 25.5529C7.82938 25.5529 7.99994 25.3824 7.99994 25.172C7.99994 24.9616 7.82938 24.791 7.61899 24.791C7.4086 24.791 7.23804 24.9616 7.23804 25.172C7.23804 25.3824 7.4086 25.5529 7.61899 25.5529Z" fill="#2D4356"/>
<path d="M24.381 25.5529C24.5913 25.5529 24.7619 25.3824 24.7619 25.172C24.7619 24.9616 24.5913 24.791 24.381 24.791C24.1706 24.791 24 24.9616 24 25.172C24 25.3824 24.1706 25.5529 24.381 25.5529Z" fill="#2D4356"/>
<path d="M30.4761 28.0293H29.9046C29.8036 28.0293 29.7067 28.0694 29.6353 28.1409C29.5638 28.2123 29.5237 28.3092 29.5237 28.4102C29.5237 28.5113 29.5638 28.6082 29.6353 28.6796C29.7067 28.7511 29.8036 28.7912 29.9046 28.7912H30.4761C30.5771 28.7912 30.674 28.7511 30.7454 28.6796C30.8169 28.6082 30.857 28.5113 30.857 28.4102C30.857 28.3092 30.8169 28.2123 30.7454 28.1409C30.674 28.0694 30.5771 28.0293 30.4761 28.0293Z" fill="#2D4356"/>
<path d="M31.619 28.7912C31.8294 28.7912 31.9999 28.6206 31.9999 28.4102C31.9999 28.1999 31.8294 28.0293 31.619 28.0293C31.4086 28.0293 31.238 28.1999 31.238 28.4102C31.238 28.6206 31.4086 28.7912 31.619 28.7912Z" fill="#2D4356"/>
<path d="M28.7087 28.0289H28.1237C28.1676 27.9067 28.1901 27.7778 28.1904 27.648V22.6956C28.19 22.3926 28.0695 22.1021 27.8553 21.8879C27.641 21.6736 27.3505 21.5531 27.0475 21.5527H4.95229C4.64929 21.5531 4.35881 21.6736 4.14455 21.8879C3.9303 22.1021 3.80978 22.3926 3.80943 22.6956V27.648C3.8097 27.7778 3.83225 27.9067 3.8761 28.0289H3.29114C3.23695 28.0218 3.18187 28.0264 3.12957 28.0423C3.07728 28.0582 3.02899 28.0851 2.98791 28.1212C2.94684 28.1572 2.91393 28.2016 2.89138 28.2514C2.86884 28.3012 2.85718 28.3552 2.85718 28.4099C2.85718 28.4645 2.86884 28.5186 2.89138 28.5683C2.91393 28.6181 2.94684 28.6625 2.98791 28.6986C3.02899 28.7347 3.07728 28.7615 3.12957 28.7774C3.18187 28.7933 3.23695 28.7979 3.29114 28.7908H28.7085C28.7627 28.7979 28.8178 28.7933 28.87 28.7774C28.9223 28.7615 28.9706 28.7347 29.0117 28.6986C29.0528 28.6625 29.0857 28.6181 29.1082 28.5683C29.1308 28.5186 29.1424 28.4645 29.1424 28.4099C29.1424 28.3552 29.1308 28.3012 29.1082 28.2514C29.0857 28.2016 29.0528 28.1572 29.0117 28.1212C28.9706 28.0851 28.9223 28.0582 28.87 28.0423C28.8178 28.0264 28.7629 28.0218 28.7087 28.0289ZM4.57133 22.6956C4.57149 22.5946 4.61167 22.4978 4.68308 22.4264C4.75449 22.355 4.8513 22.3148 4.95229 22.3146H27.0475C27.1485 22.3148 27.2453 22.355 27.3167 22.4264C27.3881 22.4978 27.4283 22.5946 27.4285 22.6956V27.648C27.4283 27.749 27.3881 27.8458 27.3167 27.9172C27.2453 27.9886 27.1485 28.0288 27.0475 28.0289H4.95229C4.8513 28.0288 4.75449 27.9886 4.68308 27.9172C4.61167 27.8458 4.57149 27.749 4.57133 27.648V22.6956Z" fill="#2D4356"/>
</g>
<defs>
<clipPath id="clip0_58903_5868">
<rect width="32" height="32" fill="white"/>
</clipPath>
</defs>
</svg>
