<svg width="28" height="26" viewBox="0 0 28 26" fill="none" xmlns="http://www.w3.org/2000/svg">
<path d="M11.6366 0.526829C11.5092 0.563959 11.4018 0.650167 11.338 0.766486C11.2742 0.882805 11.2592 1.01971 11.2964 1.14708C11.3335 1.27445 11.4197 1.38185 11.536 1.44566C11.6523 1.50947 11.7892 1.52446 11.9166 1.48733C19.1566 -1.02117 27.1316 4.73433 26.9996 12.4128C27.1131 19.9208 19.5281 25.6308 12.3521 23.4778C12.2268 23.4477 12.0946 23.4671 11.9832 23.532C11.8719 23.5969 11.7899 23.7024 11.7544 23.8263C11.7189 23.9503 11.7327 24.0831 11.7928 24.1972C11.8529 24.3112 11.9548 24.3976 12.0771 24.4383C33.4371 28.7313 32.7431 -4.54117 11.6366 0.526829Z" fill="#595959"/>
<path d="M15.4999 20.0277C25.5899 19.6112 25.5979 5.22073 15.4999 4.80273C14.8674 4.82623 12.2009 4.95173 12.5619 5.92423C12.585 5.98569 12.62 6.04198 12.6649 6.0899C12.7098 6.13782 12.7637 6.17642 12.8235 6.20349C12.8833 6.23057 12.9478 6.24559 13.0135 6.24769C13.0791 6.24979 13.1445 6.23893 13.2059 6.21573C17.3939 4.57273 22.1959 7.90273 22.1099 12.4127C22.1939 17.2862 16.7184 20.6027 12.4474 18.2802C12.33 18.2186 12.193 18.2061 12.0664 18.2455C11.9398 18.2849 11.8341 18.3729 11.7724 18.4902C11.2344 19.5452 14.7954 20.0787 15.4999 20.0277Z" fill="#595959"/>
<path d="M20.4575 10.9506C21.3185 10.9246 20.92 9.49459 20.175 9.80909C19.635 10.0346 19.926 10.9561 20.4575 10.9506ZM15.498 6.58209C15.3654 6.58209 15.2382 6.63477 15.1444 6.72854C15.0507 6.82231 14.998 6.94949 14.998 7.08209C14.998 7.2147 15.0507 7.34188 15.1444 7.43565C15.2382 7.52942 15.3654 7.58209 15.498 7.58209C16.2491 7.57966 16.9903 7.75357 17.6619 8.08982C18.3336 8.42608 18.9169 8.91529 19.365 9.51809C19.4447 9.62418 19.5633 9.69426 19.6946 9.71292C19.826 9.73158 19.9594 9.69729 20.0655 9.61759C20.1716 9.5379 20.2417 9.41932 20.2603 9.28795C20.279 9.15658 20.2447 9.02318 20.165 8.91709C19.6241 8.18984 18.92 7.5997 18.1094 7.19415C17.2988 6.7886 16.4044 6.57896 15.498 6.58209ZM5.828 1.87109V8.67009C5.828 8.7951 5.77841 8.91501 5.69011 9.0035C5.60181 9.09198 5.48201 9.14183 5.357 9.14209C4.96694 9.14249 4.59297 9.29758 4.31711 9.57335C4.04125 9.84911 3.88603 10.223 3.8855 10.6131V24.2121C3.8855 24.3371 3.83585 24.4569 3.74747 24.5453C3.6591 24.6337 3.53923 24.6833 3.41425 24.6833C3.28927 24.6833 3.1694 24.6337 3.08103 24.5453C2.99265 24.4569 2.943 24.3371 2.943 24.2121V10.6131C2.94247 10.223 2.78725 9.84911 2.51139 9.57335C2.23553 9.29758 1.86156 9.14249 1.4715 9.14209C1.3464 9.14196 1.22648 9.09218 1.13807 9.00367C1.04966 8.91517 1 8.79519 1 8.67009V1.87109C1 1.73849 0.947321 1.61131 0.853553 1.51754C0.759785 1.42377 0.632608 1.37109 0.5 1.37109C0.367392 1.37109 0.240215 1.42377 0.146446 1.51754C0.0526783 1.61131 0 1.73849 0 1.87109V8.67009C0.00026472 9.06032 0.155366 9.4345 0.431254 9.71049C0.707142 9.98647 1.08127 10.1417 1.4715 10.1421C1.59642 10.1422 1.7162 10.1919 1.80458 10.2802C1.89296 10.3684 1.94274 10.4882 1.943 10.6131V24.2121C1.943 24.6023 2.09801 24.9765 2.37392 25.2524C2.64983 25.5283 3.02405 25.6833 3.41425 25.6833C3.80445 25.6833 4.17867 25.5283 4.45458 25.2524C4.73049 24.9765 4.8855 24.6023 4.8855 24.2121V10.6131C4.88576 10.4882 4.93554 10.3684 5.02392 10.2802C5.1123 10.1919 5.23208 10.1422 5.357 10.1421C5.74714 10.1416 6.12114 9.98628 6.39692 9.71031C6.6727 9.43434 6.82774 9.06024 6.828 8.67009V1.87109C6.828 1.73849 6.77532 1.61131 6.68155 1.51754C6.58778 1.42377 6.46061 1.37109 6.328 1.37109C6.19539 1.37109 6.06821 1.42377 5.97445 1.51754C5.88068 1.61131 5.828 1.73849 5.828 1.87109Z" fill="#595959"/>
<path d="M2.44385 8.19848C2.57646 8.19848 2.70363 8.1458 2.7974 8.05204C2.89117 7.95827 2.94385 7.83109 2.94385 7.69848V1.87048C2.94385 1.73787 2.89117 1.6107 2.7974 1.51693C2.70363 1.42316 2.57646 1.37048 2.44385 1.37048C2.31124 1.37048 2.18406 1.42316 2.09029 1.51693C1.99653 1.6107 1.94385 1.73787 1.94385 1.87048V7.69848C1.94385 7.83109 1.99653 7.95827 2.09029 8.05204C2.18406 8.1458 2.31124 8.19848 2.44385 8.19848ZM4.38685 8.19848C4.51946 8.19848 4.64663 8.1458 4.7404 8.05204C4.83417 7.95827 4.88685 7.83109 4.88685 7.69848V1.87048C4.88685 1.73787 4.83417 1.6107 4.7404 1.51693C4.64663 1.42316 4.51946 1.37048 4.38685 1.37048C4.25424 1.37048 4.12706 1.42316 4.03329 1.51693C3.93953 1.6107 3.88685 1.73787 3.88685 1.87048V7.69848C3.88685 7.83109 3.93953 7.95827 4.03329 8.05204C4.12706 8.1458 4.25424 8.19848 4.38685 8.19848ZM12.4843 10.6685L10.8613 2.55298C10.5123 0.817483 7.77135 1.05498 7.77235 2.84148V24.2115C7.77235 24.6017 7.92735 24.9759 8.20327 25.2518C8.47918 25.5277 8.8534 25.6827 9.2436 25.6827C9.6338 25.6827 10.008 25.5277 10.2839 25.2518C10.5598 24.9759 10.7148 24.6017 10.7148 24.2115V16.0425C10.7151 15.7433 10.7848 15.4482 10.9183 15.1805L12.2323 12.553C12.5224 11.97 12.611 11.3072 12.4843 10.6685ZM11.3378 12.1055C10.9013 13.1135 9.63085 15.0595 9.71485 16.0425V24.2115C9.71086 24.3338 9.65947 24.4498 9.57153 24.5349C9.48358 24.62 9.36599 24.6676 9.2436 24.6676C9.12121 24.6676 9.00361 24.62 8.91567 24.5349C8.82773 24.4498 8.77633 24.3338 8.77235 24.2115V2.84148C8.76035 2.24698 9.77635 2.18748 9.88085 2.74898L11.5038 10.865C11.5872 11.2855 11.5289 11.7217 11.3378 12.1055Z" fill="#5BB8AE"/>
</svg>
