<svg width="32" height="32" viewBox="0 0 32 32" fill="none" xmlns="http://www.w3.org/2000/svg">
<g clip-path="url(#clip0_59217_1113)">
<path d="M23.7725 20.3017C25.269 20.3012 28.4259 20.0285 31.2625 18.0125C31.4813 17.857 31.5798 17.5813 31.5051 17.3234C31.2009 16.272 30.344 13.435 29.2709 10.9434" stroke="#595959" stroke-width="0.937498" stroke-miterlimit="10" stroke-linecap="round" stroke-linejoin="round"/>
<path d="M28.3811 9.07997C27.816 8.03091 27.221 7.19572 26.6343 6.81903C26.5277 6.75053 26.4059 6.70947 26.2801 6.69397L24.312 6.45147C23.653 6.37016 23.0366 6.78934 22.8697 7.43197L22.5715 8.57928C22.3967 9.25272 22.7734 9.94672 23.4334 10.1668L24.5223 10.5295C24.6933 10.5865 24.8771 10.5928 25.0516 10.5476C25.2261 10.5024 25.3838 10.4077 25.5056 10.2748C25.6055 10.166 25.6812 10.0373 25.7276 9.89716L26.982 15.0502C26.5142 14.8019 25.8432 14.661 24.9407 14.952M26.9819 15.0502C26.9819 15.0502 27.5134 15.2737 27.7852 15.9857M7.08367 14.9613C6.16692 14.6582 5.48685 14.7994 5.01423 15.0502L6.2686 9.89722C6.31505 10.0374 6.39071 10.1661 6.4906 10.2748C6.6124 10.4077 6.77008 10.5025 6.94457 10.5477C7.11907 10.5929 7.30292 10.5866 7.47392 10.5295L8.56285 10.1669C9.22273 9.94678 9.59942 9.25278 9.42467 8.57934L9.12648 7.43203C8.95967 6.78941 8.34323 6.37022 7.68423 6.45153L5.7161 6.69403C5.59029 6.70953 5.46854 6.75059 5.36185 6.81909C3.24792 8.17647 1.02385 15.4832 0.491479 17.3228C0.416854 17.5807 0.515354 17.8564 0.734166 18.0119C1.52873 18.5766 2.34842 19.0044 3.14967 19.3278M5.11235 19.943C6.39804 20.239 7.51704 20.3018 8.24023 20.3011" stroke="#595959" stroke-width="0.937498" stroke-miterlimit="10" stroke-linecap="round" stroke-linejoin="round"/>
<path d="M21.6066 22.3219L23.5689 20.3596C25.6112 18.3172 25.6112 15.0059 23.5689 12.9635C21.5265 10.9211 18.2152 10.9211 16.1728 12.9635L15.9986 13.1377L15.8244 12.9635C13.782 10.9211 10.4707 10.9211 8.4283 12.9635C6.38593 15.0059 6.38593 18.3172 8.4283 20.3596L15.5394 27.4707C15.793 27.7243 16.2042 27.7243 16.4578 27.4707L20.1557 23.7728M5.01474 15.0495C5.01474 15.0495 4.48324 15.273 4.21143 15.985M18.4244 4.95958H17.3652V3.90039C17.3652 3.5552 17.0854 3.27539 16.7402 3.27539H15.2569C14.9117 3.27539 14.6319 3.5552 14.6319 3.90039V4.95958H13.5727C13.2275 4.95958 12.9477 5.23939 12.9477 5.58458V7.06795C12.9477 7.41314 13.2275 7.69295 13.5727 7.69295H14.6319V8.75214C14.6319 9.09733 14.9117 9.37714 15.2569 9.37714H16.7402C17.0854 9.37714 17.3652 9.09733 17.3652 8.75214V7.69295H18.4244C18.7696 7.69295 19.0494 7.41314 19.0494 7.06795V5.58458C19.0494 5.23939 18.7696 4.95958 18.4244 4.95958Z" stroke="#5BB8AE" stroke-width="0.937498" stroke-miterlimit="10" stroke-linecap="round" stroke-linejoin="round"/>
<path d="M14.1295 20.2521C14.5217 20.8718 15.2125 21.2836 16.0003 21.2836C16.788 21.2836 17.4789 20.8718 17.8711 20.2521M13.6935 17.8301V18.151M18.3072 17.8301V18.151M8.30091 24.3078H7.24172V23.2486C7.24172 22.9035 6.96191 22.6236 6.61672 22.6236H5.13341C4.78822 22.6236 4.50841 22.9035 4.50841 23.2486V24.3078H3.44922C3.10403 24.3078 2.82422 24.5876 2.82422 24.9328V26.4162C2.82422 26.7614 3.10403 27.0412 3.44922 27.0412H4.50841V28.1004C4.50841 28.4456 4.78822 28.7254 5.13341 28.7254H6.61678C6.96197 28.7254 7.24178 28.4456 7.24178 28.1004V27.0412H8.30097C8.64616 27.0412 8.92597 26.7614 8.92597 26.4162V24.9328C8.92591 24.5876 8.64609 24.3078 8.30091 24.3078ZM28.5514 24.3078H27.4922V23.2486C27.4922 22.9035 27.2124 22.6236 26.8672 22.6236H25.3838C25.0387 22.6236 24.7588 22.9035 24.7588 23.2486V24.3078H23.6997C23.3545 24.3078 23.0747 24.5876 23.0747 24.9328V26.4162C23.0747 26.7614 23.3545 27.0412 23.6997 27.0412H24.7588V28.1004C24.7588 28.4456 25.0387 28.7254 25.3838 28.7254H26.8672C27.2124 28.7254 27.4922 28.4456 27.4922 28.1004V27.0412H28.5514C28.8966 27.0412 29.1764 26.7614 29.1764 26.4162V24.9328C29.1764 24.5876 28.8966 24.3078 28.5514 24.3078Z" stroke="#595959" stroke-width="0.937498" stroke-miterlimit="10" stroke-linecap="round" stroke-linejoin="round"/>
</g>
<defs>
<clipPath id="clip0_59217_1113">
<rect width="32" height="32" fill="white"/>
</clipPath>
</defs>
</svg>
