<svg width="15" height="15" viewBox="0 0 15 15" fill="none" xmlns="http://www.w3.org/2000/svg">
<path d="M7.49992 10.0007L9.99992 7.50065M9.99992 7.50065L7.49992 5.00065M9.99992 7.50065H0.833252M4.99992 3.54114V3.50081C4.99992 2.56739 4.99992 2.10033 5.18157 1.74382C5.34136 1.43021 5.59615 1.17543 5.90975 1.01564C6.26627 0.833984 6.73333 0.833984 7.66675 0.833984H11.5001C12.4335 0.833984 12.8996 0.833984 13.2561 1.01564C13.5697 1.17543 13.8253 1.43021 13.9851 1.74382C14.1666 2.09999 14.1666 2.56648 14.1666 3.49808V11.5036C14.1666 12.4352 14.1666 12.901 13.9851 13.2572C13.8253 13.5708 13.5697 13.8261 13.2561 13.9858C12.8999 14.1673 12.4341 14.1673 11.5025 14.1673H7.66401C6.73241 14.1673 6.26592 14.1673 5.90975 13.9858C5.59615 13.8261 5.34136 13.5706 5.18157 13.257C4.99992 12.9005 4.99992 12.4341 4.99992 11.5007V11.459" stroke="#F22C2C" stroke-width="1.66667" stroke-linecap="round" stroke-linejoin="round"/>
</svg>
