<svg width="32" height="30" viewBox="0 0 32 30" fill="none" xmlns="http://www.w3.org/2000/svg">
<path d="M29.2236 2.99409L28.9631 2.73353C27.1763 0.946845 24.7936 -0.0260927 22.2541 0.00053234C19.9321 0.0228448 17.7336 0.872032 15.9996 2.40453C14.2662 0.87797 12.0507 0.0439698 9.69644 0.0439698C7.13638 0.0439698 4.74044 1.03003 2.95 2.82053L2.7765 2.99397C0.986 4.78453 0 7.1651 0 9.69728C0 12.2295 0.986063 14.61 2.77644 16.4002L4.70575 18.3295L4.3495 18.7224C3.45656 19.7073 3.49344 21.2153 4.4335 22.1555C4.92106 22.643 5.59212 22.9058 6.28075 22.8826C6.21931 23.5915 6.46825 24.3189 7.02275 24.8564C7.48506 25.3045 8.08944 25.5491 8.73075 25.5491C8.87431 25.5491 9.01781 25.5368 9.15919 25.5123C9.18811 26.1118 9.43848 26.6793 9.86181 27.1048C10.3229 27.5695 10.9334 27.8237 11.5859 27.8237C11.8064 27.8237 12.0268 27.7945 12.2394 27.7359C12.3064 28.232 12.5261 28.7115 12.899 29.1041C13.3631 29.5928 13.9899 29.8672 14.6638 29.8765C15.3295 29.8867 15.9779 29.6233 16.4494 29.1538L23.9584 21.6654C24.2029 21.4208 24.2029 21.0243 23.9583 20.7798C23.7138 20.5352 23.3172 20.5353 23.0727 20.7799L15.5659 28.2662C15.1954 28.635 14.6114 28.7293 14.1444 28.4932C13.7064 28.2717 13.4354 27.7959 13.4774 27.3061C13.5006 27.0366 13.6154 26.7805 13.7963 26.5799L18.3783 21.5682C18.6117 21.313 18.5939 20.9168 18.3387 20.6835C18.0834 20.45 17.6873 20.4678 17.4539 20.723L12.4577 26.1877C12.2379 26.4281 11.9375 26.5642 11.6118 26.5708C11.2841 26.5773 10.9804 26.4537 10.751 26.2226C10.3077 25.7757 10.293 25.0617 10.7176 24.5971L15.9201 18.9791C16.1558 18.726 16.1417 18.3297 15.8886 18.094C15.6354 17.8583 15.2391 17.8725 15.0035 18.1255L9.614 23.913C9.50517 24.0306 9.3738 24.1252 9.2277 24.191C9.08161 24.2568 8.92376 24.2926 8.76356 24.2962C8.43681 24.3038 8.12881 24.1841 7.89456 23.957C7.423 23.4999 7.40131 22.7627 7.845 22.2785L13.3263 16.2988C13.56 16.0439 13.5428 15.6478 13.2879 15.414C13.0329 15.1803 12.6368 15.1976 12.4031 15.4525L7.10619 21.2311C6.63669 21.743 5.81087 21.7612 5.31931 21.2697C4.85213 20.8024 4.83375 20.053 5.27756 19.5635L15.0296 8.80678L17.2056 10.6218C18.2914 11.5273 19.9143 11.4428 20.9001 10.4295C21.4231 9.89191 21.7031 9.15391 21.6681 8.40466C21.6332 7.65547 21.2858 6.9466 20.7151 6.45997L16.9434 3.24441C18.4333 1.97434 20.3394 1.27141 22.3067 1.25253C22.2797 1.25253 22.3339 1.25228 22.3067 1.25253C24.4767 1.25253 26.5496 2.09097 28.0775 3.61884L28.338 3.87941C29.8919 5.43328 30.7476 7.49934 30.7476 9.69703C30.7476 11.8947 29.8919 13.9606 28.338 15.5142L27.0103 16.842C26.7658 17.0865 26.7658 17.483 27.0104 17.7276C27.2549 17.9721 27.6514 17.9721 27.896 17.7276L29.2236 16.3998C31.0139 14.61 32 12.2296 32 9.69728C32 7.1651 31.014 4.78453 29.2236 2.99409ZM20.4169 8.46322C20.4361 8.87372 20.2888 9.26191 20.0023 9.55641C19.47 10.1035 18.5939 10.149 18.0077 9.66016L15.3702 7.46028C15.2461 7.35677 15.0868 7.30525 14.9256 7.31649C14.7644 7.32773 14.6137 7.40086 14.5052 7.52059L5.548 17.4005L3.662 15.5145C2.10819 13.9609 1.25244 11.895 1.25244 9.69734C1.25244 7.49972 2.10819 5.43359 3.662 3.87972L3.8355 3.70628C5.38937 2.15235 7.47081 1.29653 9.69631 1.29653C11.9218 1.29653 14.0033 2.15235 15.5571 3.70628C15.5642 3.71335 19.9023 7.41335 19.9023 7.41335C20.2151 7.67991 20.3977 8.05278 20.4169 8.46322Z" fill="#595959"/>
<path d="M25.0211 18.8205C24.785 19.0724 24.7978 19.4679 25.0495 19.704C25.3013 19.9401 25.6968 19.9274 25.933 19.6755C26.1691 19.4237 26.1563 19.0282 25.9046 18.7921C25.6528 18.556 25.2572 18.5687 25.0211 18.8205Z" fill="#5BB8AE"/>
</svg>
