<svg width="17" height="17" viewBox="0 0 17 17" fill="none" xmlns="http://www.w3.org/2000/svg">
<path d="M5 1.66667L2.5 0L0 1.66667V14.1667C0 15.5474 1.11929 16.6667 2.5 16.6667H14.1667C15.5474 16.6667 16.6667 15.5474 16.6667 14.1667V11.6667H15V1.66667L12.5 0L10 1.66667L7.5 0L5 1.66667ZM13.3333 11.6667H3.33333V14.1667C3.33333 14.6269 2.96023 15 2.5 15C2.03977 15 1.66667 14.6269 1.66667 14.1667V2.55864L2.5 2.00308L5 3.66975L7.5 2.00308L10 3.66975L12.5 2.00308L13.3333 2.55864V11.6667ZM14.1667 15H4.85774C4.94988 14.7393 5 14.4588 5 14.1667V13.3333H15V14.1667C15 14.6269 14.6269 15 14.1667 15Z" fill="#424242"/>
</svg>
