<svg width="28" height="32" viewBox="0 0 28 32" fill="none" xmlns="http://www.w3.org/2000/svg">
<path d="M15.6562 28.2051C15.3112 28.2051 15.0312 28.4851 15.0312 28.8301C15.0312 29.1751 15.3112 29.4551 15.6562 29.4551C16.0013 29.4551 16.2812 29.1751 16.2812 28.8301C16.2812 28.4851 16.0013 28.2051 15.6562 28.2051ZM6.875 12.5176C6.52981 12.5176 6.25 12.7974 6.25 13.1426V25.0801C6.25 25.4253 6.52981 25.7051 6.875 25.7051C7.22019 25.7051 7.5 25.4253 7.5 25.0801V13.1426C7.5 12.7974 7.22019 12.5176 6.875 12.5176ZM11.875 12.5176C11.5298 12.5176 11.25 12.7974 11.25 13.1426V25.0801C11.25 25.4253 11.5298 25.7051 11.875 25.7051C12.2202 25.7051 12.5 25.4253 12.5 25.0801V13.1426C12.5 12.7974 12.2202 12.5176 11.875 12.5176Z" fill="#5BB8AE"/>
<path d="M24.4375 10.0625H21.3125V8.17131C22.2922 7.43687 22.7578 6.1955 22.4817 4.96981C22.2234 3.82044 21.2746 2.88244 20.1212 2.63575C19.508 2.50419 18.8904 2.55075 18.3277 2.76469C17.7635 1.87513 16.7726 1.3125 15.6875 1.3125C15.2785 1.3125 14.8788 1.39181 14.5093 1.54444C13.4631 0.557625 12.0839 0 10.6562 0C8.76775 0 7.0065 0.962062 5.96688 2.53619C2.7 2.35544 0 4.94725 0 8.14312V15.6431C0 16.677 0.855125 17.5181 1.90625 17.5181C2.13681 17.5181 2.35775 17.4762 2.5625 17.3998V28.875C2.5625 30.5981 3.96438 32 5.6875 32H18.1875C19.9106 32 21.3125 30.5981 21.3125 28.875V27H24.4375C26.1606 27 27.5625 25.5981 27.5625 23.875V13.1875C27.5625 11.4644 26.1606 10.0625 24.4375 10.0625ZM20.0625 28.25H18.1556C17.8104 28.25 17.5306 28.5298 17.5306 28.875C17.5306 29.2202 17.8104 29.4937 18.1556 29.4937H19.955C19.697 30.2212 19.0023 30.75 18.1875 30.75H5.6875C4.87275 30.75 4.178 30.2274 3.92 29.5H13.1569C13.5021 29.5 13.7819 29.2202 13.7819 28.875C13.7819 28.5298 13.5021 28.25 13.1569 28.25H3.8125V11.2191C5.21644 11.0072 6.43213 10.123 7.07125 8.81256C7.20162 8.81256 7.3165 8.85769 7.40306 8.94263C8.10844 9.63625 9.04181 10.0182 10.0312 10.0182C11.0568 10.0182 12.0141 9.61225 12.7272 8.87475C12.7464 8.85504 12.7694 8.83939 12.7948 8.82871C12.8202 8.81803 12.8475 8.81254 12.875 8.81256C13.8479 8.81256 14.4846 9.02038 14.7673 9.43013C15.0004 9.76794 15.0002 10.2373 15 10.6145V13.1432C15 13.9579 15.5226 14.6527 16.25 14.9107V25.0807C16.25 25.4259 16.5298 25.7057 16.875 25.7057C17.2202 25.7057 17.5 25.4259 17.5 25.0807V14.9106C18.2274 14.6526 18.75 13.9579 18.75 13.1431V8.73913C19.1878 8.8265 19.6346 8.82706 20.0625 8.73956V28.25ZM18.4083 7.30919C18.313 7.2607 18.2069 7.23747 18.1001 7.24171C17.9933 7.24595 17.8893 7.27752 17.7982 7.33341C17.707 7.3893 17.6318 7.46764 17.5795 7.56093C17.5273 7.65422 17.4999 7.75934 17.4999 7.86625V13.1431C17.4999 13.4877 17.2196 13.7681 16.8749 13.7681C16.5303 13.7681 16.2499 13.4877 16.2499 13.1431V10.6149C16.2501 10.1226 16.2504 9.37869 15.7961 8.72019C15.2662 7.952 14.2834 7.5625 12.875 7.5625C12.4819 7.5625 12.1003 7.72431 11.8282 8.00619C11.3531 8.49756 10.7149 8.76812 10.0312 8.76812C9.37169 8.76812 8.74956 8.51356 8.27906 8.05081C7.95825 7.73588 7.52931 7.5625 7.07125 7.5625C6.59756 7.5625 6.15731 7.83731 5.94963 8.26262C5.42575 9.33537 4.36525 10.0081 3.18213 10.0182C2.83906 10.0211 2.56244 10.3001 2.56244 10.6432V15.6135C2.54044 15.9816 2.25425 16.2681 1.90625 16.2681C1.55056 16.2681 1.25 15.9819 1.25 15.6431V8.14312C1.25 5.73087 3.22387 3.77737 5.65044 3.77737C5.839 3.77737 6.02856 3.78938 6.218 3.81369C6.34156 3.82953 6.46703 3.80809 6.57831 3.75212C6.68959 3.69615 6.78161 3.6082 6.84256 3.49956C7.62106 2.112 9.08237 1.25 10.6562 1.25C11.8894 1.25 13.0783 1.78844 13.9179 2.72731C14.0165 2.83756 14.151 2.90928 14.2975 2.9297C14.4439 2.95013 14.5929 2.91795 14.7179 2.83888C15.0037 2.65806 15.339 2.5625 15.6875 2.5625C16.4831 2.5625 17.1943 3.06631 17.4571 3.81606C17.4886 3.90613 17.5404 3.98777 17.6084 4.05472C17.6764 4.12168 17.7588 4.17217 17.8494 4.20234C17.9399 4.2325 18.0361 4.24153 18.1307 4.22873C18.2253 4.21593 18.3157 4.18164 18.3949 4.1285C18.8209 3.84288 19.3408 3.74681 19.8592 3.85806C20.5342 4.00244 21.1111 4.57231 21.2621 5.24425C21.6179 6.82325 19.9993 8.1185 18.4083 7.30919ZM21.3125 13.8125H23.8125V23.25H21.3125V13.8125ZM26.3125 23.875C26.3125 24.9089 25.4714 25.75 24.4375 25.75H21.3125V24.5H24.4375C24.7827 24.5 25.0625 24.2202 25.0625 23.875V13.1875C25.0625 12.8423 24.7827 12.5625 24.4375 12.5625H21.3125V11.3125H24.4375C25.4714 11.3125 26.3125 12.1536 26.3125 13.1875V23.875Z" fill="#595959"/>
</svg>
