<svg width="20" height="20" viewBox="0 0 20 20" fill="none" xmlns="http://www.w3.org/2000/svg">
<path d="M15.8333 16.6673H16.6666M13.3333 16.6673H11.6666V14.1673M14.1666 14.1673H16.6666V11.6673H15.8333M11.6666 11.6673H13.3333M3.33325 14.1671C3.33325 13.3905 3.33325 13.0022 3.46012 12.696C3.62928 12.2876 3.95352 11.9633 4.3619 11.7942C4.66818 11.6673 5.05647 11.6673 5.83304 11.6673C6.60961 11.6673 6.99832 11.6673 7.30461 11.7942C7.71299 11.9633 8.03714 12.2876 8.2063 12.696C8.33317 13.0022 8.33317 13.3908 8.33317 14.1673C8.33317 14.9439 8.33317 15.3322 8.2063 15.6385C8.03714 16.0468 7.71299 16.3712 7.30461 16.5404C6.99832 16.6672 6.6096 16.6672 5.83304 16.6672C5.05647 16.6672 4.66818 16.6672 4.3619 16.5404C3.95352 16.3712 3.62928 16.0471 3.46012 15.6387C3.33325 15.3324 3.33325 14.9437 3.33325 14.1671ZM11.6666 5.83377C11.6666 5.0572 11.6666 4.66892 11.7935 4.36263C11.9626 3.95425 12.2869 3.63001 12.6952 3.46085C13.0015 3.33398 13.3898 3.33398 14.1664 3.33398C14.9429 3.33398 15.3317 3.33398 15.6379 3.46085C16.0463 3.63001 16.3705 3.95425 16.5396 4.36263C16.6665 4.66891 16.6665 5.05742 16.6665 5.83398C16.6665 6.61055 16.6665 6.99884 16.5396 7.30512C16.3705 7.7135 16.0463 8.03787 15.6379 8.20703C15.3317 8.3339 14.9429 8.3339 14.1664 8.3339C13.3898 8.3339 13.0015 8.3339 12.6952 8.20703C12.2869 8.03787 11.9626 7.71372 11.7935 7.30534C11.6666 6.99905 11.6666 6.61034 11.6666 5.83377ZM3.33325 5.83377C3.33325 5.0572 3.33325 4.66892 3.46012 4.36263C3.62928 3.95425 3.95352 3.63001 4.3619 3.46085C4.66818 3.33398 5.05647 3.33398 5.83304 3.33398C6.60961 3.33398 6.99832 3.33398 7.30461 3.46085C7.71299 3.63001 8.03714 3.95425 8.2063 4.36263C8.33317 4.66891 8.33317 5.05742 8.33317 5.83398C8.33317 6.61055 8.33317 6.99884 8.2063 7.30512C8.03714 7.7135 7.71299 8.03787 7.30461 8.20703C6.99832 8.3339 6.6096 8.3339 5.83304 8.3339C5.05647 8.3339 4.66818 8.3339 4.3619 8.20703C3.95352 8.03787 3.62928 7.71372 3.46012 7.30534C3.33325 6.99905 3.33325 6.61034 3.33325 5.83377Z" stroke="#424242" stroke-width="1.66667" stroke-linecap="round" stroke-linejoin="round"/>
</svg>
