<svg width="17" height="17" viewBox="0 0 17 17" fill="none" xmlns="http://www.w3.org/2000/svg">
<g clip-path="url(#clip0_60373_952)">
<path d="M8.33301 1.23438C8.80245 1.23438 9.18359 1.61454 9.18359 2.08398C9.18359 2.35039 9.06098 2.58765 8.86816 2.74414L8.63379 2.93457L8.75293 3.21289L10.8281 8.05469L11.0215 8.50684L11.4248 8.22461L14.4492 6.10742L14.6865 5.94141L14.6025 5.66406C14.5791 5.58654 14.5664 5.5033 14.5664 5.41699C14.5666 4.9477 14.9477 4.56738 15.417 4.56738C15.8862 4.56756 16.2664 4.94781 16.2666 5.41699C16.2666 5.79479 16.0199 6.1163 15.6777 6.22656L15.4297 6.30664L15.4023 6.56543L14.5977 14.2129C14.5744 14.4332 14.3885 14.6004 14.167 14.6006H2.5C2.27832 14.6006 2.09266 14.4333 2.06934 14.2129L1.26367 6.56543L1.2373 6.30664L0.989258 6.22656L0.865234 6.17578C0.588808 6.03526 0.400391 5.74754 0.400391 5.41699C0.400567 4.9477 0.780666 4.56738 1.25 4.56738C1.71933 4.56738 2.09943 4.9477 2.09961 5.41699C2.09961 5.5033 2.0869 5.58655 2.06348 5.66406L1.98047 5.94141L2.21777 6.10742L5.24219 8.22461L5.64551 8.50684L5.83887 8.05469L7.91406 3.21289L8.0332 2.93457L7.79785 2.74414C7.60527 2.58765 7.4834 2.35021 7.4834 2.08398C7.4834 1.61465 7.86372 1.23455 8.33301 1.23438ZM7.96582 5.29199L6.23145 9.33789C6.18006 9.45779 6.07759 9.54822 5.95215 9.58398C5.82673 9.61972 5.69182 9.5972 5.58496 9.52246L2.91602 7.6543L2.19727 7.15137L2.28906 8.02344L2.85254 13.376L2.88965 13.7344H13.7764L13.8145 13.376L14.3779 8.02344L14.4697 7.15137L13.75 7.6543L11.082 9.52246C10.9752 9.59724 10.8403 9.61965 10.7148 9.58398C10.5894 9.54823 10.486 9.45781 10.4346 9.33789L8.70117 5.29199L8.33301 4.43359L7.96582 5.29199Z" fill="#424242" stroke="#424242" stroke-width="0.8"/>
</g>
<defs>
<clipPath id="clip0_60373_952">
<rect width="16.6667" height="16.6667" fill="white"/>
</clipPath>
</defs>
</svg>
