<svg width="17" height="12" viewBox="0 0 17 12" fill="none" xmlns="http://www.w3.org/2000/svg">
<path d="M9.99992 0.833984H3.33325C2.55668 0.833984 2.16818 0.833984 1.8619 0.960852C1.45352 1.13001 1.12928 1.45466 0.960119 1.86304C0.833252 2.16932 0.833252 2.55761 0.833252 3.33418C2.21396 3.33418 3.33325 4.45308 3.33325 5.83379C3.33325 7.2145 2.21396 8.33398 0.833252 8.33398C0.833252 9.11055 0.833252 9.49884 0.960119 9.80512C1.12928 10.2135 1.45352 10.5379 1.8619 10.707C2.16818 10.8339 2.55668 10.834 3.33325 10.834H9.99992M9.99992 0.833984H13.3333C14.1098 0.833984 14.4981 0.833984 14.8044 0.960852C15.2128 1.13001 15.5371 1.45466 15.7063 1.86304C15.8332 2.16932 15.8332 2.55761 15.8332 3.33418C14.4525 3.33418 13.3333 4.45327 13.3333 5.83398C13.3333 7.2147 14.4525 8.33398 15.8332 8.33398C15.8332 9.11055 15.8332 9.49884 15.7063 9.80512C15.5371 10.2135 15.2128 10.5379 14.8044 10.707C14.4981 10.8339 14.1098 10.834 13.3333 10.834H9.99992M9.99992 0.833984V10.834" stroke="#424242" stroke-width="1.66667" stroke-linecap="round" stroke-linejoin="round"/>
</svg>
