<svg width="32" height="32" viewBox="0 0 32 32" fill="none" xmlns="http://www.w3.org/2000/svg">
<g clip-path="url(#clip0_59217_1122)">
<path d="M29.0721 9.71673C30.0178 11.6759 30.5061 13.8243 30.5001 15.9997C30.502 18.7889 29.6989 21.5193 28.1872 23.8633C26.6755 26.2073 24.5194 28.0651 21.9777 29.2138C19.4361 30.3625 16.6169 30.7533 13.8587 30.3392C11.1004 29.925 8.52031 28.7237 6.42806 26.8792L7.51406 25.7952C7.57822 25.7313 7.62383 25.6512 7.646 25.5634C7.66817 25.4756 7.66608 25.3834 7.63995 25.2967C7.61382 25.21 7.56463 25.132 7.49764 25.0711C7.43064 25.0101 7.34835 24.9685 7.25956 24.9507L3.72506 24.2422C3.64437 24.2261 3.56094 24.2301 3.48217 24.2539C3.4034 24.2777 3.33173 24.3206 3.27351 24.3788C3.2153 24.437 3.17234 24.5086 3.14845 24.5873C3.12456 24.6661 3.12047 24.7495 3.13656 24.8302L3.84006 28.3642C3.85776 28.4529 3.89918 28.5351 3.95989 28.6021C4.0206 28.6691 4.09834 28.7183 4.18483 28.7446C4.27132 28.771 4.36333 28.7733 4.45106 28.7515C4.5388 28.7297 4.61897 28.6845 4.68306 28.6207L5.71956 27.5867C7.952 29.5712 10.7106 30.8679 13.6631 31.3206C16.6156 31.7733 19.636 31.3627 22.3604 30.1382C25.0849 28.9137 27.3972 26.9275 29.0188 24.419C30.6403 21.9106 31.502 18.9867 31.5001 15.9997C31.5065 13.674 30.9844 11.3771 29.9731 9.28273L29.0721 9.71673ZM4.63806 27.2527L4.26356 25.3702L6.14656 25.7477L4.63806 27.2527ZM2.92806 22.2827C1.98233 20.3236 1.49404 18.1752 1.50006 15.9997C1.49948 13.2106 2.30348 10.4806 3.81564 8.13695C5.3278 5.79335 7.48391 3.9357 10.0254 2.7868C12.5669 1.6379 15.3858 1.24652 18.1442 1.65961C20.9025 2.0727 23.4831 3.27271 25.5766 5.11573L24.4861 6.20423C24.4219 6.26813 24.3763 6.34827 24.3541 6.43607C24.3319 6.52388 24.334 6.61606 24.3602 6.70276C24.3863 6.78947 24.4355 6.86746 24.5025 6.92839C24.5695 6.98932 24.6518 7.03091 24.7406 7.04873L28.2751 7.75723C28.3558 7.77338 28.4392 7.76937 28.518 7.74554C28.5967 7.72172 28.6684 7.67882 28.7266 7.62066C28.7848 7.56249 28.8278 7.49086 28.8517 7.41211C28.8756 7.33336 28.8796 7.24993 28.8636 7.16923L28.1601 3.63523C28.1424 3.54657 28.1009 3.46437 28.0402 3.39738C27.9795 3.33039 27.9018 3.28112 27.8153 3.2548C27.7288 3.22849 27.6368 3.22611 27.5491 3.24793C27.4613 3.26976 27.3811 3.31496 27.3171 3.37873L26.2851 4.40823C24.0514 2.42514 21.2923 1.12983 18.3397 0.678187C15.3872 0.226544 12.367 0.637817 9.6427 1.86251C6.9184 3.0872 4.60609 5.07312 2.98407 7.58124C1.36205 10.0894 0.499439 13.0128 0.500059 15.9997C0.493618 18.3255 1.01576 20.6223 2.02706 22.7167L2.92806 22.2827ZM27.3621 4.74673L27.7366 6.62923L25.8536 6.24973L27.3621 4.74673Z" fill="#595959"/>
<path d="M22.6354 25.0885H22.7094C23.1929 25.0881 23.6648 24.9406 24.0625 24.6657C24.4602 24.3908 24.7649 24.0014 24.9362 23.5493C25.1075 23.0971 25.1372 22.6036 25.0214 22.1342C24.9056 21.6647 24.6497 21.2416 24.2879 20.921L19.7724 16.9165C19.9576 16.2133 19.9473 15.4729 19.7426 14.7752C19.5379 14.0774 19.1466 13.4488 18.6108 12.9572C18.075 12.4655 17.4151 12.1295 16.7024 11.9854C15.9896 11.8413 15.2511 11.8946 14.5664 12.1395C14.4869 12.1678 14.4159 12.2157 14.3599 12.2789C14.3039 12.342 14.2648 12.4182 14.2463 12.5005C14.2277 12.5828 14.2303 12.6685 14.2537 12.7495C14.2772 12.8305 14.3207 12.9043 14.3804 12.964L15.5529 14.137L14.1389 15.551L12.9664 14.3785C12.9067 14.3188 12.8329 14.2751 12.7518 14.2516C12.6707 14.2281 12.585 14.2255 12.5026 14.244C12.4202 14.2626 12.3439 14.3017 12.2807 14.3578C12.2176 14.4138 12.1696 14.4849 12.1414 14.5645C11.8965 15.2492 11.8433 15.9878 11.9874 16.7005C12.1315 17.4133 12.4675 18.0731 12.9591 18.6089C13.4507 19.1447 14.0793 19.5362 14.777 19.7409C15.4748 19.9457 16.2152 19.9561 16.9184 19.771L20.9234 24.286C21.138 24.5305 21.4009 24.728 21.6955 24.8661C21.9901 25.0042 22.3101 25.0799 22.6354 25.0885ZM17.0794 18.6995C17.0223 18.6996 16.9657 18.7093 16.9119 18.728C16.4468 18.8951 15.9476 18.9443 15.4589 18.8712C14.9702 18.7982 14.5072 18.6051 14.1114 18.3094C13.7155 18.0136 13.3991 17.6244 13.1905 17.1764C12.9819 16.7285 12.8875 16.2358 12.9159 15.7425L13.7854 16.6125C13.8809 16.7028 14.0074 16.7532 14.1389 16.7532C14.2703 16.7532 14.3968 16.7028 14.4924 16.6125L16.6139 14.491C16.7076 14.3972 16.7603 14.2701 16.7603 14.1375C16.7603 14.0049 16.7076 13.8778 16.6139 13.784L15.7439 12.9145C16.2372 12.8861 16.7299 12.9805 17.1778 13.1891C17.6257 13.3977 18.015 13.7141 18.3108 14.11C18.6065 14.5059 18.7995 14.9688 18.8726 15.4576C18.9456 15.9463 18.8964 16.4455 18.7294 16.9105C18.696 17.0044 18.6915 17.1061 18.7163 17.2026C18.7412 17.2991 18.7943 17.3859 18.8689 17.452L23.6249 21.6695C23.7661 21.7947 23.8802 21.9475 23.9602 22.1184C24.0402 22.2894 24.0843 22.4749 24.0899 22.6635C24.0956 22.8522 24.0625 23.04 23.9929 23.2154C23.9232 23.3908 23.8184 23.5501 23.6849 23.6835C23.5524 23.8183 23.3933 23.9239 23.2176 23.9936C23.042 24.0632 22.8537 24.0954 22.6649 24.088C22.4762 24.0831 22.2905 24.0393 22.1195 23.9593C21.9486 23.8793 21.796 23.7648 21.6714 23.623L17.4534 18.8675C17.4064 18.8147 17.3488 18.7724 17.2844 18.7434C17.2199 18.7144 17.15 18.6995 17.0794 18.6995Z" fill="#595959"/>
<path d="M23.0632 18.4993C23.6377 16.8889 23.6469 15.131 23.0895 13.5146C22.5322 11.8983 21.4413 10.5197 19.9963 9.60574C18.5514 8.69173 16.8384 8.29668 15.1391 8.48555C13.4398 8.67442 11.8554 9.43597 10.6464 10.645C9.43743 11.8539 8.67588 13.4384 8.48701 15.1377C8.29814 16.8369 8.6932 18.5499 9.6072 19.9949C10.5212 21.4398 11.8997 22.5307 13.5161 23.0881C15.1324 23.6455 16.8904 23.6362 18.5007 23.0618L17.7777 22.2463C16.3881 22.645 14.9055 22.5708 13.5626 22.0353C12.2198 21.4998 11.0929 20.5333 10.3591 19.2877C9.62522 18.0421 9.32598 16.5881 9.50836 15.1539C9.69073 13.7198 10.3444 12.3869 11.3666 11.3647C12.3889 10.3424 13.7218 9.68877 15.1559 9.50639C16.59 9.32402 18.0441 9.62326 19.2897 10.3571C20.5353 11.091 21.5017 12.2178 22.0372 13.5607C22.5728 14.9035 22.647 16.3862 22.2482 17.7758L23.0632 18.4993ZM22.9787 22.9773C23.0486 22.9073 23.0962 22.8182 23.1154 22.7213C23.1347 22.6243 23.1247 22.5238 23.0869 22.4325C23.049 22.3411 22.9849 22.2631 22.9027 22.2081C22.8205 22.1532 22.7239 22.1239 22.625 22.1239C22.5261 22.1239 22.4295 22.1532 22.3473 22.2081C22.2651 22.2631 22.201 22.3411 22.1631 22.4325C22.1252 22.5238 22.1153 22.6243 22.1346 22.7213C22.1538 22.8182 22.2014 22.9073 22.2712 22.9773C22.3177 23.0238 22.3728 23.0606 22.4335 23.0858C22.4942 23.111 22.5593 23.1239 22.625 23.1239C22.6907 23.1239 22.7558 23.111 22.8165 23.0858C22.8772 23.0606 22.9323 23.0238 22.9787 22.9773Z" fill="#5BB8AE"/>
<path d="M25.5305 18.5C25.9202 18.4995 26.2937 18.3444 26.5692 18.0688C26.8447 17.7933 26.9996 17.4197 27 17.03V14.97C26.9996 14.5803 26.8447 14.2067 26.5692 13.9312C26.2937 13.6556 25.9202 13.5005 25.5305 13.5C25.4279 13.5015 25.3274 13.4705 25.2436 13.4114C25.1597 13.3523 25.0966 13.2681 25.0635 13.171C24.8932 12.6272 24.6742 12.0999 24.409 11.5955C24.3634 11.5032 24.3481 11.3988 24.3654 11.2973C24.3828 11.1958 24.4318 11.1024 24.5055 11.0305L24.5155 11.02C24.7868 10.7433 24.938 10.3707 24.9363 9.98315C24.9346 9.59561 24.7802 9.22438 24.5065 8.95L23.05 7.493C22.7699 7.22524 22.3973 7.07581 22.0098 7.07581C21.6222 7.07581 21.2496 7.22524 20.9695 7.493C20.8976 7.56664 20.8043 7.6156 20.7029 7.63285C20.6014 7.65009 20.4972 7.63474 20.405 7.589C19.9002 7.32366 19.3724 7.1046 18.828 6.9345C18.7315 6.90132 18.6478 6.8386 18.589 6.75523C18.5301 6.67185 18.499 6.57206 18.5 6.47C18.4996 6.08034 18.3447 5.70675 18.0692 5.43117C17.7937 5.15559 17.4202 5.00053 17.0305 5H14.9695C14.775 5.00085 14.5826 5.04013 14.4033 5.1156C14.224 5.19106 14.0614 5.30121 13.9249 5.43973C13.7883 5.57824 13.6805 5.74238 13.6076 5.92271C13.5346 6.10304 13.4981 6.296 13.5 6.4905C13.5017 6.58677 13.473 6.68113 13.4178 6.76006C13.3627 6.839 13.284 6.89848 13.193 6.93C12.6414 7.10093 12.1066 7.32219 11.5955 7.591C11.5027 7.63649 11.3978 7.65132 11.2959 7.63335C11.1941 7.61537 11.1007 7.56553 11.029 7.491C10.749 7.22356 10.3767 7.07433 9.9895 7.07433C9.6023 7.07433 9.23 7.22356 8.95 7.491L7.4935 8.95C7.22002 9.22435 7.06566 9.59542 7.06388 9.9828C7.06211 10.3702 7.21305 10.7426 7.484 11.0195L7.4945 11.0305C7.56817 11.1023 7.61722 11.1956 7.63465 11.297C7.65207 11.3984 7.63697 11.5027 7.5915 11.595C7.32598 12.0997 7.10659 12.6273 6.936 13.1715C6.90293 13.2685 6.83998 13.3526 6.75617 13.4116C6.67235 13.4706 6.572 13.5016 6.4695 13.5C6.07984 13.5005 5.7063 13.6556 5.43081 13.9312C5.15533 14.2067 5.0004 14.5803 5 14.97V17.03C5.0004 17.4197 5.15533 17.7933 5.43081 18.0688C5.7063 18.3444 6.07984 18.4995 6.4695 18.5C6.57211 18.4985 6.67255 18.5295 6.75644 18.5886C6.84033 18.6477 6.90336 18.7319 6.9365 18.829C7.10675 19.3728 7.32581 19.9001 7.591 20.4045C7.63665 20.4968 7.65189 20.6012 7.63456 20.7027C7.61722 20.8042 7.56819 20.8976 7.4945 20.9695L7.4845 20.98C7.21321 21.2567 7.062 21.6293 7.06368 22.0168C7.06537 22.4044 7.21981 22.7756 7.4935 23.05L8.95 24.507C9.23013 24.7748 9.60273 24.9242 9.99025 24.9242C10.3778 24.9242 10.7504 24.7748 11.0305 24.507C11.1025 24.4336 11.1958 24.3847 11.2972 24.3675C11.3986 24.3503 11.5028 24.3655 11.595 24.411C12.0998 24.6763 12.6276 24.8954 13.172 25.0655C13.2685 25.0987 13.3522 25.1614 13.411 25.2448C13.4699 25.3281 13.501 25.4279 13.5 25.53C13.5004 25.9197 13.6553 26.2933 13.9308 26.5688C14.2063 26.8444 14.5798 26.9995 14.9695 27H17.0305C17.4202 26.9995 17.7937 26.8444 18.0692 26.5688C18.3447 26.2933 18.4996 25.9197 18.5 25.53C18.4985 25.4276 18.5295 25.3274 18.5884 25.2436C18.6473 25.1598 18.7311 25.0968 18.828 25.0635C19.1945 24.9457 19.5535 24.8058 19.903 24.6445L19.209 23.8625C18.986 23.954 18.759 24.0375 18.5305 24.109C18.2292 24.2042 17.9664 24.3937 17.7809 24.6495C17.5953 24.9054 17.4969 25.214 17.5 25.53C17.4999 25.6545 17.4504 25.7739 17.3624 25.862C17.2744 25.9501 17.155 25.9997 17.0305 26H14.9695C14.845 25.9997 14.7256 25.9501 14.6376 25.862C14.5496 25.7739 14.5001 25.6545 14.5 25.53C14.5031 25.214 14.4047 24.9054 14.2191 24.6495C14.0336 24.3937 13.7708 24.2042 13.4695 24.109C12.9832 23.9568 12.5116 23.761 12.0605 23.524C11.8509 23.4133 11.6175 23.3554 11.3805 23.3555C11.1835 23.3562 10.9886 23.3957 10.807 23.4719C10.6253 23.5481 10.4605 23.6595 10.322 23.7995C10.2324 23.8849 10.1133 23.9325 9.9895 23.9325C9.86569 23.9325 9.74663 23.8849 9.657 23.7995L8.2 22.343C8.11213 22.2547 8.0628 22.1351 8.0628 22.0105C8.0628 21.8859 8.11213 21.7663 8.2 21.678C8.2037 21.6749 8.20706 21.6714 8.21 21.6675C8.43275 21.4453 8.57865 21.1578 8.62642 20.8468C8.67418 20.5359 8.6213 20.2178 8.4755 19.939C8.23836 19.4881 8.04256 19.0167 7.8905 18.5305C7.79528 18.2292 7.6058 17.9664 7.34998 17.7809C7.09415 17.5953 6.7855 17.4969 6.4695 17.5C6.34498 17.4997 6.22563 17.4501 6.13763 17.362C6.04962 17.2739 6.00013 17.1545 6 17.03V14.97C6.00013 14.8455 6.04962 14.7261 6.13763 14.638C6.22563 14.5499 6.34498 14.5003 6.4695 14.5C6.78546 14.5032 7.09409 14.4049 7.34993 14.2194C7.60576 14.034 7.79526 13.7713 7.8905 13.47C8.04291 12.9834 8.23904 12.5117 8.4765 12.0605C8.62189 11.7818 8.67459 11.464 8.62693 11.1533C8.57927 10.8427 8.43374 10.5553 8.2115 10.333L8.2005 10.322C8.11263 10.2337 8.0633 10.1141 8.0633 9.9895C8.0633 9.86489 8.11263 9.74535 8.2005 9.657L9.657 8.2C9.74645 8.11384 9.86581 8.0657 9.99 8.0657C10.1142 8.0657 10.2336 8.11384 10.323 8.2C10.5451 8.42582 10.8339 8.57434 11.1468 8.62367C11.4597 8.673 11.7802 8.62053 12.061 8.474C12.5179 8.23375 12.9959 8.03592 13.489 7.883C13.7875 7.78825 14.0473 7.5994 14.2296 7.34469C14.4118 7.08998 14.5067 6.78312 14.5 6.47C14.5001 6.34548 14.5496 6.22608 14.6376 6.13798C14.7256 6.04988 14.845 6.00026 14.9695 6H17.0305C17.155 6.00026 17.2744 6.04988 17.3624 6.13798C17.4504 6.22608 17.4999 6.34548 17.5 6.47C17.4969 6.786 17.5953 7.09465 17.7809 7.35048C17.9664 7.6063 18.2292 7.79578 18.5305 7.891C19.0168 8.04317 19.4884 8.23897 19.9395 8.476C20.2205 8.62262 20.5412 8.675 20.8543 8.62539C21.1673 8.57578 21.4561 8.42682 21.678 8.2005C21.7676 8.11509 21.8867 8.06745 22.0105 8.06745C22.1343 8.06745 22.2534 8.11509 22.343 8.2005L23.8 9.657C23.8879 9.74535 23.9372 9.86489 23.9372 9.9895C23.9372 10.1141 23.8879 10.2337 23.8 10.322C23.7963 10.3251 23.7929 10.3286 23.79 10.3325C23.5673 10.5547 23.4213 10.8422 23.3736 11.1532C23.3258 11.4641 23.3787 11.7822 23.5245 12.061C23.7616 12.5119 23.9574 12.9833 24.1095 13.4695C24.2047 13.7708 24.3942 14.0336 24.65 14.2191C24.9059 14.4047 25.2145 14.5031 25.5305 14.5C25.655 14.5003 25.7744 14.5499 25.8624 14.638C25.9504 14.7261 25.9999 14.8455 26 14.97V17.03C25.9993 17.0933 25.986 17.1557 25.9608 17.2138C25.9357 17.2718 25.8992 17.3243 25.8535 17.3681C25.8078 17.4118 25.7539 17.4461 25.6948 17.4687C25.6357 17.4914 25.5727 17.502 25.5095 17.5C25.1999 17.4994 24.8981 17.597 24.6474 17.7788C24.3968 17.9605 24.2102 18.2171 24.1145 18.5115C24.041 18.7474 23.9576 18.9801 23.8645 19.209L24.644 19.9C24.8089 19.5445 24.9512 19.1789 25.07 18.8055C25.1039 18.7119 25.1669 18.6317 25.2498 18.5767C25.3327 18.5217 25.4311 18.4948 25.5305 18.5Z" fill="#595959"/>
</g>
<defs>
<clipPath id="clip0_59217_1122">
<rect width="32" height="32" fill="white"/>
</clipPath>
</defs>
</svg>
