<svg width="20" height="20" viewBox="0 0 20 20" fill="none" xmlns="http://www.w3.org/2000/svg">
<path d="M16.9583 7.43675L16.6531 7.26698C16.6057 7.24061 16.5824 7.22738 16.5595 7.21367C16.332 7.07735 16.1401 6.88901 16.0002 6.66367C15.9861 6.64099 15.9728 6.61722 15.9457 6.57022C15.9186 6.52329 15.9048 6.49951 15.8922 6.47596C15.7666 6.24153 15.6987 5.98027 15.6947 5.71436C15.6943 5.68763 15.6943 5.66032 15.6953 5.60601L15.7012 5.25163C15.7108 4.68452 15.7156 4.40009 15.6359 4.14483C15.5651 3.91809 15.4466 3.70925 15.2885 3.53202C15.1097 3.33169 14.8623 3.18876 14.3669 2.90328L13.9554 2.66615C13.4613 2.38146 13.2142 2.23907 12.9519 2.18478C12.7199 2.13676 12.4804 2.13898 12.2492 2.19089C11.9883 2.24947 11.7443 2.39557 11.2566 2.68761L11.2538 2.68893L10.9589 2.86548C10.9123 2.8934 10.8887 2.90747 10.8653 2.92046C10.6334 3.0494 10.3746 3.12069 10.1094 3.1292C10.0826 3.13006 10.0555 3.13006 10.0011 3.13006C9.94706 3.13006 9.91871 3.13006 9.89204 3.1292C9.62627 3.12065 9.36685 3.04897 9.13459 2.91951C9.11118 2.90646 9.08803 2.89227 9.04131 2.86423L8.74458 2.68608C8.25352 2.39128 8.00762 2.24365 7.74523 2.18478C7.51309 2.1327 7.27281 2.13126 7.03992 2.1799C6.77696 2.23482 6.5298 2.37827 6.03549 2.66517L6.03329 2.66615L5.6269 2.90201L5.6224 2.90476C5.13254 3.18907 4.88701 3.33157 4.70975 3.53109C4.55245 3.70814 4.43487 3.91665 4.3645 4.14279C4.28495 4.3984 4.28919 4.68344 4.29878 5.25322L4.30473 5.60711C4.30563 5.6607 4.3072 5.68733 4.30681 5.71368C4.30286 5.98013 4.23405 6.24192 4.10812 6.47678C4.09567 6.5 4.08225 6.52323 4.05545 6.56962C4.02863 6.61605 4.01565 6.63913 4.00174 6.66154C3.86114 6.88808 3.66845 7.07753 3.43944 7.21408C3.41679 7.22759 3.39292 7.24058 3.34601 7.26657L3.04471 7.43354C2.5434 7.71135 2.29281 7.85038 2.11046 8.04822C1.94915 8.22325 1.82729 8.43085 1.75291 8.65695C1.66882 8.91253 1.66889 9.19913 1.6702 9.77227L1.67126 10.2407C1.67255 10.81 1.67433 11.0945 1.7586 11.3483C1.83316 11.5729 1.95412 11.7793 2.11453 11.9533C2.29585 12.1499 2.54395 12.2881 3.04145 12.5648L3.34007 12.731C3.39089 12.7592 3.41646 12.7732 3.44097 12.7879C3.6679 12.9246 3.85908 13.1135 3.99848 13.3388C4.01354 13.3631 4.028 13.3883 4.05691 13.4389C4.08547 13.4887 4.10007 13.5137 4.11328 13.5387C4.23551 13.7701 4.30095 14.0272 4.30541 14.2889C4.30589 14.3171 4.30548 14.3457 4.30451 14.4032L4.29878 14.7428C4.28912 15.3145 4.28492 15.6007 4.36494 15.8571C4.43572 16.0838 4.55403 16.2926 4.71219 16.4699C4.89096 16.6702 5.13879 16.813 5.63423 17.0985L6.04565 17.3356C6.53969 17.6203 6.78662 17.7625 7.04891 17.8168C7.28095 17.8648 7.52054 17.863 7.75174 17.8111C8.01305 17.7524 8.2579 17.6058 8.74702 17.3129L9.04187 17.1364C9.08852 17.1084 9.11214 17.0944 9.13551 17.0814C9.36741 16.9525 9.62603 16.8808 9.89123 16.8723C9.91795 16.8715 9.94514 16.8715 9.9995 16.8715C10.054 16.8715 10.0812 16.8715 10.1079 16.8723C10.3737 16.8809 10.6339 16.9528 10.8662 17.0822C10.8866 17.0936 10.9071 17.1059 10.943 17.1275L11.2565 17.3157C11.7476 17.6106 11.993 17.7578 12.2554 17.8166C12.4875 17.8687 12.728 17.8708 12.9609 17.8222C13.2238 17.7673 13.4714 17.6235 13.9655 17.3368L14.378 17.0974C14.8682 16.8129 15.1139 16.6703 15.2913 16.4707C15.4486 16.2936 15.5663 16.0852 15.6367 15.8591C15.7156 15.6053 15.7109 15.3225 15.7014 14.7609L15.6953 14.3947C15.6944 14.3411 15.6943 14.3144 15.6946 14.2881C15.6986 14.0216 15.7663 13.7596 15.8922 13.5248C15.9046 13.5016 15.9182 13.4782 15.9449 13.4319C15.9717 13.3855 15.9856 13.3624 15.9995 13.34C16.1401 13.1134 16.333 12.9238 16.562 12.7873C16.5843 12.7739 16.6074 12.7612 16.6532 12.7358L16.6547 12.7351L16.956 12.5681C17.4573 12.2903 17.7084 12.1511 17.8908 11.9533C18.0521 11.7782 18.1738 11.5709 18.2482 11.3448C18.3317 11.0907 18.3311 10.8058 18.3298 10.2394L18.3287 9.76087C18.3274 9.19156 18.3267 8.90714 18.2425 8.65329C18.1679 8.42871 18.0463 8.22232 17.8859 8.04835C17.7047 7.8519 17.4563 7.71369 16.9597 7.43746L16.9583 7.43675Z" stroke="#424242" stroke-width="1.66667" stroke-linecap="round" stroke-linejoin="round"/>
<path d="M6.66694 10.0009C6.66694 11.8419 8.15933 13.3343 10.0003 13.3343C11.8412 13.3343 13.3336 11.8419 13.3336 10.0009C13.3336 8.16 11.8412 6.66761 10.0003 6.66761C8.15933 6.66761 6.66694 8.16 6.66694 10.0009Z" stroke="#424242" stroke-width="1.66667" stroke-linecap="round" stroke-linejoin="round"/>
</svg>
