<svg width="32" height="32" viewBox="0 0 32 32" fill="none" xmlns="http://www.w3.org/2000/svg">
<path d="M27.6662 19.25C27.7988 19.25 27.926 19.1973 28.0198 19.1036C28.1135 19.0098 28.1662 18.8826 28.1662 18.75V18.5C28.1662 18.3674 28.1135 18.2402 28.0198 18.1464C27.926 18.0527 27.7988 18 27.6662 18C27.5336 18 27.4064 18.0527 27.3127 18.1464C27.2189 18.2402 27.1662 18.3674 27.1662 18.5V18.75C27.1662 18.8826 27.2189 19.0098 27.3127 19.1036C27.4064 19.1973 27.5336 19.25 27.6662 19.25ZM27.1662 21C27.1662 21.1326 27.2189 21.2598 27.3127 21.3536C27.4064 21.4473 27.5336 21.5 27.6662 21.5C27.7988 21.5 27.926 21.4473 28.0198 21.3536C28.1135 21.2598 28.1662 21.1326 28.1662 21V20.75C28.1662 20.6174 28.1135 20.4902 28.0198 20.3964C27.926 20.3027 27.7988 20.25 27.6662 20.25C27.5336 20.25 27.4064 20.3027 27.3127 20.3964C27.2189 20.4902 27.1662 20.6174 27.1662 20.75V21ZM27.1662 23.25C27.1662 23.3826 27.2189 23.5098 27.3127 23.6036C27.4064 23.6973 27.5336 23.75 27.6662 23.75C27.7988 23.75 27.926 23.6973 28.0198 23.6036C28.1135 23.5098 28.1662 23.3826 28.1662 23.25V23C28.1662 22.8674 28.1135 22.7402 28.0198 22.6464C27.926 22.5527 27.7988 22.5 27.6662 22.5C27.5336 22.5 27.4064 22.5527 27.3127 22.6464C27.2189 22.7402 27.1662 22.8674 27.1662 23V23.25ZM27.1662 25.5C27.1662 25.6326 27.2189 25.7598 27.3127 25.8536C27.4064 25.9473 27.5336 26 27.6662 26C27.7988 26 27.926 25.9473 28.0198 25.8536C28.1135 25.7598 28.1662 25.6326 28.1662 25.5V25.25C28.1662 25.1174 28.1135 24.9902 28.0198 24.8964C27.926 24.8027 27.7988 24.75 27.6662 24.75C27.5336 24.75 27.4064 24.8027 27.3127 24.8964C27.2189 24.9902 27.1662 25.1174 27.1662 25.25V25.5ZM24.474 18.2865L24.2807 17.875L24.0875 18.2865L23.6557 18.3522L23.9682 18.6728L23.8945 19.125L24.2807 18.9115L24.667 19.125L24.5932 18.6728L24.9057 18.3522L24.474 18.2865ZM24.474 25.2747L24.2807 24.8633L24.0875 25.2747L23.6557 25.3405L23.9682 25.6612L23.8945 26.1133L24.2807 25.8997L24.667 26.1133L24.5932 25.6612L24.9057 25.3405L24.474 25.2747ZM22.04 21.326C22.0111 21.2373 21.958 21.1584 21.8866 21.0982C21.8153 21.038 21.7286 20.999 21.6362 20.9855L20.2965 20.7908L19.9745 20.138L17.1995 22.4368L17.5545 22.783L17.326 24.1173C17.3102 24.2092 17.3205 24.3036 17.3557 24.39C17.3908 24.4764 17.4494 24.5512 17.5249 24.606C17.6003 24.6609 17.6896 24.6935 17.7826 24.7002C17.8756 24.707 17.9686 24.6876 18.0512 24.6443L19.2495 24.0142L20.4477 24.6443C20.5304 24.6871 20.6234 24.7062 20.7163 24.6995C20.8092 24.6928 20.8985 24.6605 20.9742 24.6063C21.0497 24.5514 21.1083 24.4766 21.1435 24.3901C21.1786 24.3037 21.1888 24.2092 21.173 24.1173L20.9442 22.783L21.913 21.8385C21.9798 21.7734 22.0271 21.6909 22.0495 21.6003C22.0719 21.5098 22.0685 21.4147 22.0397 21.326H22.04ZM20.0577 22.25C19.9996 22.3065 19.9562 22.3764 19.9311 22.4535C19.9061 22.5306 19.9002 22.6126 19.914 22.6925L20.0157 23.287L19.482 23.0063C19.4102 22.9685 19.3303 22.9488 19.2492 22.9488C19.1681 22.9488 19.0883 22.9685 19.0165 23.0063L18.4827 23.287L18.5845 22.6925C18.5982 22.6126 18.5923 22.5306 18.5673 22.4535C18.5422 22.3764 18.4988 22.3065 18.4407 22.25L18.009 21.829L18.6062 21.7425C18.6865 21.7308 18.7627 21.6998 18.8283 21.6521C18.8939 21.6044 18.9469 21.5415 18.9827 21.4688L19.2492 20.9282L19.5157 21.4688C19.5516 21.5415 19.6046 21.6044 19.6702 21.6521C19.7358 21.6998 19.812 21.7308 19.8922 21.7425L20.4895 21.829L20.0577 22.25Z" fill="#595959"/>
<path d="M31.4999 18.8746C31.6325 18.8746 31.7597 18.8219 31.8535 18.7281C31.9472 18.6344 31.9999 18.5072 31.9999 18.3746V16.9996C31.9995 16.6019 31.8413 16.2206 31.5601 15.9394C31.2789 15.6582 30.8976 15.5001 30.4999 15.4996H25.5737L24.3667 16.4996H27.1667C27.1667 16.6322 27.2193 16.7594 27.3131 16.8531C27.4069 16.9469 27.5341 16.9996 27.6667 16.9996C27.7993 16.9996 27.9265 16.9469 28.0202 16.8531C28.114 16.7594 28.1667 16.6322 28.1667 16.4996H30.4999C30.6325 16.4998 30.7595 16.5525 30.8533 16.6463C30.947 16.74 30.9997 16.867 30.9999 16.9996V17.9473C30.6387 18.0551 30.322 18.2765 30.0968 18.5787C29.8715 18.8809 29.7499 19.2477 29.7499 19.6246C29.7499 20.0015 29.8715 20.3683 30.0968 20.6705C30.322 20.9727 30.6387 21.1941 30.9999 21.3018V22.6973C30.6387 22.8051 30.322 23.0265 30.0968 23.3287C29.8715 23.6309 29.7499 23.9977 29.7499 24.3746C29.7499 24.7515 29.8715 25.1183 30.0968 25.4205C30.322 25.7227 30.6387 25.9441 30.9999 26.0518V26.9996C30.9997 27.1321 30.947 27.2592 30.8533 27.3529C30.7595 27.4466 30.6325 27.4994 30.4999 27.4996H28.1667C28.1667 27.367 28.114 27.2398 28.0202 27.146C27.9265 27.0523 27.7993 26.9996 27.6667 26.9996C27.5341 26.9996 27.4069 27.0523 27.3131 27.146C27.2193 27.2398 27.1667 27.367 27.1667 27.4996H11.0882L9.88091 28.4996H30.4999C30.8976 28.4991 31.2789 28.3409 31.5601 28.0597C31.8413 27.7785 31.9995 27.3973 31.9999 26.9996V25.6246C31.9999 25.492 31.9472 25.3648 31.8535 25.271C31.7597 25.1773 31.6325 25.1246 31.4999 25.1246C31.301 25.1246 31.1102 25.0456 30.9696 24.9049C30.8289 24.7643 30.7499 24.5735 30.7499 24.3746C30.7499 24.1757 30.8289 23.9849 30.9696 23.8443C31.1102 23.7036 31.301 23.6246 31.4999 23.6246C31.6325 23.6246 31.7597 23.5719 31.8535 23.4781C31.9472 23.3844 31.9999 23.2572 31.9999 23.1246V20.8746C31.9999 20.742 31.9472 20.6148 31.8535 20.521C31.7597 20.4273 31.6325 20.3746 31.4999 20.3746C31.301 20.3746 31.1102 20.2956 30.9696 20.1549C30.8289 20.0143 30.7499 19.8235 30.7499 19.6246C30.7499 19.4257 30.8289 19.2349 30.9696 19.0943C31.1102 18.9536 31.301 18.8746 31.4999 18.8746ZM26.1614 11.7758L25.2967 10.7133C25.255 10.6622 25.2036 10.6198 25.1455 10.5886C25.0873 10.5574 25.0236 10.538 24.9579 10.5316C24.8922 10.5248 24.8259 10.5312 24.7628 10.5506C24.6996 10.5699 24.641 10.6017 24.5904 10.6441C24.438 10.7648 24.2446 10.8215 24.0511 10.8023C23.8577 10.783 23.6793 10.6892 23.5537 10.5408C23.4284 10.3863 23.369 10.1886 23.3883 9.99061C23.4076 9.7926 23.504 9.61012 23.6567 9.48259C23.7581 9.39835 23.8222 9.27748 23.8349 9.14625C23.8477 9.01503 23.8082 8.88406 23.7249 8.78184L22.3099 7.04309C22.2683 6.99186 22.2169 6.9494 22.1588 6.91816C22.1006 6.88692 22.0369 6.86752 21.9712 6.86109C21.9055 6.85422 21.8391 6.86064 21.776 6.87997C21.7128 6.8993 21.6542 6.93114 21.6037 6.97359C21.4514 7.0945 21.2581 7.15142 21.0647 7.13229C20.8712 7.11315 20.6928 7.01948 20.5672 6.87109C20.4419 6.71646 20.3824 6.51879 20.4016 6.32072C20.4208 6.12266 20.5171 5.94006 20.6697 5.81234C20.7713 5.72824 20.8355 5.60742 20.8484 5.47617C20.8614 5.34492 20.8219 5.21388 20.7387 5.11159L19.8739 4.04959C19.7502 3.89705 19.5975 3.77057 19.4245 3.67747C19.2516 3.58436 19.0619 3.52648 18.8665 3.50719C18.671 3.48789 18.4737 3.50755 18.2859 3.56504C18.0981 3.62252 17.9236 3.71669 17.7724 3.84209L0.541912 18.1153C0.237679 18.3693 0.0455765 18.7327 0.00712335 19.1271C-0.0313298 19.5215 0.0869544 19.9152 0.336412 20.2231L1.20141 21.2856C1.2431 21.3368 1.29452 21.3792 1.35269 21.4104C1.41087 21.4416 1.47465 21.461 1.54036 21.4675C1.60607 21.4739 1.6724 21.4673 1.73553 21.4479C1.79865 21.4286 1.85733 21.397 1.90816 21.3548C2.06043 21.2341 2.25371 21.1774 2.44707 21.1966C2.64044 21.2159 2.81872 21.3097 2.94416 21.4581C3.06946 21.6126 3.12894 21.8102 3.10976 22.0082C3.09058 22.2062 2.99428 22.3887 2.84166 22.5163C2.74011 22.6005 2.6759 22.7213 2.66302 22.8526C2.65015 22.9838 2.68964 23.1148 2.77291 23.2171L4.18791 24.9558C4.22963 25.007 4.28106 25.0495 4.33925 25.0807C4.39743 25.1119 4.46123 25.1313 4.52694 25.1378C4.59266 25.1442 4.65901 25.1376 4.72216 25.1183C4.78532 25.099 4.84403 25.0674 4.89491 25.0253C5.04702 24.9045 5.24022 24.8476 5.43356 24.8667C5.6269 24.8858 5.80519 24.9795 5.93066 25.1278C6.05589 25.2825 6.11535 25.4801 6.09622 25.6781C6.0771 25.8762 5.98092 26.0588 5.82841 26.1866C5.72686 26.2707 5.66265 26.3916 5.64977 26.5228C5.6369 26.6541 5.67639 26.7851 5.75966 26.8873L6.62391 27.9493C6.74757 28.1019 6.90028 28.2285 7.07319 28.3217C7.2461 28.4148 7.43578 28.4728 7.63124 28.4921C7.82669 28.5115 8.02405 28.4918 8.21187 28.4344C8.39969 28.3769 8.57424 28.2827 8.72541 28.1573L25.9559 13.8833C26.2602 13.6294 26.4524 13.2659 26.4908 12.8715C26.5293 12.477 26.411 12.0833 26.1614 11.7753V11.7758ZM25.3177 13.1136L23.5327 14.5926C23.4452 14.5045 23.3279 14.4523 23.2038 14.4462C23.0798 14.4402 22.958 14.4808 22.8624 14.56C22.7667 14.6392 22.7041 14.7513 22.6869 14.8742C22.6697 14.9972 22.6992 15.1222 22.7694 15.2246L10.5144 25.3771C10.4269 25.2888 10.3095 25.2365 10.1854 25.2304C10.0612 25.2244 9.93929 25.265 9.84359 25.3443C9.7479 25.4237 9.68536 25.5359 9.6683 25.6591C9.65124 25.7822 9.68089 25.9072 9.75141 26.0096L8.08791 27.3876C7.98742 27.4694 7.85861 27.5081 7.72967 27.4951C7.60073 27.4822 7.48216 27.4187 7.39991 27.3186L6.80241 26.5848C7.01073 26.272 7.11376 25.9008 7.09649 25.5254C7.07922 25.1499 6.94257 24.7897 6.70641 24.4973C6.47072 24.2063 6.14691 23.9996 5.78366 23.9084C5.42042 23.8172 5.03739 23.8464 4.69216 23.9916L3.81591 22.9146C4.02446 22.6018 4.1276 22.2306 4.11029 21.855C4.09297 21.4795 3.95611 21.1193 3.71966 20.8271C3.48389 20.5361 3.16008 20.3295 2.79687 20.2383C2.43366 20.1472 2.05066 20.1763 1.70541 20.3213L1.11166 19.5921C1.02797 19.4889 0.988234 19.357 1.00105 19.2248C1.01387 19.0926 1.07821 18.9707 1.18016 18.8856L2.83441 17.5153C2.91987 17.6145 3.04082 17.6763 3.17129 17.6872C3.30176 17.6982 3.43134 17.6576 3.53217 17.5741C3.63301 17.4906 3.69706 17.3708 3.71057 17.2406C3.72408 17.1104 3.68596 16.98 3.60441 16.8776L15.8529 6.73059C15.9388 6.82833 16.0594 6.88874 16.1891 6.89898C16.3189 6.90922 16.4475 6.86849 16.5476 6.78544C16.6478 6.70239 16.7116 6.58356 16.7256 6.45419C16.7396 6.32482 16.7026 6.1951 16.6224 6.09259L18.4099 4.61184C18.5103 4.52979 18.6392 4.49095 18.7683 4.50384C18.8973 4.51673 19.0159 4.5803 19.0982 4.68059L19.6957 5.41434C19.4872 5.72712 19.3841 6.0983 19.4013 6.47379C19.4185 6.84928 19.5552 7.20946 19.7914 7.50184C20.0272 7.7929 20.3511 7.99956 20.7144 8.09076C21.0778 8.18196 21.4609 8.15277 21.8062 8.00759L22.6819 9.08459C22.4734 9.39738 22.3703 9.76861 22.3876 10.1441C22.4049 10.5196 22.5418 10.8798 22.7782 11.1721C23.014 11.463 23.3378 11.6696 23.701 11.7608C24.0642 11.852 24.4472 11.8229 24.7924 11.6778L25.3862 12.4071C25.4699 12.5102 25.5096 12.6422 25.4968 12.7744C25.484 12.9066 25.4196 13.0284 25.3177 13.1136Z" fill="#595959"/>
<path d="M7.70964 21.9225C7.6682 21.8716 7.61712 21.8293 7.55932 21.7981C7.50153 21.7669 7.43816 21.7473 7.37282 21.7406C7.30748 21.7339 7.24146 21.7401 7.17853 21.7589C7.11559 21.7777 7.05697 21.8087 7.00602 21.8501C6.95507 21.8916 6.91278 21.9427 6.88156 22.0005C6.85035 22.0583 6.83083 22.1216 6.82411 22.187C6.81739 22.2523 6.8236 22.3183 6.84239 22.3813C6.86119 22.4442 6.8922 22.5028 6.93364 22.5538L7.09139 22.7475C7.17597 22.8492 7.29697 22.9137 7.42849 22.9272C7.56002 22.9408 7.69162 22.9023 7.79514 22.82C7.89799 22.7362 7.96337 22.6151 7.97691 22.4831C7.99046 22.3511 7.95107 22.2192 7.86739 22.1163L7.70964 21.9225ZM9.12989 23.6675C9.08845 23.6166 9.03737 23.5743 8.97958 23.5431C8.92178 23.5119 8.85841 23.4923 8.79307 23.4856C8.72773 23.4789 8.66171 23.4851 8.59878 23.5039C8.53584 23.5227 8.47722 23.5537 8.42627 23.5951C8.37532 23.6366 8.33303 23.6877 8.30181 23.7455C8.2706 23.8033 8.25108 23.8666 8.24436 23.932C8.23764 23.9973 8.24385 24.0633 8.26264 24.1263C8.28144 24.1892 8.31245 24.2478 8.35389 24.2988L8.51139 24.4928C8.596 24.5944 8.71702 24.6588 8.84854 24.6723C8.98007 24.6858 9.11166 24.6473 9.21514 24.565C9.31803 24.4813 9.38345 24.3601 9.39705 24.2282C9.41064 24.0962 9.37129 23.9642 9.28764 23.8613L9.12989 23.6675ZM6.28939 20.1773C6.24846 20.1249 6.19749 20.0812 6.13948 20.0488C6.08146 20.0164 6.01756 19.9958 5.95151 19.9884C5.88547 19.9809 5.8186 19.9867 5.75481 20.0054C5.69103 20.0241 5.63162 20.0553 5.58005 20.0973C5.52848 20.1392 5.48578 20.191 5.45447 20.2496C5.42315 20.3083 5.40383 20.3725 5.39765 20.4387C5.39147 20.5049 5.39854 20.5716 5.41846 20.635C5.43837 20.6985 5.47073 20.7573 5.51364 20.808L5.67114 21.0023C5.7556 21.104 5.87657 21.1686 6.00809 21.1821C6.13962 21.1957 6.27121 21.1571 6.37464 21.0748C6.42561 21.0333 6.46791 20.9823 6.49913 20.9245C6.53036 20.8667 6.5499 20.8034 6.55663 20.738C6.56336 20.6727 6.55716 20.6067 6.53837 20.5438C6.51959 20.4808 6.48859 20.4222 6.44714 20.3713L6.28939 20.1773ZM4.86914 18.432C4.78543 18.3292 4.66429 18.2637 4.53236 18.2502C4.40043 18.2366 4.26851 18.2761 4.16564 18.3598C4.06277 18.4435 3.99737 18.5646 3.98382 18.6966C3.97027 18.8285 4.00969 18.9604 4.09339 19.0633L4.25089 19.257C4.3346 19.3599 4.45576 19.4254 4.58772 19.4389C4.71967 19.4525 4.85162 19.4131 4.95452 19.3294C5.05742 19.2457 5.12286 19.1245 5.13643 18.9926C5.15 18.8606 5.1106 18.7287 5.02689 18.6258L4.86914 18.432ZM19.3934 10.29C19.4962 10.2063 19.5616 10.0852 19.5752 9.95327C19.5888 9.82137 19.5495 9.68947 19.4659 9.58652L19.3079 9.39252C19.2242 9.28965 19.103 9.22426 18.971 9.21074C18.8391 9.19721 18.7071 9.23666 18.6043 9.3204C18.5014 9.40414 18.436 9.52532 18.4225 9.65727C18.409 9.78923 18.4484 9.92115 18.5321 10.024L18.6896 10.2178C18.7742 10.3195 18.8952 10.384 19.0267 10.3976C19.1583 10.4111 19.2899 10.3723 19.3934 10.29ZM22.1481 12.883C22.0644 12.7801 21.9432 12.7147 21.8112 12.7011C21.6793 12.6876 21.5473 12.727 21.4444 12.8108C21.3415 12.8945 21.2761 13.0157 21.2625 13.1477C21.249 13.2797 21.2884 13.4116 21.3721 13.5145L21.5299 13.7083C21.6144 13.81 21.7354 13.8745 21.867 13.8881C21.9985 13.9016 22.1301 13.8631 22.2336 13.7808C22.3365 13.697 22.4019 13.5758 22.4154 13.4439C22.429 13.3119 22.3896 13.18 22.3059 13.077L22.1481 12.883ZM20.7276 11.1375C20.6862 11.0866 20.6351 11.0444 20.5773 11.0132C20.5195 10.9821 20.4561 10.9626 20.3908 10.9559C20.3254 10.9493 20.2594 10.9556 20.1965 10.9744C20.1336 10.9932 20.075 11.0243 20.0241 11.0658C19.9732 11.1073 19.931 11.1584 19.8999 11.2162C19.8687 11.274 19.8492 11.3373 19.8426 11.4027C19.8359 11.468 19.8422 11.534 19.861 11.5969C19.8799 11.6598 19.9109 11.7184 19.9524 11.7693L20.1101 11.963C20.1949 12.0644 20.3159 12.1287 20.4474 12.1421C20.5788 12.1556 20.7104 12.1172 20.8139 12.035C20.9167 11.9512 20.982 11.83 20.9955 11.698C21.009 11.566 20.9694 11.4341 20.8856 11.3313L20.7276 11.1375ZM17.8879 7.64752C17.8043 7.54462 17.6832 7.47916 17.5512 7.46554C17.4193 7.45192 17.2874 7.49125 17.1845 7.5749C17.0816 7.65854 17.0162 7.77964 17.0025 7.91154C16.9889 8.04345 17.0283 8.17537 17.1119 8.27827L17.2696 8.47252C17.3111 8.52348 17.3621 8.56577 17.4199 8.59699C17.4777 8.62821 17.5411 8.64774 17.6064 8.65447C17.6717 8.6612 17.7377 8.655 17.8006 8.63622C17.8636 8.61745 17.9222 8.58645 17.9731 8.54502C18.0241 8.50359 18.0664 8.45253 18.0976 8.39475C18.1288 8.33697 18.1484 8.27361 18.1551 8.20829C18.1618 8.14296 18.1556 8.07695 18.1368 8.01402C18.1181 7.95109 18.0871 7.89248 18.0456 7.84152L17.8879 7.64752ZM15.0439 15.531L15.1921 14.1848C15.2023 14.0919 15.1863 13.9981 15.1458 13.914C15.1054 13.8298 15.0422 13.7586 14.9635 13.7085C14.8847 13.6584 14.7934 13.6313 14.7 13.6304C14.6067 13.6295 14.5149 13.6547 14.4351 13.7033L13.2906 14.4L12.0729 13.8438C11.988 13.8049 11.8938 13.7907 11.8012 13.8026C11.7086 13.8145 11.6211 13.8521 11.5488 13.9112C11.4764 13.9703 11.4221 14.0484 11.3919 14.1368C11.3617 14.2252 11.3568 14.3203 11.3779 14.4113L11.6829 15.7308L10.7789 16.732C10.7165 16.8011 10.6747 16.8863 10.658 16.9779C10.6414 17.0695 10.6507 17.1639 10.6849 17.2505C10.719 17.3371 10.7766 17.4124 10.8513 17.4681C10.9259 17.5237 11.0146 17.5573 11.1074 17.5653L12.4399 17.68L13.1024 18.8543C13.1488 18.9355 13.2168 19.0022 13.299 19.0469C13.3811 19.0917 13.474 19.1128 13.5674 19.1078C13.6608 19.1024 13.7509 19.0708 13.8272 19.0166C13.9036 18.9625 13.9631 18.8879 13.9991 18.8015L14.5204 17.5555L15.8314 17.2825C15.9225 17.2636 16.0065 17.2196 16.074 17.1555C16.1415 17.0914 16.1897 17.0098 16.2133 16.9197C16.2369 16.8297 16.2349 16.7349 16.2075 16.646C16.1802 16.557 16.1285 16.4775 16.0584 16.4163L15.0439 15.531ZM14.0589 16.6303C13.9794 16.6469 13.9052 16.6825 13.8426 16.7342C13.78 16.7859 13.7309 16.8521 13.6996 16.927L13.4711 17.473L13.1811 16.959C13.1412 16.8882 13.0846 16.8282 13.0162 16.7842C12.9478 16.7402 12.8697 16.7135 12.7886 16.7065L12.1956 16.6555L12.5999 16.208C12.6539 16.1482 12.6926 16.0763 12.7128 15.9983C12.733 15.9202 12.7341 15.8385 12.7159 15.76L12.5809 15.1753L13.1164 15.42C13.1907 15.4539 13.2721 15.4691 13.3536 15.4642C13.4351 15.4594 13.5142 15.4346 13.5839 15.392L14.0869 15.086L14.0211 15.681C14.0123 15.7612 14.023 15.8423 14.0523 15.9174C14.0816 15.9925 14.1286 16.0595 14.1894 16.1125L14.6431 16.5088L14.0589 16.6303ZM7.29289 17.2155L7.45414 16.8055L7.88489 16.7253L7.54414 16.423L7.58139 15.977L7.20939 16.2L6.80289 16.0048L6.91339 16.4453L6.62414 16.77L7.06539 16.8193L7.29289 17.2155ZM14.7711 10.4355L14.9989 10.8318L15.1604 10.4215L15.5904 10.3415L15.2496 10.0393L15.2871 9.59327L14.9154 9.81627L14.5086 9.62102L14.6191 10.0615L14.3301 10.3863L14.7711 10.4355ZM11.9754 21.3765L11.6034 21.5993L11.1969 21.4045L11.3074 21.8445L11.0184 22.1695L11.4591 22.2188L11.6871 22.615L11.8484 22.2048L12.2784 22.125L11.9381 21.8223L11.9754 21.3765ZM19.6814 14.9928L19.3091 15.2155L18.9026 15.0205L19.0131 15.4613L18.7239 15.7858L19.1649 15.8353L19.3929 16.2315L19.5544 15.821L19.9841 15.7415L19.6434 15.4388L19.6814 14.9928ZM14.4114 25.2748L14.2329 24.8945L14.1846 24.9343L14.0249 25.2748L13.7171 25.3215L13.6384 25.387L13.9056 25.6613L13.8319 26.1133L14.2181 25.8998L14.6044 26.1133L14.5306 25.6613L14.8431 25.3405L14.4114 25.2748Z" fill="#595959"/>
</svg>
